<svg id="Layer_1" data-name="Layer 1" xmlns="http://www.w3.org/2000/svg" viewBox="0 0 500 500"><defs><style>.cls-1{fill:#2aa4ef;}</style></defs><title>back</title><path class="cls-1" d="M472.21,214.86q-56,14.73-113.26,24-16.09,2.59-32.24,4.77l4.79-.65q-58.86,7.88-118.27,10T94.57,251.2Q61.21,249,28,245c-4.26-.51-9.84,2.38-12.73,5.28C12.15,253.42,9.8,258.54,10,263c.21,4.66,1.74,9.49,5.27,12.73l3.65,2.82A18,18,0,0,0,28,281q43.83,5.3,88,7.36,44.31,2.07,88.69.84,44.13-1.22,88.09-5.67,46.13-4.67,91.83-12.68,43.53-7.65,86.4-18.51,5.41-1.37,10.81-2.79a18.55,18.55,0,0,0,10.75-8.27c2.26-3.86,3.22-9.54,1.82-13.87-3-9.37-12.39-15.14-22.15-12.57Z"/><path class="cls-1" d="M44.25,274.25a279.14,279.14,0,0,1,25-40.21q4-5.43,8.07-10.74L74.49,227c6.69-8.66,13.6-17.15,20.5-25.64,7.14-8.8,14.34-17.49,22.18-25.69q3.35-3.5,6.78-6.91a83.39,83.39,0,0,1,6.92-6.51L127.23,165c2.44-1.88,5.09-3.42,7.69-5a58.53,58.53,0,0,0,10.56-8.08,18.59,18.59,0,0,0,5.27-12.73,13.63,13.63,0,0,0-1.55-6.93,13.57,13.57,0,0,0-3.72-5.79c-3.43-3.15-7.94-5.49-12.73-5.28A18.71,18.71,0,0,0,120,126.45a28.62,28.62,0,0,1-2.74,2.41l3.65-2.81c-1.94,1.47-4,2.74-6.08,4a82.47,82.47,0,0,0-7.61,5.27A128.54,128.54,0,0,0,94,147.78c-7.7,7.91-14.88,16.23-21.82,24.8-14.09,17.38-28.4,34.66-41,53.15a258,258,0,0,0-18,30.35A13.35,13.35,0,0,0,11,262.77a16.16,16.16,0,0,0,3.54,13.3,13.67,13.67,0,0,0,5.05,4.64c4.18,2.2,9.24,3.31,13.87,1.81,4.29-1.39,8.68-4.1,10.76-8.27Z"/><path class="cls-1" d="M16,285.16c6.74,7.63,13.19,15.53,19.42,23.59l-2.82-3.65C48,325,62.12,345.85,76.06,366.77c1.87,2.8,3.72,5.6,5.69,8.31,2.79,3.82,5.86,7.4,8.75,11.13l-2.81-3.65c5.35,7,9,15.42,15.78,21.32a13.39,13.39,0,0,0,5.79,3.72,13.49,13.49,0,0,0,6.94,1.55,13.45,13.45,0,0,0,6.93-1.55,13.39,13.39,0,0,0,5.79-3.72c3.15-3.43,5.49-7.93,5.28-12.73-.21-4.58-1.69-9.6-5.28-12.72a30.79,30.79,0,0,1-4-4.26l2.82,3.64c-2.29-3-4.17-6.23-6.2-9.39-2.89-4.49-6.43-8.48-9.7-12.69l2.81,3.64c-4.58-6-8.59-12.36-12.8-18.59Q95.31,331,88.65,321.37c-9.74-14.09-19.8-27.92-30.37-41.39q-8.14-10.37-16.85-20.28A13.57,13.57,0,0,0,35.64,256a13.69,13.69,0,0,0-6.94-1.55A13.65,13.65,0,0,0,21.77,256,13.57,13.57,0,0,0,16,259.7c-3.15,3.43-5.49,7.94-5.28,12.73l.65,4.79A18,18,0,0,0,16,285.16Z"/></svg>