<svg id="Layer_1" data-name="Layer 1" xmlns="http://www.w3.org/2000/svg" viewBox="0 0 500 500"><defs><style>.cls-1{fill:#f95568;}</style></defs><title>delete</title><path class="cls-1" d="M73.38,228.08a685.82,685.82,0,0,0,7.76,73.61,654.8,654.8,0,0,0,14.74,68.72q4.61,16.95,10.09,33.65c3.9,11.87,8,23.7,12.9,35.2,4.76,11.19,12.34,20.92,22.71,27.45a67,67,0,0,0,10.3,4.9,61.1,61.1,0,0,0,7.36,2.46,148.48,148.48,0,0,0,19.88,3.39c23.83,3,47.9,4.65,71.88,5.92q18.35,1,36.71,1.42c5.62.13,11.25.26,16.88.17a169,169,0,0,0,20.46-1.7,72.39,72.39,0,0,0,15.22-3.62c5.76-2.14,11.45-4.65,16.39-8.34a79.17,79.17,0,0,0,8.15-6.69,62.83,62.83,0,0,0,5.51-6.46,66,66,0,0,0,7.7-12.24,126.08,126.08,0,0,0,9-27.13c2.48-11.42,4.69-22.91,6.95-34.38q7.08-36,13.49-72.08,6.38-35.91,12.07-71.92,1.39-8.88,2.76-17.77a13.6,13.6,0,0,0,.32-7.18,13.41,13.41,0,0,0-2.13-6.69c-2.19-3.74-6.47-7.3-10.76-8.27-4.61-1.05-9.78-.83-13.87,1.81-3.68,2.37-7.58,6.24-8.27,10.76q-6.87,44.77-14.78,89.38t-16.89,89.16c-2.55,12.68-4.59,25.75-9.58,37.75l1.81-4.3a58.82,58.82,0,0,1-7.48,13.1l2.82-3.64a47,47,0,0,1-8.25,8.25l3.64-2.82a48.08,48.08,0,0,1-10.28,5.94l4.3-1.81a69.74,69.74,0,0,1-17.39,4.47l4.78-.64a176.66,176.66,0,0,1-25.92,1q-14.22-.26-28.42-.86-28.91-1.18-57.73-3.71c-10.33-.9-20.68-1.79-31-3.15l4.79.64c-7-.95-14-2.27-20.57-5l4.3,1.82a40.2,40.2,0,0,1-8.71-5l3.65,2.82a37.49,37.49,0,0,1-6.44-6.46l2.81,3.64a58.16,58.16,0,0,1-7.19-12.86l1.81,4.3C148,416.46,145,407.44,142,398.49q-4.87-14.53-9.08-29.28-8.28-29-13.88-58.65-3.15-16.77-5.42-33.69l.64,4.79q-3.57-26.69-4.89-53.58a19,19,0,0,0-5.28-12.73c-3.12-3.12-8.24-5.48-12.72-5.27-4.66.2-9.49,1.73-12.73,5.27s-5.51,7.94-5.27,12.73Z"/><path class="cls-1" d="M57,165.37q39-7.43,78.39-12.7l-4.79.64q66.65-8.92,133.92-11.75T399,142.1q37.68,1.88,75.23,5.69c4.31.44,9.78-2.32,12.73-5.27,3.12-3.12,5.47-8.25,5.27-12.73-.21-4.66-1.74-9.48-5.27-12.73-3.72-3.41-7.73-4.76-12.73-5.27q-41.21-4.19-82.61-6t-82.85-1.37q-41.43.48-82.79,3.3-41.52,2.82-82.82,8c-28.69,3.6-57.28,7.9-85.71,13.11q-5,.91-10.06,1.87c-4.22.8-8.65,4.68-10.75,8.27-2.26,3.86-3.22,9.55-1.82,13.87s4.11,8.56,8.27,10.76A20.12,20.12,0,0,0,57,165.37Z"/><path class="cls-1" d="M182.24,103.29A37.21,37.21,0,0,1,181,97.75l.65,4.79a37.27,37.27,0,0,1,0-9.38L181.05,98a43,43,0,0,1,3-10.84l-1.82,4.3a54.16,54.16,0,0,1,6.86-11.62l-2.82,3.64a63.83,63.83,0,0,1,11.21-11.19l-3.64,2.82a73.94,73.94,0,0,1,16.33-9.36l-4.3,1.81c10.4-4.36,21.45-6.81,32.59-8.32l-4.79.64c8.06-1.08,16.18-1.69,24.3-2.15,8.36-.47,16.74-.84,25.12-.61a134.55,134.55,0,0,1,14,1.09l-4.79-.65A84.51,84.51,0,0,1,313.17,63l-4.3-1.82a70.15,70.15,0,0,1,15.56,9.1l-3.64-2.81a84.28,84.28,0,0,1,14.7,14.9l-2.82-3.64c8.35,10.83,14.47,23.18,19.77,35.73l-1.81-4.3c1.95,4.64,3.8,9.32,5.61,14a13.53,13.53,0,0,0,3.23,6.12,13.59,13.59,0,0,0,5,4.64,13.41,13.41,0,0,0,6.69,2.13,13.61,13.61,0,0,0,7.18-.32c4.35-1.41,8.55-4.11,10.75-8.27s3.53-9.42,1.82-13.87C384.15,96.9,377,78.83,365.9,63.38A129.21,129.21,0,0,0,355.17,50.1a104.84,104.84,0,0,0-13-11.28,68.12,68.12,0,0,0-11.23-7,94,94,0,0,0-18.2-6.94c-11.87-3.08-24.4-4-36.63-3.89-10.8.08-21.64.7-32.39,1.69-12,1.1-24.09,2.68-35.7,6a131.16,131.16,0,0,0-18.36,7,71.41,71.41,0,0,0-12.62,7.3,85.39,85.39,0,0,0-13.6,11.86A77.18,77.18,0,0,0,153.19,69a62.28,62.28,0,0,0-6.31,16.26,52.3,52.3,0,0,0-1.25,16.91,62,62,0,0,0,1.9,10.67,18.8,18.8,0,0,0,8.27,10.76,13.39,13.39,0,0,0,6.7,2.14,13.67,13.67,0,0,0,7.17-.32c4.36-1.41,8.56-4.11,10.76-8.28a18.41,18.41,0,0,0,1.81-13.87Z"/></svg>