<svg id="Layer_1" data-name="Layer 1" xmlns="http://www.w3.org/2000/svg" viewBox="0 0 500 500"><defs><style>.cls-1{fill:#2aa4ef;}</style></defs><title>logo</title><path class="cls-1" d="M20,433.77c2.68,0,5.33.08,8,.26,2.25.16-2.57-.51-.39,0,.59.12,1.18.22,1.76.36s1.16.3,1.73.48l1.15.4c-1.55-.68-1.81-.79-.79-.32a35.45,35.45,0,0,1,3.5,2c.48.32,2.55,1.4.29.14A11.18,11.18,0,0,1,37,438.55c2.51,2.31,4.68,4.95,7.16,7.28a34.75,34.75,0,0,0,9,6.3c2,.91,4,1.72,6,2.52l2.11.82c1.07.43.92.36-.45-.22l1.43.65c6.88,3.15,13.49,6.83,20.59,9.49,1.14.42,3.46.72,4.35,1.55L86,466.45c.44.2.87.4,1.3.62.65.32,1.29.66,1.93,1,2.81,1.57,5.48,3.39,8.14,5.21,2.47,1.69,4.93,3.41,7.5,4.95a79,79,0,0,0,10.71,5.1,85.55,85.55,0,0,0,22.1,6.25,92.34,92.34,0,0,0,9.84.46c3.5.07,7,.31,10.49.4a65.94,65.94,0,0,0,21.71-3c7.1-2.2,14.24-3.76,21-7,1.4-.66,2.73-1.47,4.13-2.14l.67-.31c1.05-.47.9-.4-.46.19a7.56,7.56,0,0,1,2.12-.77,84.47,84.47,0,0,1,9.64-2.56c2.95-.64,5.92-1.19,8.87-1.82,1.54-.33,3.08-.65,4.62-.95,2.8-.54-2.27.24.54-.08,1.76-.2,3.53-.44,5.28-.68,7.16-1,14.05-3.49,21.15-4.85a115.2,115.2,0,0,0,20.6-5.47c7-2.74,13.52-6.57,20.27-9.85a78.06,78.06,0,0,0,15.66-10.55c9-7.5,16.3-16.75,23.44-25.94,3.66-4.7,7.27-9.44,11.06-14,4.46-5.44,9.09-10.68,13-16.54,7.91-11.85,14.69-24.61,21.16-37.29,6.82-13.37,12.22-27.2,17.55-41.22,1.21-3.19,2.44-6.38,3.73-9.54.32-.79.64-1.59,1-2.37-1,2.36.13-.27.28-.62,1-2.36,2-4.73,3-7.11,2.6-6.52,4.49-13.29,7-19.85s5.5-13.25,8.06-20c1.24-3.23,2.4-6.49,3.59-9.74.6-1.62,1.2-3.23,1.82-4.84l1-2.4c.45-1.1.43-1.06-.07.13l.69-1.58c3-6.78,6.08-13.47,7.87-20.71a91.92,91.92,0,0,0,2.69-22.28c0-6.89-.66-13.78,0-20.66.08-.81.18-1.61.27-2.42.31-2.71-.33,2.35.05-.31.31-2.2.62-4.4.88-6.6a55.24,55.24,0,0,0,.29-9.79c0-.7,0-1.41-.08-2.1-.19-2.14-.77,2.35,0,.16a10.85,10.85,0,0,1,.62-2l-.51,1.26c.2-.41.41-.81.64-1.21.34-.59.74-1.14,1.11-1.72,1.27-2-1.56,1.72,0,0,1.06-1.17,2.1-2.35,3.19-3.49,4.63-4.83,9.46-9.46,14.13-14.25A103.89,103.89,0,0,0,475.56,104c3.77-6.11,6-13,9.81-19.14,1.81-2.92,3.74-5.63,4.58-9,1.11-4.53.45-9.39-2.88-12.85-4.26-4.43-10.69-4.49-16.09-2.45a76.83,76.83,0,0,0-11,5.37,81.37,81.37,0,0,0-17,12.39c-1.71,1.7-3.17,3.63-4.86,5.34-.42.42-.87.82-1.3,1.23-1.54,1.46,2.07-1.33.3-.29s2.48-.75.54-.2,2.74-.1.68-.17l10.5,10.5c-.06-.8,0-1.59,0-2.39,0-1.13-.06,1.1-.15,1.13s.33-1.39.3-1.31a13.56,13.56,0,0,0,.65-1.92c-.18,1.62-.72,1.56-.25.63.21-.41.4-.83.61-1.23,1.47-2.83,3.26-5.48,4.69-8.32,1.65-3.3,3.06-6.71,4.77-10,1.86-3.55,3.77-7.07,5.46-10.7,3.08-6.66,6.87-13,10.36-19.48,3-5.51,3.3-11.79-.67-16.92-3.58-4.63-9.81-5.91-15.24-4.19-7.13,2.27-13.88,6.6-20.33,10.27-3.44,1.95-6.86,3.92-10.33,5.8s-6.86,4-10.46,5.16c.08,0,1.73-.7.62-.26-.39.14-.77.3-1.14.45-1.18.48-2.36,1-3.5,1.5s-2.47,1.32-3.69,2-2.41,1.21-3.58,1.87,2.14-.71.91-.38c-.26.07-.51.19-.77.27s-.95.28-1,.25,2.88-.21,1.49-.26a8.49,8.49,0,0,1,3,.6c2.36,1-.65-.75,1.26.69,1.75,1.33-.07-.38-.32-.53,0,0,1.34,1.94.81,1-.14-.24-.32-.46-.48-.69-.44-.66-.85-1.33-1.24-2-1.24-2.11-2.29-4.35-3.63-6.4a62.66,62.66,0,0,0-17.11-17.61c-6.39-4.37-13.85-6.05-21.13-8.33A80.23,80.23,0,0,0,344,9.53c-4.5,0-8.84-.06-13.27,1l-5.14,1.22c-1.15.27.71-.08.76-.1a17.24,17.24,0,0,1-1.74.22l-5,.66-6.1.86-3.06.43-1.31.19c-1.64.23,2.56-.33-.27,0-4.08.52-8.17,1-12.28,1.18-7.73.41-15,1.53-22.11,4.66a38.8,38.8,0,0,0-17,15.13c-3.77,6.15-5.66,13.42-7,20.43-1.44,7.39-2.32,14.92-4.39,22.17-1,3.41-2.41,6.65-3.57,10a44.71,44.71,0,0,0-2.14,12.63c-.2,4-.73,8-1.12,12.07s-.41,8.19-.57,12.31c-.08,2.08-.21,4.17-.4,6.25-.09,1-.15,2.1-.33,3.11,0-.12.28-1.8.06-.58-.11.59-.19,1.18-.3,1.76-.3,1.68-.65,3.34-1.09,5-.2.75-.41,1.49-.65,2.23-.1.32-.21.64-.32.95-.31.88-1.08,1.59.2-.35-.35.52-.56,1.18-.87,1.73a6.06,6.06,0,0,0-.65,1.06c0-.12,1.48-1.52.74-.94a4,4,0,0,0-.59.64c-1,1.22.5-.53.82-.58-.23,0-.64.39-.86.51-1.66.92-.27-.19.41-.11a7.22,7.22,0,0,0-1.9.53c-1.71.46,2.26-.12-.18,0a23.63,23.63,0,0,1-2.38,0c-.34,0-.69-.07-1-.08-1.33,0,2.31.42.35.06-6.54-1.2-12.83-3.6-19.11-5.75-3.72-1.28-7.42-2.61-11.08-4.06l-2.75-1.12c-1.11-.45.45.2.55.24-.52-.18-1-.46-1.55-.68-1.82-.81-3.62-1.64-5.4-2.52-7.37-3.62-14.47-7.61-22-10.9s-15-6.57-22.55-9.85c-3.8-1.65-7.61-3.3-11.36-5.07-3.33-1.57-6.18-3.94-9.49-5.53A71.39,71.39,0,0,0,118,97.73l-2.59-.94c-.22-.08-1.48-.57-.21-.07s-.3-.18-.55-.3c-3.42-1.74-6.79-3.65-10-5.7-.68-.43-1.35-.88-2-1.33l-1.31-.92c-.18-.13-1.27-1-.2-.13s0,0-.16-.16c-.44-.36-.89-.73-1.34-1.08-1.37-1.1-2.76-2.17-4.15-3.22s-3-2.2-4.44-3.28l-2.4-1.75-1-.76c-.82-.61-1.44-1-.25-.17-3.26-2.2-6.12-5.19-9.09-7.76s-6-5.19-9.16-7.66c-2-1.6-4-3.18-6.11-4.7s1.54,1.3.94.76c-.29-.27-.62-.51-.92-.77-1.58-1.35-3.12-2.73-4.7-4.07-4.07-3.44-8.43-7.36-13.71-8.79a11.94,11.94,0,0,0-13.5,6,32.38,32.38,0,0,0-2.86,8.19c-1.72,7.27-1,14.48.14,21.78A213.49,213.49,0,0,0,32.88,103c4.13,15,11.84,28.86,19.68,42.23a191.94,191.94,0,0,0,14.13,20.94c.33.42,1.32,1.36-.15-.2a11.81,11.81,0,0,1,.74,1L69,169.22l3.42,4.6c2.65,3.53,5.33,7.06,8.19,10.43,4.94,5.83,10.39,11.29,15.53,16.95,2.53,2.78,5.1,5.52,7.83,8.11s5.58,4.69,8.29,7.14c2.11,1.9,4.06,3.85,6.31,5.61A43.1,43.1,0,0,1,122,225c.34.32.83,1.11,1.24,1.29-.19-.08-1.39-2.15-.69-.8,0,0-1-2.66-.51-1.19l7.33-12.92c-.37.12-.8.2-1.17.34-1.37.53,1.88-.08.43-.11-1.25,0,.84.11.83.17s-1.11-.3-1.18-.33c-1.95-.63-3.88-1.33-5.83-2q-5.7-1.81-11.43-3.51c-7.38-2.19-14.71-4.42-21.92-7.13-1.71-.65-3.41-1.31-5.1-2l-1.17-.48c-1.83-.75-.17,0,.17.08-.93-.3-1.83-.8-2.72-1.19-3.51-1.58-7-3.26-10.36-5.08-6.53-3.5-12.41-7.95-18.42-12.25-6.33-4.53-13.14-10.34-20.94-12-3.49-.72-7.75-.22-10.22,2.7-5.06,6-4.78,12.92-3.47,20.22A111.52,111.52,0,0,0,20.51,204c4.29,13,11.29,25.31,19.38,36.34a70.54,70.54,0,0,0,13.58,13.6c5.18,4.11,10.17,8.43,15.15,12.78,10.56,9.24,21,18.6,31.78,27.61,12.16,10.16,24.67,20.88,40.41,24.82l2.8-20.63c-13.26-.36-26.4-.94-39.6-2.29-3.17-.33-6.34-.6-9.51-1-2.89-.34,2.22.4-.64-.11-.71-.12-1.42-.23-2.13-.37a30.51,30.51,0,0,1-3.76-1,64.94,64.94,0,0,0-7.31-2.38,21.36,21.36,0,0,0-13.77,1.5c-3.15,1.37-5.36,5.76-5.2,9.07.53,10.6,5.6,19.07,12.38,26.93a161.85,161.85,0,0,0,18.44,18.77,282.44,282.44,0,0,0,24,17.55c8.61,5.75,17.12,11.69,26,17a72.39,72.39,0,0,0,16.38,7c2.47.74,5,1.44,7.41,2.27.49.16,1,.33,1.46.51l1.09.41-.72-.31c1.31.63,2.58,1.26,3.83,2V376a20.5,20.5,0,0,0-2.7,1.63c.07-.19,2.48-.85.74-.34-.52.15-1,.34-1.55.48-.95.26-1.92.47-2.9.64a7.06,7.06,0,0,0-1.33.21q2.52-.31.78-.12l-.68.08c-4.91.51-10,.69-14.75,2-10.71,2.84-21.51,5.58-32,9.1-10.85,3.64-22.06,6-33.1,9s-22,5.2-33,7.55a120.08,120.08,0,0,0-17.24,4.63c-2.63,1-5.22,2.06-7.9,2.89-1.21.38-2.45.63-3.67.95-2.39.63,1.71,0,.14,0-.92,0-1.82.11-2.74.11-5.49,0-10.75,4.85-10.5,10.5A10.69,10.69,0,0,0,20,435.71c5.89,0,11.43-1.53,16.87-3.61a113.76,113.76,0,0,1,14.89-4.57c11.3-2.62,22.79-4.42,34-7.51s22.5-5.52,33.57-8.94c5.49-1.7,10.93-3.56,16.48-5.09s11.05-2.91,16.56-4.45c1.23-.35,2.46-.73,3.7-1,.61-.14,1.22-.23,1.83-.36,2-.4-2.46.24-.24,0,2.46-.24,4.93-.44,7.38-.72,6.1-.68,12.46-1.66,17.56-5.37,3.08-2.23,5.2-5.08,5.2-9.06a10.6,10.6,0,0,0-5.2-9.07,64,64,0,0,0-14-5.78c-2.1-.63-4.22-1.22-6.31-1.89-1-.31-2-.64-2.94-1-.59-.22-2.36-.75,0,.05a15.81,15.81,0,0,1-1.77-.82c-9-4.45-17.21-10.62-25.51-16.17-3.66-2.45-7.33-4.87-11-7.37-1.72-1.18-3.44-2.38-5.13-3.6-.86-.61-1.71-1.23-2.56-1.86l-1.27-.94c-.32-.24-2.52-1.88-.4-.29a134.27,134.27,0,0,1-18.88-17.89c-1.46-1.61-2.92-3.21-4.33-4.86l-.85-1c-.24-.29-1.4-1.87-.42-.49s.06.07-.17-.25-.64-.9-.94-1.36c-.62-.91-1.19-1.85-1.72-2.81-.21-.39-.39-.79-.6-1.18-1.1-2,.72,2.24,0,.08-.35-1.06-.71-2.1-1-3.2a11.14,11.14,0,0,0-.25-1.35l.2,1.42c-.05-.47-.08-.95-.1-1.42L77.49,311c-1.44.55-1.78.73-1,.54s.41-.12-1.22.18c.24.34,2.46-.35.55,0-1-.13-1-.11-.07.07l.67.17c.68.19,1.35.41,2,.64a61.11,61.11,0,0,0,6.87,2.22c6.72,1.43,13.62,1.8,20.43,2.55,12.6,1.39,25.22,1.76,37.88,2.11,5.22.15,9.64-4.1,10.31-9.1a10.46,10.46,0,0,0-7.52-11.52c-1.46-.37-2.9-.79-4.32-1.3-.61-.21-1.21-.46-1.82-.68-1.51-.56,2.3,1.11,0,0a87.92,87.92,0,0,1-8.47-4.63c-1.13-.71-2.23-1.45-3.32-2.22a15.36,15.36,0,0,1-1.9-1.38c1.72,1.71.43.33-.12-.1q-3.94-3.11-7.81-6.3c-10.15-8.35-20-17.07-29.86-25.75-4.84-4.26-9.68-8.52-14.6-12.69-4.26-3.61-8.85-6.84-12.89-10.71-.86-.83-1.7-1.69-2.5-2.59a9,9,0,0,1-1.44-1.7c.9,1.83.63.87.25.3q-2.7-4.09-5.35-8.21a119.61,119.61,0,0,1-8.92-15.79c-.19-.42-1.4-2.84-.22-.47-.48-1-.83-2.06-1.21-3.08q-.87-2.36-1.61-4.75c-.85-2.74-1.44-5.53-2-8.33-.24-1.16-.52-2.32-.76-3.48-.08-.37-.15-.75-.22-1.13-.18-.94-.15-3.45-.09-.13,0-1.11-.15-2.27-.2-3.39-.08-2-.59,2.65-.14.79a6.5,6.5,0,0,1,.25-.86,6.64,6.64,0,0,1-1.86,3.23L25,186.17c.72.15,1.4.4,2.11.59,1.11.28-1-.33-.95-.42a13.53,13.53,0,0,1,1.26.62,47.34,47.34,0,0,1,4.42,2.69c2.84,1.9,5.63,3.91,8.42,5.89,6.12,4.36,12.08,9,18.71,12.53,14.57,7.87,30.24,13.32,46.08,18q6.59,2,13.12,4.05a58.09,58.09,0,0,0,6.13,1.94,21.29,21.29,0,0,0,10.69-.47c5.3-1.66,9-7.31,7.33-12.91a20.92,20.92,0,0,0-6.87-9.84c-2-1.71-4.24-3.21-6.12-5.11-2.55-2.57-5.41-4.73-8.13-7.11s-5.26-5-7.72-7.58c-5.07-5.42-10-10.93-15.08-16.34-1.19-1.27-2.33-2.57-3.44-3.9-.61-.73-1.2-1.46-1.79-2.2l-.76-1c-1.24-1.55.66.9-.11-.13-2.21-2.95-4.4-5.9-6.62-8.84l-2.3-3L82,152c-.13-.17-1-1.21-.18-.23s-.22-.31-.43-.58-.49-.66-.73-1c-.66-.89-1.3-1.79-1.93-2.71-2.15-3.1-4.18-6.3-6.13-9.53-3.93-6.5-7.7-13.12-11.2-19.86-.77-1.48-1.52-3-2.25-4.48l-1.14-2.43a11.55,11.55,0,0,0-1.24-2.79s.76,1.85.33.75c-.14-.36-.29-.71-.43-1.06-.33-.83-.65-1.66-1-2.5-.63-1.69-1.21-3.4-1.74-5.11-2.17-7-3.37-14.3-4.73-21.51-.18-.94-.35-1.89-.52-2.84-.07-.42-.31-2.85-.25-1.46s-.16-1.42-.2-1.86c-.09-1.07-.16-2.14-.19-3.22,0-.79,0-1.59,0-2.38,0-.64.35-3.63,0-1.36s.11-.19.24-.75c.22-1,.47-1.95.75-2.92.15-.54.34-1.07.51-1.61.58-1.94-1.2,2-.27.66.57-.84-1.51,1.84-1.23,1.55,0,.05-7,2.8-6.67,2.8s-3.34-.68-1.72-.14c-.45-.15-2.75-1.37-1.32-.49.45.28.91.54,1.35.83s.87.59,1.29.9,1.79,1.35.29.2.16.15.51.44l1.57,1.3c1.53,1.3,3,2.64,4.57,4q.69.6,1.41,1.17c1.08.86,2.18,1.68,3.28,2.49l1,.75c1.59,1.19-.78-.65.2.16,3,2.42,5.94,4.85,8.85,7.36,6.4,5.53,12.88,10.77,19.7,15.78.8.58,1.64,1.14,2.39,1.78-1.39-1.18,0,0,.57.47,2,1.66,4.1,3.31,6.26,4.81A101.81,101.81,0,0,0,101,112.9a84.66,84.66,0,0,0,11.82,5.21c.34.12,2.1.53,2.21.83,0,0-2.32-1.18-.33-.09.35.19.7.36,1,.56,1.59.89,3.08,1.94,4.62,2.9a83.68,83.68,0,0,0,10.75,5.18c3.66,1.62,7.33,3.2,11,4.8,7.3,3.19,14.66,6.29,21.88,9.64s13.93,7.42,21.16,10.61c7.65,3.38,15.47,6.3,23.4,8.93,6.76,2.25,13.3,4.52,20.44,5.22,8.42.83,17-2,22.28-8.78,5-6.51,6.5-15.1,7.54-23s.75-16.2,1.6-24.28c.41-4,.78-8,1-12.07,0-.09.12-1.19.08-1.21s-.39,2-.1.87c.2-.85.34-1.71.57-2.55.46-1.64,1-3.24,1.65-4.83A116,116,0,0,0,269.25,69c1.13-6.42,2.13-12.94,4.29-19.12.16-.47,1.09-2.81.47-1.34s.28-.55.46-.9c.35-.69.72-1.37,1.12-2,.17-.28.34-.55.52-.82,1-1.44.4-.08-.24.22.5-.23,1.08-1.26,1.46-1.68.57-.61,1.16-1.2,1.78-1.76l.78-.69c.71-.63,1.11-.32-.51.38a18.75,18.75,0,0,0,1.94-1.3c.65-.4,1.32-.78,2-1.12.29-.15.59-.27.87-.43,1-.55-1,.42-1,.41,1.55-.44,3-1.1,4.6-1.49,1.36-.35,2.8-.46,4.15-.83.06,0-2.35.27-1.17.16l1-.11q1.32-.13,2.64-.21c8.59-.53,17.06-1.61,25.58-2.82l3.05-.44c.88-.12,2.58-.43.69-.1,2.72-.48,5.49-.57,8.19-1.12,1.6-.33,3.16-.81,4.75-1.16.36-.09.74-.14,1.1-.23,1.16-.31-.84.19-.89.1a26.3,26.3,0,0,0,3.29,0c1.84,0,3.68,0,5.52,0s4.61-.47,6.26.19c0,0-2-.33-.75-.1.4.08.81.13,1.21.21.94.17,1.88.38,2.81.6,1.87.44,3.72,1,5.55,1.53,3.68,1.12,7.34,2.27,11.05,3.29.66.19,1.31.38,1.95.61,2.46.85-1.33-.72.35.1a41.06,41.06,0,0,1,4.26,2.35c.7.45,1.36,1,2,1.41.94.64-.69-.52-.71-.55a5.07,5.07,0,0,0,.83.69,48.24,48.24,0,0,1,4,3.74c1.1,1.16,2.12,2.39,3.14,3.62.75.91-.5-.65-.51-.66a6.53,6.53,0,0,1,.87,1.2c.4.57.8,1.14,1.17,1.73,3.35,5.37,5.71,11.55,11.34,15.06,7.4,4.62,15.23.47,21.93-3.23.57-.32,1.13-.64,1.71-.93.21-.11.46-.21.66-.34.92-.59-1.74.73-1.52.62,2.4-1.18,5-2,7.42-3.15,3.42-1.57,6.76-3.32,10.06-5.13,6.78-3.72,13.41-7.75,20.32-11.25,1.31-.67,2.65-1.3,4-2a7.67,7.67,0,0,0,.77-.36c.07,0-2.36.8-1.39.6a4.37,4.37,0,0,0,.72-.25c1.54-.64-2.2,0-1.09.07s-1.92-.33-1.66-.26L460,38.1a3.8,3.8,0,0,1-2.88-3.69l-.46-1.82c.34-1.69.4-2.13.17-1.31-.32,1,.47-1.07.46-1.06-.88.63-1.68,2.74-2.17,3.73-3.48,6.86-7,13.68-10.55,20.52-1.76,3.43-3.63,6.8-5.32,10.27-1.44,3-2.67,6-4.32,8.85-3.75,6.47-7.67,13.31-7.09,21.09.43,5.81,4.46,10.29,10.5,10.5,7.46.25,12.91-4.69,17.51-9.91a50.61,50.61,0,0,1,5.89-5.54c2-1.65-1.27.88.06,0,.53-.37,1.05-.76,1.57-1.13q2.22-1.56,4.52-3c3.3-2,6.7-3.7,10.12-5.46-3.4,1.74-1.18.49-.17.17.61-.2,1.24-.28,1.84-.46-2.82.83-2.76.26-1.63.3A6.94,6.94,0,0,1,473.87,79a9,9,0,0,1-4.07-5.21q-.32-3.53-.3-1.92c.35-2.2.42-2.75.2-1.66a9.42,9.42,0,0,0-.44,1.4l.61-1.4-.9,1.32c-.89,1.34-1.74,2.7-2.57,4.08-1.77,3-3.19,6.09-4.66,9.21A82.53,82.53,0,0,1,457,94.1a33.31,33.31,0,0,1-2.85,4.1c1.72-1.94-.17.18-.43.49-.72.87-1.45,1.74-2.2,2.59-4.36,5-9.15,9.48-13.8,14.14s-9.77,9.38-13,15.07a26.54,26.54,0,0,0-3.5,11.15c-.25,3.06.24,6.13.07,9.21a26,26,0,0,1-.45,4.67c.7-2.75.05-.38,0,.26-.2,1.44-.4,2.89-.59,4.33a80.6,80.6,0,0,0-.77,9.69c-.09,6.94.58,13.87.12,20.8-.06.83-.13,1.65-.21,2.47-.05.49-.29,3.28,0,.45-.13,1.34-.41,2.68-.67,4A78,78,0,0,1,416,207.61c-.51,1.52-1.09,3-1.66,4.52-1,2.54,1-2-.2.46-.34.73-.67,1.47-1,2.2q-2.76,5.93-5.09,12c-2.48,6.47-4.73,13-7.35,19.43s-5.32,12.68-7.61,19.16c-1.14,3.21-2.11,6.49-3.25,9.71-.53,1.52-1.09,3-1.68,4.52-.29.75-.55,1.55-.91,2.27,1.21-2.44-.39.89-.59,1.36-3,6.85-5.65,13.79-8.28,20.77-1.21,3.19-2.41,6.39-3.64,9.58-.62,1.59-1.24,3.17-1.88,4.75-.32.79-.65,1.58-1,2.36-.46,1.1-.44,1,.06-.16-.16.39-.33.78-.5,1.17a372.21,372.21,0,0,1-19.79,38c-3.36,5.78-6.69,11.59-10.61,17-.46.64-.92,1.3-1.42,1.91,1.69-2-.08.06-.36.4-.82,1-1.67,2-2.51,2.94-2,2.33-4,4.71-5.88,7.12-7.24,9.08-14,18.54-21.91,27.1-1.87,2-3.8,4-5.81,5.92-.83.79-1.68,1.56-2.53,2.31L299,425.79l-1.05.86c-.88.7-.71.57.52-.38-.22.73-2.64,1.93-3.29,2.37-1.12.76-2.26,1.48-3.42,2.17-2.72,1.6-5.6,2.86-8.41,4.28s-5.46,2.93-8.23,4.33c-.74.38-1.5.75-2.26,1.11-.44.21-2.75,1.56-.53.26a27.16,27.16,0,0,1-5.73,2c-6.56,2-13.32,3-20,4.52-3.43.78-6.79,1.78-10.18,2.69a27.63,27.63,0,0,1-5,1c2.76-.22,0,0-.53.05-1.76.22-3.53.43-5.29.7-6,.92-12.16,2.3-18.08,3.76a64,64,0,0,0-8.69,2.75,62.49,62.49,0,0,0-5.85,2.62c-.7.37-1.38.77-2.09,1.12-.48.25-1,.48-1.47.7,1.27-.51,1.35-.56.26-.12-6.09,2.17-12.38,3.72-18.55,5.64-1.24.39-3.31,1.27-4.61,1.08l1.21-.15-1.59.16c-.8.07-1.6.11-2.41.15-3.25.13-6.5,0-9.75-.15s-6.36-.26-9.55-.26c-1.69,0-3.36-.1-5.05-.23-2.78-.22,2.2.5-.52-.1-1.09-.23-2.18-.42-3.27-.68a77.73,77.73,0,0,1-8.83-2.74c-1.6-.59-3.18-1.22-4.76-1.87-.38-.15-3-1.06-.66-.26a20.31,20.31,0,0,1-2.63-1.24c-5.54-2.85-10.43-6.76-15.68-10.08A54.47,54.47,0,0,0,96,448c-2-.88-3.93-1.63-6-2.33l-2.33-.86c-1.09-.44-1-.4.22.12l-1.52-.67c-6.55-2.94-12.81-6.42-19.5-9.07l-2.11-.82c-.66-.26-2.81-.64-.3-.1-1.41-.3-2.77-1.44-4-2.11-2.16-1.16,1.5,1.5-.29-.18-.56-.53-1.14-1-1.69-1.56-1.32-1.29-2.56-2.65-3.83-4a44.19,44.19,0,0,0-17.39-11.7c-5.47-1.91-11.52-2-17.26-2-5.49,0-10.75,4.83-10.5,10.5A10.68,10.68,0,0,0,20,433.77Z"/><path class="cls-1" d="M284.38,81.78c16.05,0,32.1-.63,48.16-.37a221.73,221.73,0,0,1,23.33,1.34c3.79.47,7.57,1,11.38,1.31,1.85.14,3.69.21,5.55.19.28,0,2.86-.17,2.93,0-1.58-.27-1.8-.28-.64,0s1,.3-.41-.16L380,64.52c-15.82-.77-31.58,1.66-47.17,4-7.52,1.13-15,2.37-22.42,3.94-3.72.79-7.43,1.58-11.17,2.24l-2.81.47c-.4.06-.81.11-1.21.18-1.21.2.72-.11.78-.1a9.09,9.09,0,0,0-1.8.13c-7.59.53-16.58,1.45-19.25,10a10.12,10.12,0,0,0,1.88,9.15,10.63,10.63,0,0,0,8.24,4.14c16.13,1.21,32.28.11,48.42.15,8.12,0,16.21.47,24.29,1.25,2,.19,3.93.39,5.89.61,1,.11,2,.23,2.93.33s.56.06-.88-.13c.5.07,1,.15,1.51.24,4.43.72,8.91,1.68,13.42,1.5,5.48-.22,10.76-4.68,10.5-10.5a10.69,10.69,0,0,0-10.5-10.5c-17.51-.18-35,0-52.52,0H302c-4.17,0-8.36,0-12.53,0-2,0-4.06.16-6.09.2-1,0-2,0-3.06,0-.68,0-4-.52-.93,0l-2.8,20.63,1.63.17c1.65.17-.19-.24-.37,0,.19-.2,2.59.42,2.81.46,2.13.38,4.25.82,6.36,1.3,4,.9,7.92,1.92,11.89,2.86,8.22,1.94,16.53,3.45,24.86,4.86,17.37,2.93,34.73,5.79,52.23,7.79,9.67,1.1,19.35,2.07,29,3.22l-2.79-20.62c-9.49,1.87-19.11,3-28.61,4.82s-18.93,3.82-28.35,5.92-18.86,4.33-28.26,6.63c-4.79,1.18-9.57,2.38-14.33,3.65-3.45.91-6.87,2-10.35,2.79-7,1.5-15,3.26-19.19,9.67-3.49,5.36-.24,14.2,6.28,15.43a105.64,105.64,0,0,0,14.18,1.76c4.14.21,8.28,0,12.42.12q12.45.39,24.87,1.1c16.72.95,33.4,2.36,50,4.37l3.77.46c.41,0,.84.14,1.26.16a8,8,0,0,0,4.05-.91q2.17-.92.66-.27c-1.29.6-.25.1,0,0,.5-.17,1-.35,1.49-.49a10.21,10.21,0,0,0,1.12-.29c.89-.4-2.66.09-1,.12,2.38,0-2.07-.62-.66-.21.92.26.6.56-1.46-.66,1.11.66-1.29-1.07-1.25-1,1,.93-1-1.37-.93-1.28.28.36.8,1.64,0-.17s-.08.37,0,1l10.12-13.29c-37.15,2.67-74.24-2.66-111.13-6.4-2.65-.27-5.3-.55-7.94-.87l-1.67-.21c-2.07-.26,1.2.18-.13,0l-3.47-.51c-1.78-.26-3.57-.45-5.31-.88-.39-.1-.78-.24-1.17-.33-.8-.29-.76-.25.14.11s.93.4.16,0a7.66,7.66,0,0,0-1-.64l1.18.87a8.39,8.39,0,0,1-.85-.94l-4.64,17.55c1.05-.26,2.11-.5,3.17-.71.34-.07,3.05-.29,3.15-.54,0,0-2.06.24-.82.11l1.58-.17c1.19-.12,2.38-.21,3.57-.29,4.18-.27,8.39-.33,12.58-.37,8.82-.07,17.63.17,26.43.62s17.6,1.1,26.39,1.86q6.66.58,13.31,1.33l6.21.75,3.31.43c.23,0,1.64.24.26,0l1.08.15c9.92,1.36,19.83,2.9,29.74,4.35V136.87c-.46.17-.92.34-1.39.48l-.71.19c-.93.19-.94.21,0,.08l.68-.08a9.79,9.79,0,0,1-1.08.07c-.24,0-1.73.13-1.82,0l.65.09c1.59.22.87.13-2.13-.28-.56,0-1.15.06-1.7.08-1.41.07-2.82.14-4.23.19q-7.41.3-14.83.36c-9.88.08-19.77,0-29.65,0-19.94-.1-39.88-.21-59.8.61-5.66.23-11.31.57-17,1-6.08.41-12.2.75-18.14,2.18-5.09,1.23-8.19,6.55-7.52,11.52.71,5.36,5,8.77,10.31,9.11,15.74,1,31.53,1.07,47.26,2.29,3.95.3,7.88.71,11.81,1.17.49.06,2.06.23-.27,0l1.25.17,2.91.42,5.83.86c7.78,1.19,15.54,2.51,23.28,3.88,8.86,1.57,17.71,3.21,26.55,4.83L355.17,163l-.65,2.12,7.33-7.34c-4.68,1-9.38,1.83-14.11,2.52l-1.62.23c-1.54.22,1.9-.23.36,0-1.22.14-2.43.3-3.65.43-2.34.26-4.67.51-7,.8-9.61,1.16-19.21,2.3-28.81,3.53-19.46,2.5-38.91,5.33-58.24,8.73a262.67,262.67,0,0,0-30.72,7,10.54,10.54,0,0,0-7.53,11.52c.74,5.47,5,8.59,10.32,9.1,8.18.8,16.55.08,24.75-.16,8.43-.25,16.86-.53,25.29-.71,16.68-.38,33.4-.7,50.09-.71a230,230,0,0,1,28.14,1.49L339,188.25c1-2.64.77-1.68.38-1.06a7.63,7.63,0,0,1,2.5-2.43c-1.24.81,1.25-.5,1.27-.51,2.89-.94,2.19-.08,1.33-.2-2.81-.39-5.49.83-8.11,1.66q-6.32,2-12.73,3.63c-8.84,2.23-17.76,4.07-26.73,5.65S279,197.79,270,199.16c-4.31.66-8.62,1.36-12.93,2l-6.51,1c-1.09.15-2.17.32-3.26.45,2.41-.29.86-.11.34-.05l-2.45.31a161.88,161.88,0,0,1-30.09,1.19v21q42-5.15,84.34-7.71c28.19-1.67,56.38-2.11,84.6-2.19,3.13,0,6.24-.3,9.37-.25,1.08,0,2.16.06,3.23.14.34,0,1.3.29,1.58.15.06,0-2.56-.43-1.7-.23.27.07.56.09.83.14.46.09.92.19,1.37.31s2.08.77.12-.06c-1.8-.76-1-.46-.65-.26a4.47,4.47,0,0,0,.53.31s-1.94-1.58-1.56-1.2c.64.65-1.78-2.55-1.08-1.42l6.28-15.43c-2.63.58-5.27,1.1-7.93,1.52-.78.12-1.59.3-2.38.35,2.45-.17,1-.12.42-.06-1.59.18-3.18.37-4.77.52-5.75.53-11.52.73-17.28.9-11.79.33-23.58.28-35.37.26-23.65,0-47.31.57-71,.68-13.27.07-26.53.07-39.8.08-5.49,0-10.75,4.83-10.5,10.5s4.61,10.5,10.5,10.5c30.23,0,60.45.22,90.57,3.22,2,.2,3.95.44,5.92.67,1.22.15-.78-.1-.82-.11.65,0,1.31.19,2,.29l2.73.44A122.5,122.5,0,0,1,337,229.88V209.63a35.59,35.59,0,0,1-6.78,2c-.16,0-2.69.44-.91.17s-.75.07-.92.09c-1.29.12-2.58.21-3.88.3-5.19.33-10.38.72-15.58,1.12-10.73.82-21.47,1.64-32.2,2.59q-32.69,2.88-65.08,8c-12,1.91-24,4-35.91,6.16-4.31.78-7.9,5.85-7.7,10.13a10.86,10.86,0,0,0,7.7,10.12c6.62,2.05,14.09.95,20.86.53,8.89-.56,17.84-.57,26.75-.86,19.26-.64,38.56-.7,57.84-.41,11.06.17,22.12.52,33.16,1.18l-10.12-13.3c-.23,1-.83,1.56.61-1.19-.6,1.15-.89.4.86-1a5.78,5.78,0,0,0-.65.66c-.72.88,2.49-1.58,1.06-.8-.67.36-1.36.75-2,1.14-1.09.64,2.76-1.05,1.07-.45-.59.21-1.17.43-1.76.62a78.47,78.47,0,0,1-9.61,2.14c-4.55.81-9,2.08-13.53,3Q271.18,243.57,262,245c-3,.48-6,1-9,1.33.34,0,2.31-.3.34-.05l-2.45.32-4.9.59q-9.34,1.06-18.72,1.83c-12.37,1-24.75,1.75-37.15,2.27-3.66.16-7.33.3-11,.42-3.34.12-6.65.57-10,.65a85.74,85.74,0,0,1-10.75-.43,12.87,12.87,0,0,0-6.4.47l-.52.12a7.37,7.37,0,0,1,6,.86,7.46,7.46,0,0,1,3.65,6l-5.2,9.07c.68-.35,1.38-.67,2.08-1,1-.49-1,.42-1,.42a5.36,5.36,0,0,0,.94-.36c1.5-.55,3-1,4.56-1.42,3-.81,6.14-1.22,9.23-1.8,0,0-2.26.28-1.06.15l1.38-.16,2.07-.22c1.57-.16,3.14-.29,4.72-.42l9-.7a335.86,335.86,0,0,1,45.2-.48c7.55.42,15.09,1.1,22.6,2l5.35.65,2.89.38c.23,0,1.63.22.25,0l.66.09q5.55.76,11.09,1.63c14.82,2.31,29.55,5.18,44.12,8.7,7.7,1.86,15.42,3.72,23,5.9,3.89,1.11,7.75,2.34,11.54,3.76l2.57,1c1.11.44.74-.19-.32-.14.37,0,1.11.48,1.45.63,1.95.88,3.85,1.83,5.74,2.83l-2.13-16.49-3.14,3.73,4.63-2.7c-2.64.64-5.3,1.22-8,1.72-1.33.25-2.66.48-4,.69l-1.6.24c-1.2.17-1.07.15.38-.05l-1.61.2c-5.41.63-10.81.7-16.23,1-11.54.7-23.09,1.08-34.65,1.23-22.9.29-45.81-.35-68.7-1.11-6.27-.21-12.54-.52-18.81-.67-2.8-.06-5.61-.11-8.41-.26-1.53-.08-3.07-.19-4.6-.35a8.73,8.73,0,0,1-1.51-.17c2.92.86-.16-.08-.87-.21L192,297.36c29.75-.85,59.43-3.42,89.15-4.8l6.35-.27c1,0,2,0,3-.12s.56.3.26-.16c-.84-.18-.77-.18.2,0l2.79.37c5.28.61,10.15-.78,14.95-2.83,4.05-1.73,6.12-7.87,4.82-11.86-1.5-4.66-5.31-7.32-10.12-7.71-46.15-3.69-92.39-3-138.63-3.86-12.65-.23-25.33-.22-37.89,1.4-2.77.36-5.43.9-7.43,3.08a10.57,10.57,0,0,0-3.07,7.42c.43,10.79,11.65,14.19,20.3,16.66,4.31,1.23,8.5,2.94,12.76,4.33q8.22,2.69,16.57,4.93c23.64,6.37,48,9.78,72.4,11.63,6.73.51,13.47.46,20.19,1,3.88.32,8.27,1.46,12,.23.92-.31,2.1-.1-1,.06,1.11,0,.63-.05-1.45-.23-1.75-.85-2.27-1.07-1.54-.66l.18.1a6.43,6.43,0,0,1-2.53-2.51,5.27,5.27,0,0,1,.49.87q-1-2.54-.48-.9l4.82-11.86a118.08,118.08,0,0,1-14.25,8c-1.23.58-2.46,1.14-3.7,1.69l-1.69.73c-1.21.53,2-.8.12-.06-2.53,1-5.06,2-7.62,3-11,4.12-22.1,8.06-32.23,14.15-3.84,2.3-6.25,7.43-4.82,11.85s5.39,7.9,10.12,7.71c14.12-.55,28.23-1.25,42.36-1.18s28.18,1.07,42.19,2.55c2.07.22,4.15.46,6.22.7,1,.12,1.94.28,2.9.35a8.17,8.17,0,0,0,2.23-.08,5.15,5.15,0,0,0,2.65-.72c1.46-.62,1.67-.7.63-.26-1.38.69.63-.13,1.09-.27s1.46-.24-.41,0c-2.19.31.87.32-1.49,0-1.86-.27-1.05-.18-.64-.05a8.68,8.68,0,0,1-3.48-2,7.45,7.45,0,0,1-1.6-2.47c-.36-1-.47-1.21-.31-.7.22.81.16.25-.17-1.68l10.5-10.5c-11.62.39-23.24.38-34.86,0-5.94-.17-11.88-.4-17.81-.77-5.41-.34-10.79-1.05-16.21-1.37q-4-.24-8.08-.09c-1.3,0-2.59.07-3.88,0-.51,0-1,0-1.51-.07-.31,0-3.37-.21-1.55-.11s-.53-.1-.78-.14l-1.42-.28c-1.19-.24-2.37-.52-3.54-.83-2.63-.7-5.21-1.57-7.77-2.49-10.09-3.62-20.13-7.27-30.32-10.61-5.71-1.88-11.41-3.78-17.05-5.88-1.22-.45-2.45-.92-3.66-1.4l-2.19-.87c-.4-.16-2.94-1.17-.4-.15-2.92-1.18-5.78-2.56-8.6-4v18.13l1.4-.77c-1.27.69.66-.14,1.12-.26s1.94-.29.33-.14-.3,0,0,0,2.74-.22,2.84.06c.05.12-2.2-.47-1-.11.36.1.74.15,1.1.24a23.75,23.75,0,0,1,2.6.82c2.43.91,5.14.95,7.73,1.21l23.7,2.34c15.49,1.53,31,3.21,46.5,4.5,8.88.74,17.77,1.29,26.67,1.49a10.46,10.46,0,0,0,10.31-9.1c.67-5-2.41-10.28-7.52-11.52a41.09,41.09,0,0,0-12.44-1.25c-1.48.11-2.95.33-4.42.54a15.82,15.82,0,0,1-2.45.41s2-.21.73-.08l-1.24.13-2.89.32c-7.82.91-15.62,2.05-23.35,3.49a403.22,403.22,0,0,0-41.22,10.34c-7.88,2.36-15.71,4.88-23.51,7.5-5.95,2-10.35,9.53-6.27,15.43,3.43,4.95,7.61,8.7,13.36,10.71,5.06,1.76,10.72,1.35,15.82,0h-5.58A401.49,401.49,0,0,0,229,362.63q11.76.42,23.52.73,5.88.15,11.77.27l5.46.1a25.52,25.52,0,0,0,3.91-.14,15.48,15.48,0,0,0,5.57-2.22c.71-.4,1.44-.76,2.17-1.14,1.59-.81-.57.26-.78.31.36-.09.73-.28,1.08-.4a9.78,9.78,0,0,1,2-.52c.11.22-2.59.08-1.67.23.06,0,1-.05,1,0s-2.57-.39-1.85-.24c.93.19,1.47.84-1.33-.65,1.63.86-1.13-.95-.87-.71.84.75-1.54-2.26-1-1.26.23.4.62,1.31-.07-.37-.82-2,0,.34.14.9l10.12-13.29c-35.4,3.08-71.12,4.26-106,11.82-5.1,1.11-8.18,6.64-7.52,11.52s5.1,9.58,10.31,9.11a482.59,482.59,0,0,1,50-2.1c8.45.1,16.9.44,25.32,1.1q6.09.48,12.14,1.18c1.12.13,2.23.26,3.34.41l1.26.16c1.56.19-1.85-.27-.29,0,2.09.31,4.18.6,6.26.93,9.05,1.45,18.28,2.76,27,5.7V363.76a48.89,48.89,0,0,1-4.88,1.33c-.76.16-1.52.27-2.28.43-1.17.24.82-.13.89-.11a5.39,5.39,0,0,0-1.53.16c-3.58.3-7.14-.06-10.71.12q-10.94.53-21.84,1.53c-14.95,1.39-30,3-44.81,5.22a183.9,183.9,0,0,0-23.81,4.93,10.52,10.52,0,0,0-7.53,11.52c.74,5.5,5,8.54,10.32,9.1,12.71,1.36,25.41-.38,38.1-1.09,12.93-.72,25.89-1.38,38.85-1.39l-9.07-15.8c-.46,1,5.42-4.76,3.38-3.54-1.25.74,3.15-1.28,1.61-.69-.9.35-1.81.71-2.72,1-2.47.92-4.95,1.81-7.43,2.7-4.48,1.6-9,3.17-13.46,4.75-19.17,6.72-38.38,13.17-57.87,18.93q-18.74,5.54-37.61,10.57l5.58,20.25c11.49-3.16,23.16-5.58,34.89-7.63,5.74-1,11.5-1.88,17.25-2.79a11.28,11.28,0,0,0,2.86-.79q2.38-1,.24-.12l.74-.29c.73-.23,1.46-.49,2.21-.68.36-.09.73-.17,1.1-.24.8-.15.48-.11-1,.11a12.62,12.62,0,0,1,3.58,0q-2.24-.33-1-.09c.35.07.7.15,1.05.25.63.18,2.77,1,.27-.05l2.5-19.19q-23,4.59-46.23,8.2-5.79.9-11.59,1.73l-5.8.82-2.49.34c-2,.27,0,0,.3,0-.55.09-1.11.15-1.66.22-7.75,1-15.52,2-23.28,2.9a216.65,216.65,0,0,1-26.69,1.95l9.06,15.8a7.66,7.66,0,0,1,.55-1c-1.13,1.34-1.41,1.73-.85,1.16s.19-.26-1.21.94c-1.85.68-2.27.87-1.25.57l-1.85.26c1.08,0,.67-.05-1.23-.23a7.29,7.29,0,0,0,1.74.52c3.86,1.17,8.19,0,12.16-.34a181.29,181.29,0,0,1,21.36-.58c14.21.47,28.54.36,42.77.16v-21c-35.36.64-70.78.95-106,4.8-2.87.32-5.31,1-7.43,3.08a10.5,10.5,0,0,0,7.43,17.92,53.48,53.48,0,0,0,5.8-.26c1.48-.15,3-.35,4.44-.57a11.7,11.7,0,0,1,2.48-.39c-1.42.16-1.52.19-.32.07l.82-.06,2.89-.22c1.79-.13,3.57-.25,5.36-.35,7.08-.42,14.16-.55,21.25-.85,14.55-.63,29.14-1.39,43.68.07l-5.3-19.57c-.18.09-2.23,1-.6.31s-.31.11-.66.24c-1.08.41-2.19.78-3.3,1.12-2.27.69-4.58,1.25-6.91,1.72s-4.71.88-7.09,1.23l-1.77.26-.7.1,1-.14s-3.13.4-3.46.44c-2.91.37-5.82.75-8.73,1.16l-4.09.58-1.64.24-1.06.15c1.59-.23-.75.09-1.07.13l-2,.24c-1.37.15-2.74.29-4.12.4-2.87.23-5.75.34-8.64.3v21c14.23-.77,28.47-1.25,42.72-1.67,7-.21,14.1-.41,21.15-.73a194.4,194.4,0,0,1,21.59-.13l-9.06-15.8c-.4.71-.86,1.38-1.29,2.07s-.24.38.64-.8c-.21.26-.43.5-.65.74-.78.87-2.47,1.84-3,2.83,1.21-.93,1.5-1.16.86-.69-.25.19-.51.37-.77.55-.52.37-1,.72-1.57,1.06-1.16.76-2.34,1.49-3.51,2.23-5.78,3.67-11.74,7-17.45,10.84-4.21,2.79-5.7,7-4.83,11.86A14.26,14.26,0,0,0,171.63,472a21.11,21.11,0,0,0,4.39-.68q1.54-.42-.78.06l.81.06c4.24.71,9.1-.13,13.3-.72a90.29,90.29,0,0,0,11.57-2.59c3.69-1,7.37-2.15,11-3.36q2.74-.9,5.46-1.89a21,21,0,0,0,2.72-1c1.23-.39,1-.44-.62-.15.29,0,.58,0,.88.05,9,.22,16.14-5.44,18.68-13.93,2-6.67-3.45-13.16-10.12-13.29a208.86,208.86,0,0,0-29.15,1.69l-7.21.89c-2.94.36-6.3.36-9.15,1.15l-2.51,1.06c-.9.42-1,.45-.2.1,1-.71-.08,0-.54.1s-1,.22-1.43.35c-1.23.35,2.25,0,.33-.09a4.58,4.58,0,0,0-1.38,0c.37-.2,2.24.52.74.09-.56-.16-1.13-.35-1.69-.47-1.25-.28,2.27,1.1.18.05l-2.5,19.19a379,379,0,0,1,55.9-11.94l3.25-.46c.63-.08,2.56-.36.05,0l1.63-.21q3.66-.48,7.32-.92,6.92-.84,13.84-1.57,14.49-1.54,29-3l7.89-.78.42,0c1.05,0,1.11-.09.18-.19s-.88-.14,0,.1l.59.17a21.57,21.57,0,0,0,4.86.68,14,14,0,0,0,9.86-4c2.83-2.69,3.69-6.39,4-10.11a10.14,10.14,0,0,0-5.2-9.06c-7.71-3.55-15.75-4.74-24.21-4.51-6.9.19-13.81,1-20.72.33l9.07,15.8c.37-.61.74-1.21,1.14-1.79.2-.29.4-.57.61-.85.46-.63.26-.37-.6.77a21,21,0,0,1,2.47-2.72c.85-.85,1.74-1.65,2.66-2.42l.51-.41c.87-.7.67-.55-.59.44.37,0,1-.74,1.31-.94,4-2.83,8.34-5.17,12.51-7.74q3.78-2.34,7.6-4.59c1.28-.75,2.55-1.48,3.84-2.21l1.05-.59c.9-.46.94-.52.09-.17s-.81.3,0,0l2.5-1.06c5.84-2.56,10.34-7.22,13.86-12.44,2.81-4.16,1.18-9.21-1.64-12.72a40.66,40.66,0,0,0-17.05-13A30.07,30.07,0,0,0,294,365c3.76.3.37,0-.7-.26-1.8-.37,2.25,1.16.79.34-.88-.58-.53-.3,1.07.82,1.11,1.59,1.39,1.93.86,1l-1.64,12.73a41.49,41.49,0,0,1,3.16-3.06c.27-.24,1.74-1.67.57-.52s.58-.41.9-.63c2.07-1.45,4.25-2.74,6.45-4,4.75-2.68,9.53-5.28,14.33-7.85,10.51-5.63,20.75-11.51,29.78-19.39,4.48-3.91,3.51-10.8,0-14.85a26.22,26.22,0,0,0-12.67-8,28.32,28.32,0,0,0-3.53-.61q-2.44-.3-.72-.12c.94.12.9.09-.14-.1-.53-.14-1.07-.24-1.61-.35l-7.27-1.58,4.63,17.55c.4-.37,1.07-1.26,1.62-1.42-1.11.84-1.35,1-.71.6.28-.2.57-.39.87-.58a37.74,37.74,0,0,1,3.64-2c2.37-1.16,4.82-2.17,7.19-3.33,5.35-2.64,10.84-5,15.72-8.52,3.69-2.63,6.34-7.18,4.82-11.85s-5.31-7.26-10.12-7.71c-7.11-.67-14.21.24-21.22,1.43-3.11.53-6.21,1.15-9.31,1.75-1.55.3-3.1.59-4.66.86l-2.34.38c-2.83.44,1.48-.16-.73.11-2.89.36-5.29.94-7.43,3.08a10.65,10.65,0,0,0-3.07,7.42c.23,5.34,4.63,10.95,10.5,10.5,21.53-1.64,43.12-2.78,64.73-2.62v-21c-12.47.05-25,.8-37.38-.67l10.13,7.7c-.16-.51-.25-1-.42-1.56-.36-1.12.13,2.68.15.76,0-1.6-.21,1.25-.23,1.23s.83-2.36,0-.15c-.4.86-.46,1.06-.2.6.43-.69.14-.31-.89,1.12a3.25,3.25,0,0,0,.76-.72c-.29.52-2,1.52-.45.54a14.82,14.82,0,0,0,2.65-2.08c1.69-1.72,3.24-3.57,5-5.23.82-.78,1.66-1.53,2.52-2.27.47-.4,1-.79,1.43-1.2,1.49-1.27-1.11.79-.07,0,1.43-1,2.86-2.07,4.24-3.17l1-.79c.17-.14,1.85-1.44.43-.34s.14-.1.44-.33l1-.78c1.38-1.06,2.77-2.11,4.11-3.22a36.93,36.93,0,0,0,9.19-10.87c2.09-3.91,1.91-9.6-1.64-12.73a75.26,75.26,0,0,0-7.62-5.79c-.94-.63-1.89-1.24-2.82-1.87-.53-.35-1-.71-1.57-1.07s-2.37-1.82-.35-.22l3.08,7.43.54-5-1.43,5.3c.36-.53.73-1.06,1.11-1.58.16-.22,1.19-1.62.33-.47s.4-.47.61-.71c.32-.39.65-.77,1-1.15,1.59-1.8,3.32-3.44,5-5.11,3.5-3.41,7.25-6.56,11-9.72,4.45-3.77,3.58-10.95,0-14.85-3.4-3.69-8.25-5.27-13.15-5.41a26.37,26.37,0,0,0-4,.28c-1.47.18-3,.37-4.46.61,3.47-.57,1.26-.15.44-.09-6.89.57-14.34-.57-20.4,3.62-3.72,2.57-6.32,7.22-4.82,11.85,1.34,4.16,5.43,8.1,10.12,7.71,22.44-1.87,44.89-3.7,67.11-7.44l-8.09-19.19c-.2.1,3.37-1.23,1.67-.72l-1.23.38c-1.12.33-2.24.63-3.36.94-3,.83-6,1.67-9,2.62-7.67,2.47-17.76,6-17.89,15.73-.08,5.92,4.89,10.16,10.5,10.5.38,0,.77,0,1.15.08.81.07.51,0-.89-.15a10.59,10.59,0,0,0,2.24.46c.75.19,1.49.41,2.21.65s2.78,1.19.39.11l-3.76-14.36-1.65,3.22a8,8,0,0,0-.73,1.43c-.3,1.08,1.08-.94.25-.19-1.78,1.59-3.4,3.41-5.12,5.07-2.77,2.67-5.56,5.38-8.54,7.8-4.74,3.85-10.32,7.45-12.26,13.57A10.6,10.6,0,0,0,370,285.28a11,11,0,0,0,12.73-1.64A111.09,111.09,0,0,0,396.34,269c2-2.59,4.07-4.81,4.52-8.19a19.32,19.32,0,0,0-.78-7.22,25.43,25.43,0,0,0-3.35-7.79A21.92,21.92,0,0,0,382,236.05a37.13,37.13,0,0,0-11.38.13c-.59.09-1.18.2-1.78.31.22,0,2.07,0,1-.26a6.51,6.51,0,0,0-1.17,0c-1.79-.06-3.59-.19-5.38-.38l-1.14-.13c-1.48-.16,2.64.44.13,0-.88-.15-1.76-.3-2.63-.47-1.89-.37-3.75-.82-5.6-1.34s-3.45-1-5.15-1.64a16.51,16.51,0,0,1-2.91-1.12s1.8.8.7.3l-1.79-.81,4.82,11.86c.23-.76.5-1.49.75-2.24.43-1.31-.95,1.91-.3.72.15-.28.27-.57.42-.85.38-.73.82-1.41,1.26-2.1.18-.28.85-1.16-.11.1s0,0,.32-.29c.46-.5,1-.94,1.48-1.41.93-.91-1.85,1.25-.74.56.25-.15.48-.33.73-.49a56.62,56.62,0,0,0,5.95-4.5l.87-.72c.29-.23,1.59-1.2.39-.33s-.09.07.12-.08c.39-.3.79-.59,1.19-.88,1.58-1.15,3.21-2.23,4.87-3.26a88.87,88.87,0,0,1,9.31-4.91c7.51-3.49,15-7.09,22.47-10.66,4.42-2.12,9.36-4.57,12.27-8.58,2.18-3,3.94-5.9,3.41-9.84,0-.05-.86-3.47-.8-3.52l.1.67c.12.92.15.9.11-.05l.05-.74-.13,1.3c-.08,0,1.44-4,.59-2.08-.62,1.38-.11.26,0,0,.26-.51.51-1,.79-1.54a50.59,50.59,0,0,1,3.14-5.05c2.2-3.17,4.61-6.17,6.73-9.39a10.33,10.33,0,0,0,0-10.6c-1.39-2.2-2.65-4.55-4.73-6.16s-4.84-2.47-7.33-3.3c-1.51-.5-3-.93-4.58-1.28a30.1,30.1,0,0,0-7.06-1.13c-.79-.11-.52-.07.81.1-.74-.1-1.47-.21-2.21-.3-1.27-.17-2.55-.34-3.82-.48-1.62-.18-3.24-.31-4.85-.45s-3.23-.31-4.84-.46c-2.45-.24,1.8.36-.43-.07-1.08-.2-2.15-.38-3.22-.62l4.64,17.55a16.34,16.34,0,0,1,1.8-1.45c-.23-.12-1.76,1.32,0,0,1.12-.82,2.27-1.62,3.43-2.39,2.19-1.47,4.45-2.84,6.74-4.15,4.66-2.65,9.47-5,14.31-7.35l3.36-1.6a6.89,6.89,0,0,1,1.69-.8c-.22,0-2.83,1.13-1.17.51,2.32-.87,4.63-1.78,6.89-2.78,5.34-2.39,9.8-6.49,11.48-12.23,1.52-5.22-1.84-11.74-7.33-12.92a57.79,57.79,0,0,0-21.58,0c-1.64.28-3.23.74-4.85,1.07-.46.08-2.12.33-.16.06s.34-.13-.11-.07c-.79,0-.64,0,.47.13s1.26.2.54,0l1.76.75q2.28,2,1.27.87v14.85c5.6-7.22,12.51-13.2,17.83-20.67,2.68-3.75,1.43-9.63-1.64-12.72a34.12,34.12,0,0,0-15.84-9.29,30.5,30.5,0,0,0-5.36-.84q-.43,0-.87,0-1.29-.06,1.44.24l-.51-.1c-1-.31-.66-.12,1.13.57-.35-.26-1.65-1.09-.13.08s.37.11,0-.14c1,1.44,1.36,1.81.94,1.11a5.7,5.7,0,0,1-.37-.69l.65,1.49a10.51,10.51,0,0,1-.33-1.13l-2.7,10.22c.63-.62,1.89-2.26,2.74-2.48-.84.21-1.5,1.11-.13.16.48-.34,1-.66,1.46-1a52.52,52.52,0,0,1,6.07-3.22c4.19-1.93,8.51-3.56,12.63-5.65,4-2,6.19-7.65,4.83-11.86-1.52-4.7-5.31-7.26-10.13-7.7-5.41-.5-10.89.89-15.94,2.75-2.14.78-4.26,1.64-6.42,2.37-1.18.4-2.37.77-3.57,1.06-.55.13-1.1.24-1.65.36-2,.43,2.39-.22.14,0l5.3,19.56c8.91-5.06,17.76-10.23,26.4-15.76l-14.37-3.77q2.48-11.41-.4-7.31c-1.48,1.93-1.77,5.88-1.05,8.09a11.93,11.93,0,0,0,4.82,6.28c6.48,4.69,14.39,5.13,22.08,5.66,3.58.25,7.15.69,10.74.92a8.07,8.07,0,0,0,3.64-.3c.84-.19.74-.19-.31,0s-1.15.14-.35.11c-2-.36-2.43-.4-1.38-.13a4.58,4.58,0,0,1-2.33-1.2c-.79-.66-.89-.72-.31-.18-2.11-2.3-.57-.68-.1.31l1.64-12.72c-7.3,9.29-16.35,17-24.18,25.77-5.48,6.16-3,14.81,4.63,17.55A12.91,12.91,0,0,0,436,121.85c3.7-2.6,6.33-7.21,4.82-11.86a10.81,10.81,0,0,0-10.12-7.71c-6.11-.06-11.57,2.16-17.07,4.51-1.07.46-2.17.9-3.23,1.4,2.9-1.35-.56.18-1.19.41q-3.78,1.38-7.64,2.5c-2.49.73-5,1.38-7.55,1.89a30.29,30.29,0,0,1-3.77.64c2.58-.16,1.09-.14.52-.1-.89.06-1.77.16-2.66.21a51.26,51.26,0,0,1-7.33-.12c-.15,0-2.7-.36-1-.08s-.86-.17-1-.19c-1.5-.28-3-.61-4.48-.91-10.86-2.24-21.71-4.58-32.67-6.23-1.34-.2-2.67-.38-4-.54-2-.22,0,0,.37.07-1.34-.15-2.68-.39-4-.62-2.81-.47-5.6-1-8.37-1.69-5.33-1.24-10.44-3.1-15.7-4.56-.92-.25-1.82-.58-2.72-.89-2-.69,2.29,1.17.46.17-.48-.26-1-.49-1.46-.76-.87-.5-1.66-1.1-2.51-1.63-1.13-.71,2.07,1.81.64.46-.4-.37-.81-.72-1.2-1.11-.79-.77-1.43-1.71-2.22-2.47.12.12,1.51,2.16.63.76-.31-.48-.64-1-.95-1.44a34.28,34.28,0,0,1-1.7-3.16c-.16-.32-.31-.82-.51-1.13.64,1.55.76,1.8.34.75-.15-.41-.3-.81-.44-1.22v5.58c.31-1.13.65-2.26,1.05-3.36.81-2.23-.57,1.15-.14.24.21-.45.41-.91.64-1.35a28.94,28.94,0,0,1,1.58-2.76,10.09,10.09,0,0,0,.8-1.17c-.8,1.88-1.12,1.37-.26.37a25.29,25.29,0,0,1,2.11-2.16c.32-.3.75-.57,1-.9-1.53,1.77-1.34,1-.36.32a27,27,0,0,1,2.64-1.57,7.6,7.6,0,0,0,1.28-.63c-1.54.63-1.93.8-1.18.5l1-.43c6.06-2.53,12-5.24,17.89-8.23,4.25-2.17,8.61-4.17,10-9.27A17.37,17.37,0,0,0,334.6,49l-6.28,15.42c11.35-3.88,23.22-5.59,35-7.4,4.32-.66,7.9-5.93,7.71-10.12a10.85,10.85,0,0,0-7.71-10.13,43.17,43.17,0,0,0-13-1.82,55.37,55.37,0,0,0-6.8.7,13.89,13.89,0,0,0-4.77,1.65c-1.81,1,2.05-.7.09,0-.56.19-1.1.39-1.67.54s-2.79.52-.6.2.09-.17-.39-.14c2.36-.13,2.49.43,1.25,0,1.9.89,2.4,1.07,1.51.57,1.54,1.28,2,1.63,1.39,1.07-1.43-1.37,1.35,2.25.55.74s.78,2.65.34.89c-.17-.67-.36-1.32-.48-2L336,51.07c1.34-.75,2.7-1.43,4.08-2.1,1.93-.93-1.95.69.22-.1.57-.21,1.14-.44,1.71-.64A64,64,0,0,1,349.92,46c2.57-.56,5.16-1,7.76-1.36s-2.46.31.08,0l2.18-.27,4.4-.54c2.89-.35,5.29-.93,7.43-3.07a10.66,10.66,0,0,0,3.07-7.43c-.27-6-4.61-10.11-10.5-10.5A36.8,36.8,0,0,0,351,24.45c-3.82,1.21-8,1.65-11.95,2.36-7.64,1.37-15.36,2.5-23,4.06a64.62,64.62,0,0,0-10.82,3.2c-2.29.9-4.56,1.87-6.81,2.86-.94.42-1.88,1-2.84,1.27,2.57-.85.12-.07-.35.12-7.51,3-15.26,5.6-22.27,9.74-5.34,3.15-7.47,12.11-2.12,16.49,8.66,7.08,18.49,11.77,28.3,17,2.23,1.19,4.5,2.27,6.65,3.61,1.08.67,2.14,1.38,3.17,2.13.07,0,2.1,1.44.79.57q-1-.75.15.15l2.13,1.65c.84.53,1.73,1.15,2.61,1.61-2.14-1.14-1-.79-.23-.07.38.35.74.72,1.09,1.1s.66.84,1,1.2c-.67-.65-1.21-1.65-.33-.3A31.27,31.27,0,0,1,318,96.45V85.85c-.39.79-.82,1.53-1.27,2.28-1,1.73,1.15-1.16.37-.46a5.15,5.15,0,0,0-.8.82c-.51.8,1.65-1,.82-.6a10.21,10.21,0,0,0-.93.58c-1.23.77-.61-.46.76-.29a4,4,0,0,0-1.07.3c-1.34.44.75-.06,1.09-.11a19.2,19.2,0,0,0-3.55.68c-1.15.4-2.28.88-3.43,1.29q-3.25,1.16-6.57,2.07a110.42,110.42,0,0,1-12.6,2.6,54.5,54.5,0,0,0-14.51,4.15c-2,.9-3.48,3.11-4.29,5-1,2.36-.89,4.31-.53,6.84.27,1.94.46,3.91.83,5.83.54,2.81,2.3,5.29,3.71,7.75q3.06,5.33,6.08,10.68c1.81,3.21,3.94,6.23,5.56,9.53.57,1.16-.31.46-.22-.53a3.78,3.78,0,0,0,.36,1c.28.8.53,1.62.74,2.44a23.36,23.36,0,0,0,1,3.44c-.16-.38,1.44,3.35.53,1.17-.69-1.66,0,.23.12.47.17.55.23,1.16.42,1.69-.8-2.28-.16-2.06-.18-1.13,0,.34,0,.74,0,1.08s-.16,1.46.09-.34.09-.52,0-.08a7.34,7.34,0,0,0-.21.77c-.37,1.64,1-1.67.34-.74-.38.51-.67,1.17-1,1.72-.51.85-.9.36.54-.7a6,6,0,0,0-.63.7c-.53.57-1.12,1.07-1.67,1.61-1.1,1,0-.51.45-.31,0,0-1.23.77-1.35.84-7.17,4.12-14.55,7.92-21.82,11.87L260,172.62,257.45,174c-.49.26-1,.52-1.48.8-1,.58-.56.44.22,0a43.79,43.79,0,0,1-5.64,2l-6.45,2.26-23.37,8.19c-15.34,5.38-30.74,10.33-46.49,14.4a472,472,0,0,1-52.51,10.56c-2.31.33-5.22,2.84-6.27,4.83a10.76,10.76,0,0,0-1.25,6.69c.63,4.69,5.12,9.69,10.31,9.11,17.23-1.94,34.52-3.26,51.83-4.19,8.17-.44,16.32-.74,24.5-.83,8.58-.1,17.35-.52,25.63-3,8.6-2.55,10.4-14.57,2.51-19.19a55.33,55.33,0,0,0-23.92-7.44c-1.75-.13-3.46.13-5.21.15-1,0-2,0-3-.08l-.73-.05c-1.17-.13-1-.09.61.11-.59.22-2.25-.41-2.87-.55s-1.42-.36-2.12-.58a8.69,8.69,0,0,1-2.8-1c1.35.59,1.49.65.43.17-.46-.21-.92-.43-1.37-.66l2.12,16.49a120.24,120.24,0,0,0,10.67-11.55c2.42-3,3.77-6.3,2.7-10.21-1-3.75-3.81-6-7.34-7.33-9-3.27-18.17-4.05-27.62-3.83-2.09.05-4.17,0-6.25-.14-1-.07-2.05-.19-3.09-.29-1.34-.12,2.13.36.11,0-.51-.09-1-.16-1.53-.26A70.11,70.11,0,0,1,145,175l2.51,19.19a41.59,41.59,0,0,1,3.91-2.68c.71-.42,1.43-.82,2.17-1.19s2.65-.84,0-.1c1.31-.37,2.58-1,3.91-1.31.66-.18,1.33-.34,2-.47.45-.09.91-.17,1.36-.24q-2.31.28-1.08.15c7.49-.48,15-2.38,22.26-4.14,5.09-1.23,8.19-6.54,7.52-11.52a10.48,10.48,0,0,0-10.31-9.11c-15.86,0-31.71.49-47.57.4a211.27,211.27,0,0,1-22.64-1c-.66-.08-3.6-.18-.71-.08a20.89,20.89,0,0,1-2.71-.42c-1.82-.3-3.62-.65-5.42-1A104.28,104.28,0,0,1,89,158.24l7.33,12.92c.1-.35.23-.7.31-1,.44-1.75-.9,1.62-.39.85a8.28,8.28,0,0,0,.45-.83c.84-1.72-.75.83-.75.84s.48-.56.57-.62c1.08-.8-1.18.77-1.17.85,0-.13.77-.43.88-.53.43-.4-2,.59-1.36.59a4.07,4.07,0,0,0,1-.26c-.1.18-2.86.16-1.45.22.59,0,3.07.22,1.09,0s.83.26,1.38.43c.94.27,1.83.68,2.76,1,2.84.91,6.08.29,9,.1q3.8-.26,7.59-.48,7.59-.44,15.19-.77c5.48-.23,10.76-4.66,10.5-10.5a10.6,10.6,0,0,0-3.07-7.42,12.18,12.18,0,0,0-7.43-3.08c-1.74-.2-3.48-.37-5.22-.57l-1.35-.15.76.1c-.52-.37-2.06-.32-2.71-.45a38.73,38.73,0,0,1-5.29-1.36l-1.27-.47c1.46.63,1.68.71.65.23-.79-.45-1.58-.85-2.35-1.34l3.76,14.36q.93-1.41-.6.69c.78-.77.47-.58-.91.56.93-.55.55-.43-1.13.35a5.89,5.89,0,0,1,1-.27c-1.9.2-2.27.29-1.12.27q-3.76-.56,1.21.13a32.81,32.81,0,0,0,3.29-.18c5.06-.34,10.1-1,15.09-1.84,4.32-.73,7.9-5.89,7.71-10.13a10.89,10.89,0,0,0-7.71-10.12c-7.82-2.56-16-3.57-24-5.79-3.64-1-7.31-2.2-10.87-3.44-.33-.11-.66-.23-1-.36-1.06-.42-.87-.34.57.25-.27.15-2.21-1.11-2.51-1.28-.83-.47-1.64-1-2.44-1.5-.4-.27-.8-.55-1.19-.84,1.15.91,1.27,1,.38.29v14.85a8.34,8.34,0,0,0,1-.92c-1.13,1.5-1.16.87-.23.3.37-.22.76-.4,1.12-.62,1.07-.64-2.24.69-.48.24L97,141.1c1.79-.49-1.92,0-.64.08,1,0,1.94.1,2.88.1l2.8-.38-1.17.15a5.4,5.4,0,0,1,1.63-.19c1.22-.12,2.44-.22,3.66-.29a77.45,77.45,0,0,1,7.77,0c5.49.22,10.74-5,10.5-10.5a10.72,10.72,0,0,0-10.5-10.5c-5.58-.23-11.15-.35-16.71-.77-1.29-.1-2.57-.21-3.85-.34a14.89,14.89,0,0,0-2.29-.27l1.27.17c-.51-.07-1-.14-1.52-.23a70.91,70.91,0,0,1-8.15-1.79l6.28,15.43c.65-1.1-1.06,1.33-1,1.28s-2.37,1.64-1.23,1-1.34.61-1.41.55a3.92,3.92,0,0,0,.83-.26c.27-.07,1.63-.54,1.84-.37,0,0-2.86.28-1.32.21L87.9,134c2.34-.13,4.73,0,7.06-.27,2.9-.38,5.27-.92,7.43-3.07a10.66,10.66,0,0,0,3.07-7.43c-.23-5.17-4.65-11.14-10.5-10.5A56.32,56.32,0,0,1,84,112.9c-.92-.08-1.87-.14-2.78-.3l1.19.15c-.53-.08-1.06-.16-1.59-.26-1.9-.32-3.79-.71-5.67-1.13l4.63,17.55c-2.12,1.8-.52.45,0,.07,1.5-1-1.64.44-.5.13.26-.08,1.32-.22,1.49-.43-1.66.17-2.07.23-1.23.16.32,0,.64,0,1,0s.65,0,1,.05c.81.07.44,0-1.11-.14l1.74.45a19.89,19.89,0,0,0,6.52.25c3.08-.16,6.18-.17,9.27,0,1.4.05,2.8.14,4.2.26l2.52.25c.6.07,3.18.43.57.06l-2.51-19.19c-1.34.72,2.08-.57,1.19-.49a5,5,0,0,0-1.06.25c.12-.31,3.1-.12,1.15-.21-.41,0-.83,0-1.25,0s-.87-.09-1.31-.1c-1.15,0,2.87.5.88.1-.95-.19-1.9-.37-2.84-.6-3.58-.88-7.06-2.12-10.59-3.19-4.3-1.29-8.68-2.27-13-3.64-1.21-.39-2.4-.8-3.59-1.23l-1.42-.54-1.07-.42c-.72-.29-.47-.19.75.32-.27-.56-2.55-1.17-3.15-1.47-1.29-.64-2.54-1.33-3.79-2.06L65.79,114c1.61-1.46-2.11,1.25-.26.18.33-.19.68-.38,1-.58,1.77-1.11-2.38.74-.38.18.38-.11.74-.23,1.12-.32.87-.22,2.62-.19-.48,0,.4,0,.79-.08,1.19-.11a31.75,31.75,0,0,1,3.65,0c1,.06,2.07.29,3.07.29-2.76,0-1.56-.22-.66-.08l1.5.23,2.9.5a4.5,4.5,0,0,0,1.38.24c.72.15.41,0-.94-.6l1.5.65c10.5,4.51,20.69,9.66,30.89,14.8q15.81,7.95,31.47,16.18c5,2.64,9.87,5.57,14.75,8.44l7.34,4.31,3.67,2.15c.74.43,1.46.89,2.21,1.29a8.12,8.12,0,0,0,2,1q2.58,1.1-.16-.06c.94.61,2.1,1,3.09,1.57s1.83,1.33,2.8,1.85c-.12-.07-2-1.71-.82-.61.47.44,1,.85,1.42,1.29.7.69,1.29,1.6,2,2.23-1.91-1.62-.95-1.29-.31-.35.32.46.63.93.92,1.41.6,1,1.1,2,1.61,3,.77,1.5-.33-.73-.35-.89a16.25,16.25,0,0,0,.82,2.27c.39,1.2.71,2.42,1,3.64l1.05-8.09c-.38.61-.79,1.2-1.19,1.8-.8,1.18-.07-.17.37-.45-.92.58-1.74,2-2.54,2.75-.41.39-.83.75-1.24,1.12-1.41,1.25,1.36-.9.29-.23s-2,1.32-3.09,1.9c-7.12,3.83-6.5,14.14,0,18.13a13.92,13.92,0,0,0,11.34,1.53q4.24-1.93,1.48-.5c.53-.1,1.06-.2,1.59-.28-1.47.18-1.6.2-.4.06.53-.06,1.06-.1,1.59-.14,4-.27,8.1,0,12.13,0,2.78,0,5.75.34,8.47-.31.69-.16,1.38-.37,2.07-.54,1.16-.21.89-.18-.79.07.43,0,.87-.06,1.31-.07s.85,0,1.27,0c1.15.11.85.06-.92-.13a11.09,11.09,0,0,0,2.41.69c-1.53-.67-1.78-.76-.77-.26.38.2.76.42,1.12.65q1.37.94-.48-.45c.36.29.71.6,1.06.92V181.37a59.38,59.38,0,0,1-6.44,7.1c-1.09,1-2.34,1.9-3.41,2.93,0,0,1.71-1.24.76-.61-.28.19-.55.4-.83.6-.75.53-1.51,1-2.28,1.52-.58.36-1.19.68-1.76,1.05-1.65,1.06,2.15-.77,0,.07a28,28,0,0,0-5.38,2.51,23.45,23.45,0,0,0-7.69,8,24.4,24.4,0,0,0-3.25,11.11c0,6.49,6.33,10.29,11,13.61,5.69,4,11.74,7.56,17.69,11.18q2.55,1.55,5.13,3.05a17.77,17.77,0,0,0,4.16,1.9c.46.13,2.83.9,1,.13-1.54-.64-.76-.3-.4-.11,1.19.64-.92-.72-1-.81,1.2,1-1-1-.76-1.1a6.4,6.4,0,0,1,.48.79c-.27.24-.58-2.45-.6-1.38a5.66,5.66,0,0,0,.32,1.26s-.17-2.44-.2-1.38c0,.51,0,1,0,1.54l3.07-7.42c-.6.52-1.46,1.6-2.21,1.86,1.42-.5,1.27-.93.44-.36-.38.27-.75.54-1.14.8a41.58,41.58,0,0,1-5.3,3,7.14,7.14,0,0,0-1.21.56c.28-.58,2-.79.66-.31-.83.29-1.65.59-2.5.85s-1.69.47-2.55.66c-.43.1-.87.19-1.3.27l-1,.17c-.82.13-.44.08,1.14-.14a9.25,9.25,0,0,0-2.69.23,30.76,30.76,0,0,0-5.14,1q-3.33.88-6.7,1.54c-1.18.23-2.36.45-3.55.64a14.38,14.38,0,0,0-1.59.24c0-.08,2.64-.31.42-.07s-4.5.46-6.77.58a102.34,102.34,0,0,1-13.22-.17c-1.21-.1-2.41-.22-3.62-.35-.37,0-2.12-.24-.62-.06s-.26,0-.63-.1c-3-.45-6-.92-9-1.33l-14.27-1.91-6.71-.9c-3-.4-6.52-1.38-9.51-.52-1.86.53-3.66,1.2-5.54,1.68s1.25-.19,1.19-.14a5.16,5.16,0,0,1-1.48.08c-2.48,0,2.16.59.4.1-2-.56,2.77,1.2.38.14-1-.46,2.06,1.75,1.24.95-1.23-1.22.76,1.1.77,1.1a2.84,2.84,0,0,1-.42-.68c-.71-1.55.8,2.69.37.93-.19-.79-.41-1.55-.54-2.37l-10.13,13.29c9.17-1.06,18.39-1.59,27.56-2.65,2.88-.34,5.3-1,7.43-3.08a10.65,10.65,0,0,0,3.07-7.42c-.25-5.61-4.61-10.6-10.5-10.5-14.46.24-28.93.63-43.39.12-3.46-.12-6.87-.37-10.32-.18a37.33,37.33,0,0,1-5-.09c-2.79-.25,1.54.44-.58-.09-.74-.18-1.49-.31-2.22-.5a15,15,0,0,1-4.39-1.44l-1.44-.61a10.4,10.4,0,0,0-3.08-.37c-2.45,0,2.12.74.38.15-.94-.32-2-1.1.65.35-1.58-.88,1.84,1.79.55.48s1.16,2.11.34.5c-1.3-2.51.49,1.71-.19-.17l-7.34,12.91c8.24-3.46,17.16-4.6,25.63-7.34a10.59,10.59,0,0,0,7.52-8.72c.51-3.75-1.23-8.82-5-10.47-5.74-2.5-12.34-5.54-18.38-1.87A10.57,10.57,0,0,0,82,236.44c1.35.45,2.69.92,4,1.42l1.16.46c1,.42.77.31-.77-.33a10.81,10.81,0,0,0,1.73.79q2,1,4,2.1c.65.38,1.3.78,1.93,1.19.35.24,1.49,1.33,1.86,1.31-1.25-1-1.45-1.14-.58-.44l.5.43c.67.57,1.31,1.16,1.93,1.79.46.47.92,1,1.35,1.46.3.33.58.67.86,1-1-1.24-1.09-1.41-.43-.49,1.79,3.25,3.7,6.44,5.55,9.66l-1.43-5.3a96,96,0,0,0,1.14,10.84c.1.67.2,1.33.34,2,.33,1.53-.26-2.25-.06-.53a18.94,18.94,0,0,0,1.37,5.94c2.85,6.76,9,9.83,16,10.3l-5.3-1.43c7.57,4.12,15.28,8,22.39,12.9,1.64,1.12,3.25,2.28,4.84,3.46.59.44,1.17.95,1.78,1.35-2.4-1.59.34.3.81.67q4.68,3.79,9.07,7.93c3,2.8,5.63,5.91,8.58,8.72.85.7,1.73,1.37,2.63,2s.67.5-.64-.5a9.13,9.13,0,0,0,1.43,1.19,42.56,42.56,0,0,1,3.52,3.46,13.31,13.31,0,0,0,1.6,1.89c-1-1.32-1.17-1.53-.51-.65.25.34.49.68.73,1a44.32,44.32,0,0,1,2.63,4.34c.41.76.79,1.54,1.16,2.33q.27.58.54,1.2-.93-2.24-.3-.66c.63,1.73,1.24,3.45,1.75,5.22v-5.58c-.26,1.25-.63,2.43-1,3.65-.52,1.72.9-1.7.29-.65-.23.39-.41.82-.64,1.22a15.87,15.87,0,0,0-.85,1.34c.74-1.81,1.28-1.53.35-.52-.29.31-.6.59-.89.89-1.18,1.2.27-.27.76-.52-.9.45-1.7,1.14-2.61,1.6-.39.2-1.9.89-.2.13s.15-.09-.27.05c-.68.23-1.38.44-2.08.61-.38.1-.77.18-1.15.25-.8.15-.51.12.87-.07a14,14,0,0,1-4.24.17c-.48,0-4.11-.57-4.3-.32.23-.31,2.25.37,0-.05-.78-.15-1.56-.32-2.33-.51-2.78-.68-5.47-1.77-8.27-2.34a31.13,31.13,0,0,1-3.43-1c-1.9-.62,2,1.1.14.06-.48-.26-1-.49-1.43-.75s-.94-.55-1.39-.85c-.86-.56-1.55-1.65,0,.08-.89-1-2.07-1.83-3-2.82v14.85a43.53,43.53,0,0,1,3.25-3.12c.6-.49.36-.3-.74.58.28-.21.57-.4.86-.59.58-.37,1.18-.72,1.79-1,2.31-1.18-1.64.27.3-.1l.64-.18c1.14-.24.86-.23-.84,0a7,7,0,0,0,2,0c2-.06-2.3-.5-.14-.05a37.78,37.78,0,0,1,3.92,1.06c2.22.7-2.06-1.09,0,0,.62.32,1.24.61,1.85,1s1.2.7,1.79,1.09c.39.26.78.52,1.16.8l-1-.79c1.22.43,2.77,2.46,3.65,3.38l4.63-17.54a30.39,30.39,0,0,1-2.95,1.05c-.49.14-1,.27-1.49.38-1.18.21-1,.21.53,0a9.14,9.14,0,0,1-3,.14c-.65,0-4-.5-1.07,0V349.7l2.44-.4c.5-.07,3.21-.64.47-.08a44.64,44.64,0,0,1,4.91-.52q4.89-.43,9.83-.48c3,0,6,0,9,.22,1.65.09,3.3.22,4.94.38l2.48.26,1.65.21-.73-.1c7.18,1.15,14.46,1.22,21.7,1.66q10.11.61,20.2,1.44,19.78,1.63,39.48,4.08,9.63,1.19,19.26,2.31,4.81.56,9.61,1.19l2.09.28c-2.74-.39.09,0,.55.07l5.84.83c7.23,1.06,14.44,2.28,21.65,3.47,1.46.24,2.93.43,4.4.58l1.55.15c1.19.14,1,.12-.48-.08a20.13,20.13,0,0,1,4.57.86c1.77.4,3.51.88,5.24,1.43.74.24,1.48.5,2.22.76.5.19,3.76,1.53,1.14.41l-4.82-11.86a5.34,5.34,0,0,1,1.34-2.47c.7-.82.8-1,.3-.46l1.47-1.17q-1,.51.48-.15c2.45-1-1.33.17-1.33.16.12-.17,3.08-.29,1.27-.2-.34,0-.67,0-1,.06l-1.88.12c-2.49.17-5,.1-7.46.28a31.9,31.9,0,0,0-11.42,2.85c-3.83,1.71-6.38,7.92-4.83,11.86a78.64,78.64,0,0,0,3.4,7.48c.41.79.8,1.58,1.21,2.38.86,1.7-.51-1.56-.1-.29.19.58.41,1.15.59,1.73l2.7-10.22c-.29.28-.59.55-.9.8q2-1.51.63-.54c-.71.45-1.41.94-2.1,1.43a26.22,26.22,0,0,0-5.33,4.52c-1.82,2.22-3.08,4.45-3.08,7.42a10.69,10.69,0,0,0,3.08,7.43c3.85,3.53,11.13,4.54,14.85,0,.32-.39,1.59-1.32,1.7-1.74-1.31,1-1.52,1.15-.62.5l1.05-.72a47.9,47.9,0,0,0,5.57-4.25,10.36,10.36,0,0,0,2.7-10.21,49.41,49.41,0,0,0-3.21-7.66c-.4-.79-.82-1.57-1.22-2.36-.26-.5-.51-1-.75-1.52s-.89-2.24.08.23l-4.83,11.86c-2.59,1.16-.6.32.11.15.45-.11.92-.2,1.38-.27l-1.38.2c.05-.24,4-.19,4.33-.19q3.16-.07,6.32-.3c7.61-.53,14.59-3.28,17.14-11.16,1.27-3.94-.76-10.11-4.83-11.86a79.34,79.34,0,0,0-22.52-6.15c-.64-.07-1.28-.16-1.93-.2-1.64-.1,2.66.49,0,0-1.65-.32-3.32-.58-5-.85q-5.4-.91-10.83-1.73c-14-2.13-28-3.6-42.06-5.44q-20.1-2.62-40.3-4.39-10.1-.89-20.2-1.55c-3.36-.22-6.73-.43-10.1-.61l-5.06-.27-2.53-.12c-.46,0-2.13.19-2.53-.12l1.12.21-1.65-.26c-1.76-.26-3.51-.49-5.27-.71q-2.88-.37-5.78-.62c-3.55-.3-7.12-.45-10.69-.46a149.36,149.36,0,0,0-24.88,2.24c-4.32.72-7.9,5.88-7.71,10.12s3.08,9.37,7.71,10.13c6.51,1.07,13,1,19.2-1.56,3.51-1.45,6.28-3.48,7.34-7.34a10.68,10.68,0,0,0-2.7-10.21c-5.77-6.1-13.61-10.86-22-12.1A26.45,26.45,0,0,0,139,320.71a34,34,0,0,0-10.33,7.9,10.72,10.72,0,0,0,0,14.85,35.77,35.77,0,0,0,10.39,7.76c4.16,1.95,8.45,2.91,12.81,4.25,9,2.76,19.59,4,28.63.61a31,31,0,0,0,11-6.55,29.1,29.1,0,0,0,6.86-11.1,22.87,22.87,0,0,0,1.48-6.72c.11-2.6-1.19-5.61-2.13-8a61.25,61.25,0,0,0-5.45-11.19,55.51,55.51,0,0,0-7.73-9.56,56.15,56.15,0,0,0-4.57-3.86c-.58-.45-1.25-.9-1.81-1.38-.81-.71.81.61.85.52.1-.26-2.36-2.5-2.64-2.8A176.12,176.12,0,0,0,156.51,278a164.57,164.57,0,0,0-21.68-13.65l-5.55-3a17.52,17.52,0,0,0-6.78-2.24c-1.8-.18,1.09.21,1.12.19a5.54,5.54,0,0,1-1.43-.4c0-.19,2.6,1.33,1.29.45,0,0,2.06,1.9,1.14.82-.2-.22,1.61,2.17,1,1.28-.26-.37-.69-1.41,0,.26s.32.6.19.12c-.34-1.21.67,2.41.17,1.24s-.58-3.91-.83-5.44a12.23,12.23,0,0,1-.25-1.59c.14,2.8,0,.07,0-.42-.1-1.08-.15-2.15-.23-3.23a16.52,16.52,0,0,0-2.26-7.5l-1.78-3.1c-2.57-4.47-5.19-8.79-9-12.34-6.83-6.37-15.29-10.28-24.07-13.2l2.51,19.19A8.66,8.66,0,0,1,86,236.53c-.07,0-2.92-.61-1.58-.21.69.2,1.38.37,2.06.61.49.18,2.63,1.06.66.23s-.26-.1.19.1l2.51-19.2c-8.47,2.74-17.39,3.88-25.63,7.34-2.52,1.07-4.92,2.26-6.27,4.83-1.26,2.39-2,5.45-1.06,8.09,1.51,4.19,3.51,7.65,7.07,10.4a18.39,18.39,0,0,0,11.74,3.71L70.34,251c6.45,2.82,13,4.65,20.14,4.58,3,0,5.91-.11,8.91,0s6.18.23,9.27.29c12.36.23,24.72-.08,37.07-.29v-21c-9.17,1.06-18.39,1.59-27.56,2.65-3.43.4-6.07,1.33-8.24,4.14s-2.43,5.71-1.88,9.15A18,18,0,0,0,120.34,265c3.49,1.1,7,.84,10.55.31a26.6,26.6,0,0,0,3.41-.75c.63-.18,1.28-.37,1.89-.61,1.9-.78-.61.17-.63,0,0,.05,1.54.21,1.68.23L159.07,267l2.52.34c.57.08,2,.55,2.51.34-.13,0-1.89-.32-.73,0,.39.09.81.14,1.21.2,1.08.18,2.16.33,3.24.48,4,.55,8,1,12.05,1.18a115.27,115.27,0,0,0,22.72-1.48,102.07,102.07,0,0,0,10.26-2.14c.39-.1.79-.18,1.18-.31.62-.2,1.23,0,.12-.16-1.39-.22-.19,0,.34,0l1-.1a63,63,0,0,0,6.4-1,47.09,47.09,0,0,0,17.66-8c1.68-1.24,3.34-2.51,4.92-3.87a11.41,11.41,0,0,0,3.86-9.68,20,20,0,0,0-4-11.32,16.79,16.79,0,0,0-4.85-4.3,18.53,18.53,0,0,0-3.83-1.65c-.25-.07-.49-.16-.74-.22-1.37-.28.68.22.75.46-.11-.39-2-1.18-2.41-1.41l-2.39-1.43q-2.57-1.54-5.1-3.14c-3.14-2-6.34-3.87-9.47-5.88-1.51-1-3-2-4.46-3l-1.25-.9c-1.26-.91-.08.23.27.23-.5,0-2-1.69-2.41-2l2.7,10.21a20,20,0,0,1,.44-2.31c.09-.36.2-.72.31-1.07.38-1,.22-.69-.47,1,.38-.54.67-1.23,1-1.8.85-1.46-1.91,2,0,.2s-1.64.86-.13.06a7.76,7.76,0,0,0,1.39-.77c-1.69.68-2,.81-1,.42.36-.13.72-.25,1.09-.36a24.34,24.34,0,0,0,4.3-2.07,63.4,63.4,0,0,0,17.62-15.53c1.7-2.2,3.2-4.47,3.07-7.42a10.55,10.55,0,0,0-3.07-7.43,27.82,27.82,0,0,0-12.6-7,25.62,25.62,0,0,0-7.25-.58,41.07,41.07,0,0,0-4.8.68c-.46.1-.91.21-1.37.34,1.56-.15,1.72-.22.48-.19-4.25-.37-8.71-.15-13-.16a49,49,0,0,0-6.4.44c-1.68.21-3.49.39-5.17.77a9,9,0,0,0-3.3,1.22,7.89,7.89,0,0,1,6.66-.13v18.13c5.9-3.18,11.72-8.46,14.94-14.42,2.37-4.4,1.06-9.34-.65-13.73a44.21,44.21,0,0,0-4.09-8.38,39.36,39.36,0,0,0-13-12.41,34.62,34.62,0,0,0-3.1-1.57l-1.79-.76-1.26-.53,1.23.4s-2.36-1.38-2.57-1.51l-9.18-5.39c-12.3-7.22-24.84-13.85-37.55-20.34-12.42-6.34-24.82-13-37.64-18.48L89.1,95.55a24.94,24.94,0,0,0-5.93-1.73c-3.52-.62-7.06-1.2-10.62-1.48-7.94-.62-15.64,1.37-21.61,6.77-5.06,4.58-3.49,13.23,2.12,16.49a87.61,87.61,0,0,0,17.29,7.52c4.59,1.48,9.31,2.5,13.91,3.94,9.27,2.89,19.8,6.8,29.06,1.83a10.46,10.46,0,0,0,5-10.46c-.49-3.69-3.48-8.16-7.52-8.73a129.28,129.28,0,0,0-12.87-1.32c-3.53-.15-7.46-.45-11,.15-1,0-1.12.06-.22.17s.82.15-.08-.07a34.29,34.29,0,0,0-4.16-.66,21.48,21.48,0,0,0-6.68.35c-4.19.79-7.68,3-10.89,5.74-6,5-2.73,15.93,4.63,17.55,8.32,1.84,16.87,3.09,25.38,2.15v-21c-3,.4-6,.11-9.06.43-6,.66-11.78,2.38-15.09,7.94a10.61,10.61,0,0,0,6.27,15.42c12,3.38,24.51,3.47,36.83,4v-21a79.2,79.2,0,0,0-8.58.09c-1.36.09-2.72.22-4.07.38a37.38,37.38,0,0,0-4,.53c1.44-.21,1.77-.33,1-.35-.32,0-.64,0-1,0-6.82,0-12.85,2.92-17.8,7.42-3.88,3.52-4.29,11.41,0,14.85a52.61,52.61,0,0,0,13.16,8,44.88,44.88,0,0,0,5.28,1.78c2.14.59,4.21,1.46,6.34,2.11,8.38,2.53,17.16,3.5,25.48,6.23V140.24l-2,.33c-.65.1-2.37.69-.08,0a21.61,21.61,0,0,1-3.69.42c-1.23.13-2.46.23-3.7.31a9.4,9.4,0,0,0-2.06.13q-1,0,.27.18c1.59.36.89.29-2.12-.21-6.7-.49-12.51,3.21-16,8.76-3.09,4.93-.91,11.39,3.77,14.36,8.23,5.24,18,5.8,27.38,6.88v-21c-5.63.25-11.25.53-16.87.87q-4.23.25-8.44.55c-.12,0-2.52.13-2.53.18,0-.22,2.23.6.68-.07a18.2,18.2,0,0,0-3.23-1c-5.34-1.19-11-1.07-15.82,1.75s-7.72,7.62-9.19,12.83c-1.61,5.7,2,11.1,7.33,12.92,15.32,5.2,31.42,6.36,47.48,6.48s32.27-.43,48.41-.4L176.53,164q-5.24,1.28-10.52,2.35a31.08,31.08,0,0,1-5.69,1.1c2.74,0,.52-.15-.12-.09-1.51.13-3,.35-4.51.58A42.07,42.07,0,0,0,137,176c-3.47,2.64-5.63,5.88-5,10.47.6,4.4,3.52,7.16,7.53,8.72A75.69,75.69,0,0,0,167,200.4a127.52,127.52,0,0,1,12.82.17c1.58.16-.17.22-.5-.07.24.21,1.2.2,1.52.26,1,.19,2,.4,3,.64a60.92,60.92,0,0,1,6.74,2.06L186,185.91a121.32,121.32,0,0,1-10.67,11.54c-4.66,4.42-3.88,13.51,2.13,16.49,7.64,3.8,16,6,24.64,5.38a18.82,18.82,0,0,1,2.6-.07c.37,0,.73.05,1.09.09,1.18.13,1,.09-.62-.12.6-.21,2.22.39,2.85.52s1.4.33,2.1.52a18.73,18.73,0,0,1,4.81,1.64c-1.38-.58-1.55-.64-.49-.17l1.32.66c.9.45,1.76.94,2.63,1.45l2.51-19.19A54.5,54.5,0,0,1,215,206l-1.51.24c1.53-.2,1.7-.22.51-.08l-2.3.23c-3.86.32-7.74.39-11.61.43-8.21.09-16.38.43-24.57.87-17,.93-34,2.25-51,4.15l2.79,20.62c33-4.62,65.21-13.11,96.59-24.11l24.58-8.62L261,195.39c4.58-1.6,8.74-4.14,13-6.45l22.56-12.28c8.18-4.44,14.33-12.19,15-21.67a22.89,22.89,0,0,0-.82-7.18,20.8,20.8,0,0,0-.79-2.3,11.81,11.81,0,0,0-1.32-3.09c.46.5.7,1.85.46.46a35.54,35.54,0,0,0-2.88-8,31.68,31.68,0,0,0-2.94-5.24c-2.69-3.85-4.77-8.23-7.1-12.31-1.19-2.09-2.36-4.18-3.58-6.25-.86-1.44-.08.22.09.21,0,0-.22-1.54-.24-1.67l-.59-4.16L287,117.3c-2.51,1.13.46-.13,1.05-.31.84-.26,1.69-.47,2.54-.67,1.95-.45,3.93-.76,5.9-1.06a110.93,110.93,0,0,0,11.82-2.39c2.09-.55,4.15-1.18,6.2-1.88.9-.3,1.79-.62,2.68-1a5.45,5.45,0,0,0,1.52-.58c.62-.19.5-.24-.34-.14-1.66,0-1-.09,2.06-.38a21,21,0,0,0,11.21-6,25.11,25.11,0,0,0,4-5.31,14.4,14.4,0,0,0,1.86-5.09c.39-2.93-.52-5.4-1.87-7.93a30.94,30.94,0,0,0-7.43-9.28c-1.08-.88-2.19-1.76-3.35-2.55a10,10,0,0,0-1-.66c-1.39-.71.21.31.44.54a39.79,39.79,0,0,0-6.48-4.82c-3.28-2.16-6.81-3.86-10.28-5.7-3.89-2.06-7.85-4-11.71-6.1-2-1.09-4-2.23-5.87-3.45-.86-.56-1.71-1.12-2.54-1.71a7.65,7.65,0,0,1-1.25-.91l.89.7-1.22-1-2.13,16.49q2.36-1.39,4.81-2.57a17.33,17.33,0,0,1,2.81-1.28l-1.1.45,1.43-.58c3.32-1.35,6.7-2.57,10-3.93Q304.78,57,308,55.54c.82-.36,1.64-.78,2.49-1.1-2.49.92-.2.1.37-.12a64.89,64.89,0,0,1,10.82-3.2c7.33-1.51,14.76-2.6,22.13-3.92,3.83-.68,7.86-1.1,11.61-2.11,1.71-.45,3.66-1.51,5.46-1.41l-1.23.18c.52,0,1.05-.08,1.57-.1a29.92,29.92,0,0,1,3.14.07v-21c-13.59,1.67-26.82,3.26-39,10.11-4.32,2.43-5.68,7.29-4.82,11.86,1.55,8.35,8.77,14.78,17.47,14.07a23.78,23.78,0,0,0,6.46-1.31c1.23-.46,2.51-1,3.69-1.53.41-.18.83-.37,1.24-.57a3.09,3.09,0,0,1-2.24.74c2-.5,4.33-.18,6.38-.13,1.19.13,1.05.09-.44-.1.52.08,1,.18,1.56.28,1.05.22,2.07.5,3.1.8V36.8c-11.81,1.81-23.69,3.52-35,7.4-6.36,2.18-9.86,9.28-6.28,15.43.44.79.45.76,0-.1a3.78,3.78,0,0,1-.47-2.22c.08,2,.63-2.37,0-.17l4.83-6.28q-5.19,2.8-10.49,5.35-2.55,1.23-5.13,2.38c-.85.39-1.71.77-2.58,1.15a11.09,11.09,0,0,1-1.47.64c.43-.1,1.56-.65.48-.22a38.43,38.43,0,0,0-17.56,13.62,41.72,41.72,0,0,0-4.77,9.48,23,23,0,0,0-1.45,5.33c-.48,3.52,1,6.54,2.39,9.68a38.66,38.66,0,0,0,13.07,15.78c5.55,4,12.75,5.74,19.22,7.65,3.78,1.11,7.61,2.07,11.48,2.85,1.72.35,3.46.67,5.2,1,1.06.18,2.14.34,3.21.49l2.2.29a17,17,0,0,1,3,.39s-2-.31-.75-.09c.41.08.82.13,1.23.2l3.29.54c1.91.33,3.82.68,5.73,1q6.12,1.14,12.22,2.41c8.19,1.67,16.47,3.89,24.87,4.05,9.05.17,18.13-1.83,26.68-4.64,4.43-1.45,8.69-3.25,12.95-5.1,1.09-.47-.87.37-.86.36a5.8,5.8,0,0,1,1.65-.65c.87-.33,1.76-.64,2.65-.91s1.76-.41,2.63-.66c1.08-.31-1.15.14-1.18.14a17.51,17.51,0,0,0,1.91-.07l-5.3-19.57q-3.28,2.12,4.86-.56l4.64,17.55c7.83-8.82,16.88-16.48,24.18-25.77,3.16-4,3.84-8.06,1.64-12.73A15.9,15.9,0,0,0,450,73.41a17.6,17.6,0,0,0-3.79-.41c-1.11.1-2.21.25-3.31.43s-.73.11.84-.22c-.06.16-5.61-.51-5.94-.54-3.46-.29-6.93-.53-10.4-.78-1.16-.13-.92-.09.73.12-.46-.06-.91-.14-1.36-.23-.68-.14-1.35-.3-2-.49-.44-.13-.88-.28-1.31-.44q2.13.95.57.21c-.84-.52-1.68-1-2.49-1.56l3.77,14.36a12.46,12.46,0,0,0,.4-13.89c-3-4.61-9.4-6.94-14.37-3.76-8.64,5.52-17.49,10.7-26.4,15.76-3.88,2.21-6.23,7.51-4.82,11.86,1.34,4.15,5.43,8.11,10.12,7.71a57.85,57.85,0,0,0,15.8-4,64.1,64.1,0,0,1,6.45-2.14c.65-.16,1.31-.29,2-.43,1.89-.41-1.81.08-.48.06a32.63,32.63,0,0,1,3.7,0l-5.3-19.57c-4.32,2.19-8.87,3.87-13.25,5.94a49.31,49.31,0,0,0-13.77,9.5,10.62,10.62,0,0,0-2.7,10.22A18.15,18.15,0,0,0,399.19,115c.76.06,2.71.24-.44-.23.64.1,1.29.23,1.92.38s1.24.38,1.86.54c1.91.5-2-1.1-.13-.1,1.06.57,2.06,1.19,3.09,1.79.64.45.38.23-.79-.65.27.21.53.42.78.65.61.52,1.19,1.08,1.76,1.66l-1.64-12.73-.9,1.25q1.31-1.66.24-.33c-.65.76-1.28,1.53-1.94,2.28-1.3,1.47-2.65,2.89-4,4.31a113.52,113.52,0,0,0-7.94,8.91c-1.71,2.2-3.21,4.47-3.08,7.43a12,12,0,0,0,3.08,7.42c4.69,5.71,12.87,4.56,19.15,3.06l1.3-.31c1.63-.38-.51.56-.92.1.29.32,4.21-.43,4.82-.47,1.46-.11,2.92-.16,4.38-.13.8,0,1.59.11,2.39.14s.53,0-.8-.12c.54.09,1.07.2,1.61.32l-7.34-12.92c-.5,1.72,1-2,.46-1s1.87-1.91.67-.85c-1,.92-1.07.39.66-.39a7.57,7.57,0,0,0-.84.55c-.82.5-1.69.86-2.54,1.31-1,.54,2.64-1,.83-.36l-1.17.46c-4.57,1.74-9,3.84-13.36,6a139.26,139.26,0,0,0-27.86,17.3c-6.07,5-2.65,15.94,4.63,17.55,6.36,1.41,12.87,1.67,19.32,2.39.56.06,2.6.25,0,0,1.34.13,2.68.33,4,.55s-2.08-.38-.06,0c.77.15,1.54.29,2.32.46a51.9,51.9,0,0,1,8.33,2.7l-6.27-4.83,2,3.22V161.7C400,172,389,183.39,393.92,196.9l1.06-8.09L392.82,192l3.76-3.77c-6.08,4-12.75,6.7-19.28,9.81s-13,5.91-19.12,9.46a80.74,80.74,0,0,0-7.94,5.25c-1.91,1.43-3.8,2.89-5.63,4.42a10.31,10.31,0,0,1-1.7,1.47c1.22-.92,1.39-1.11.51-.56-.34.2-.67.41-1,.63a32.73,32.73,0,0,0-13,18.23c-1.22,4.07.73,10,4.83,11.85a88.73,88.73,0,0,0,19.39,6.66c6.89,1.39,14.65,2.65,21.62,1.17,1.32-.28-2.59.23-.77.1.54,0,1.09-.1,1.63-.11s1,0,1.56,0c2.43.1-.87-.05-.86-.19s2.37.61,2.61.66c-2.69-.58-1.9-1-.95-.35a6.22,6.22,0,0,0,1.06.66c-1.78-.43-1.82-1.68-.84-.58.19.22.84.66.86.93,0-.33-1.71-2.46-.63-.7.24.39.44.8.66,1.2.83,1.52-.85-2.54-.31-.72.12.41.27.81.39,1.22a28.28,28.28,0,0,1,.73,3.55l1.06-8.09-.93,1.23c.86-1.1.93-1.2.22-.3-.48.6-1,1.2-1.45,1.79-1.21,1.46-2.46,2.9-3.74,4.3-2.46,2.67-5,5.2-7.76,7.62L385.38,279c.08-.25-1.39,2.92-.78,1.88s-1.08,1.38-1.1,1.38c.2,0,1-1.11,1.2-1.29.95-.93,2-1.8,3-2.65,1.66-1.38,3.41-2.65,5.06-4.05,3.17-2.68,6.19-5.58,9.17-8.48,1.61-1.57,3.32-3.13,4.81-4.83,2-2.29,3.19-5.15,4.57-7.84,2.37-4.64,1.63-11.94-3.77-14.37a43.1,43.1,0,0,0-15.7-4l10.5,10.5a9.49,9.49,0,0,1-2.52,6.24c1.17-1.12-2.64,1.67-1,.74.4-.22.78-.46,1.19-.67s2.55-1.16.51-.3.05,0,.59-.21,1.33-.49,2-.72c1.42-.48,2.85-.93,4.29-1.36,4.7-1.41,9.94-2.23,14.32-4.54,4.62-2.43,6.23-8.52,4.29-13.11-2.16-5.11-7.14-7-12.38-6.08q-3.94.66-7.89,1.25L402,227c-2.72.39,1.46-.19-.13,0l-2.08.27c-5.29.68-10.58,1.27-15.88,1.8-10.59,1.07-21.2,1.93-31.8,2.81l5.3,19.57c1.54-1.06.21,0-.68.06a11,11,0,0,0,1.61-.49c.38-.09.77-.16,1.15-.22l-1.59.21a10.42,10.42,0,0,0,1.83-.15c2.33-.12,4.67,0,7-.12,1.79-.11,3.59-.42,5.36-.66.41-.06,2.53-.39.55-.08s.17,0,.59,0,1.14,0,1.7-.06c2.16-.17-1.36-.48-.63-.18.38.16,2.39.59.47,0-.92-.43-1-.44-.34,0q-2.09-1.73-.93-.56V234.34c-7.44,6.31-14.65,12.66-20.53,20.48a26.08,26.08,0,0,0-1.8,2.51c-1.27,2.28-1.38,4.84-1.66,7.37-.21,1.92-.56,3.77.06,5.7,1,3.12,2.94,4.85,5.44,6.76,1.82,1.38,3.72,2.63,5.62,3.9.84.55,1.68,1.11,2.49,1.69.28.2,2.1,1.32.78.56s.55.52.73.67L363,271.26a24.36,24.36,0,0,0-1.75,2.82c.93-1.17,1.15-1.46.65-.85-.14.17-.27.33-.42.49q-.52.6-1.08,1.17c-1.5,1.53-3.18,2.8-4.8,4.18,2.41-2.05-.2.15-.89.68-1.37,1.05-2.75,2.1-4.1,3.19,2.32-1.88.27-.26-.17.06l-1.19.9c-1.6,1.23-3.19,2.46-4.72,3.77a70.85,70.85,0,0,0-5.46,5.22c-.44.47-.9.92-1.3,1.42-1.2,1.49,1.12-.53.32-.05a21.47,21.47,0,0,0-3.85,3c-5,4.85-5.91,12.19-4,18.62,1.48,4.88,5.35,7.14,10.12,7.71,12.42,1.47,24.91.72,37.38.67,5.49,0,10.75-4.81,10.5-10.5a10.7,10.7,0,0,0-10.5-10.5c-21.61-.16-43.2,1-64.73,2.62v21c7.09-.88,14-2.32,21.07-3.58,1.55-.28,3.1-.52,4.66-.76.8-.12.52-.08-.85.11l1.17-.14c.78-.08,1.56-.16,2.34-.22a57.07,57.07,0,0,1,9.87.06L346,302.77c-5.05,3.6-10.78,6.13-16.34,8.82-5.84,2.82-11.42,5.17-16.24,9.71-5.56,5.25-3,15.88,4.64,17.55l6.46,1.4c1.07.23,2.15.49,3.23.7a22.84,22.84,0,0,0,3.6.55c-1.64-.26-2.05-.31-1.23-.16l2.09.53c1,.39.77.27-.82-.36.37.18.73.37,1.08.58s.7.44,1,.68q-1.9-1.53-.63-.45c.62.64,1.26,1.24,1.85,1.92V329.39c-.58.5-1.16,1-1.75,1.5a11.14,11.14,0,0,0-1.78,1.43c.14-.62,1.57-1.18,0,0q-.9.68-1.83,1.32c-2.24,1.58-4.55,3.06-6.89,4.48-4.77,2.88-9.7,5.48-14.6,8.12-9.88,5.29-20.58,10.34-28.36,18.62a10.8,10.8,0,0,0-1.64,12.72,16.25,16.25,0,0,0,9.83,7.48,35.61,35.61,0,0,0,5.77,1l1.53.18c2,.21-2.86-.6-.64-.08l1.46.36c1.94.43-1.9-1,0,0,.6.32,1.19.63,1.77,1,.32.2,2.4,1.9,1.17.75l1.05,1c.52.48,1,1,1.5,1.48,1.16,1.19,2.23,2.45,3.27,3.75l-1.64-12.73c-.59.87-1.69,1.58,0,.08-.46.41-.87,1-1.3,1.48s-.75.76-1.15,1.12c-1.73,1.58,1-.58.17-.05-1,.63-1.92,1.22-2.94,1.76-1.75.93,2.2-.89.2-.09a29.43,29.43,0,0,0-3.56,1.65c-5.14,2.88-10.13,6-15.19,9-9.78,5.81-19.13,11.83-25.21,21.77a10.57,10.57,0,0,0,0,10.6c2,3.44,5.28,4.81,9.07,5.2,6.41.65,12.83,0,19.25-.28a70.19,70.19,0,0,1,9.51.17c2.78.27-1.69-.43.44.07.7.16,1.42.28,2.12.45s1.41.37,2.1.6c.46.15.92.31,1.38.49-1.37-.61-1.53-.67-.47-.19l-5.2-9.07c.3-3.17.37-2.16.14-1.42a8.48,8.48,0,0,1,2-3.32,8.05,8.05,0,0,1,3.42-2c2.44-.77,2.58-.21,1.57-.22-1.21,0,.28-.48,1.29.2a5.93,5.93,0,0,0-1.15-.3,13.52,13.52,0,0,0-5.31-.7q-6.86.66-13.71,1.36c-9,.9-17.9,1.81-26.85,2.79-18.46,2-36.92,4.42-55.13,8.13-10,2-19.86,4.47-29.6,7.42a10.56,10.56,0,0,0-7.52,8.73c-.52,3.91,1.28,8.6,5,10.46a27,27,0,0,0,12.4,3.23,30.3,30.3,0,0,0,12.78-3.34l-5.3,1.43c14.2-1.73,28.39-3.64,42.72-3.35L218.8,442.24c-.6,2-.27,0,.31-.52a4.94,4.94,0,0,1-.35.64c-.44.7-.12.32,1-1.16a4.48,4.48,0,0,1-.47.5c-.59.57-.17.27,1.26-.91l-.38.24q-1.38.75,1.27-.46c-.27,0-1.23.55-1.4.39,0,0,3.08-.17.94-.21a16.06,16.06,0,0,0-5.63.56c-6.16,2-12.17,4.31-18.4,6.08-3,.86-6.06,1.73-9.13,2.36-.8.17-1.61.3-2.41.45-2.22.41,2-.12-.43,0-1.48.1-2.95.24-4.43.26-3.48.07-7.35-.78-10.63.67,1.83-.18,2.34-.25,1.51-.2a4.09,4.09,0,0,1-.7,0c.31-1,5,2,5.23,2.22-1-1,1.05,1.59,1.23,2,.8,2,.07-.15,0-.64l-4.82,11.86c6.06-4,12.38-7.64,18.53-11.52s12.07-8.27,15.77-14.84c4.09-7.26-1.18-15.28-9.07-15.8a191.5,191.5,0,0,0-21.16.11c-7.19.33-14.39.53-21.58.75-14.25.42-28.49.9-42.72,1.67-5.47.29-10.76,4.62-10.5,10.5a10.7,10.7,0,0,0,10.5,10.5,119.08,119.08,0,0,0,17.28-1.26c3.52-.47,7-1,10.56-1.47,1.66-.24.59-.06-.45.05.55-.06,1.1-.15,1.65-.22l3.73-.47c11.29-1.45,22.3-3,32.68-8,4-1.9,6.15-7.74,4.82-11.86-1.53-4.73-5.31-7.23-10.12-7.71-14.54-1.46-29.13-.7-43.68-.07-7.09.3-14.17.43-21.25.85-3.57.2-7.16.38-10.72.77-1.49.17-3,.4-4.44.68-2.73.53,2.25-.15-.51.07-1.94.16-3.86.27-5.8.26v21c35.19-3.85,70.61-4.16,106-4.8,5.48-.1,10.75-4.76,10.5-10.5s-4.62-10.58-10.5-10.5c-15.37.22-30.76,0-46.13-.23a179.26,179.26,0,0,0-22.58,1.11c-.29,0-3.29.52-3.34.41.16.35,2.4.42.16-.17a17.41,17.41,0,0,0-8.18-.24,15.41,15.41,0,0,0-10.25,8c-3.64,7,.82,15.78,9.07,15.8,15.87,0,31.77-2.48,47.48-4.52q24.43-3.17,48.74-7.35,13.42-2.33,26.81-5c4-.81,7-4.91,7.52-8.73s-1.23-8.85-5-10.46a32.39,32.39,0,0,0-12.31-3.08,28.07,28.07,0,0,0-10.07,1.63c-.78.28-3.73,1.06-4,1.66,1.12-.52,1.31-.7.56-.53l-1.21.19-4.81.77c-3.08.48-6.16.95-9.23,1.48-12.54,2.15-25,4.67-37.29,8.05-5.29,1.46-9.08,7.52-7.33,12.92a10.69,10.69,0,0,0,12.91,7.33c22.77-6.13,45.44-12.63,67.85-20,13.71-4.49,27.31-9.35,40.89-14.21,2.84-1,5.68-2,8.5-3.1,3.43-1.3,7.68-2.49,9.41-6.14,1.65-3.47,2-7.15,0-10.6a10.58,10.58,0,0,0-9.06-5.2c-13,0-25.92.67-38.85,1.39-12.69.71-25.39,2.45-38.1,1.09l2.79,20.63a176.89,176.89,0,0,1,21-4.51c1.6-.25,3.2-.47,4.81-.71,1.22-.18-.73.1-.79.11l1.61-.21,2.81-.36c3.48-.42,7-.8,10.45-1.18,14.56-1.59,29.08-3.27,43.72-4,4-.2,8,.15,12-.18A59.71,59.71,0,0,0,315.7,384c4.25-1.37,7.92-5.41,7.71-10.12a11,11,0,0,0-7.71-10.13C308,361.17,300,360,292.05,358.61q-13.64-2.31-27.43-3.58a404.55,404.55,0,0,0-50.93-1.21c-9.54.34-19.07,1-28.59,1.85l2.79,20.62c8.42-1.82,16.91-3.25,25.43-4.47,1.21-.17,1.1-.15-.32,0l1.65-.22,3.3-.41c2.2-.27,4.41-.52,6.61-.76q6.19-.68,12.4-1.22c17.1-1.54,34.23-2.54,51.32-4,7-.61,11.68-6.2,10.13-13.29-1.32-6-5.87-11.53-12.13-12.68-6.93-1.28-13.42,1.43-19.27,5l5.3-1.44q-22.28-.37-44.53-1.19c-7.44-.28-14.88-.68-22.3-1.37q-5.46-.52-10.91-1.21l-1.26-.16c-2-.26-.07,0,.28,0a24.26,24.26,0,0,1-2.52-.36c-2.53-.37-5.27-1.14-7.81-1.14a23,23,0,0,0-4.42.76c-.31.06-.66.08-1,.17.73-.22,2.39-.24.65-.17-.65,0-1.4-.13-2,0,0,0,2.36.52,1.41.19-.34-.12-.72-.15-1.07-.25s-.68-.25-1-.32c-1-.21,1.79,1,1,.41a6.77,6.77,0,0,0-1.62-1c.08,0,1.63,1.52,1,.77-.28-.36-.7-.65-1-1s-.39-.46-.59-.66c-.84-.86,1.57,2.17.34.4l-6.27,15.42c16.87-5.68,33.92-10.9,51.25-15q13-3.07,26.2-4.95l1.64-.23c-1.41.19-1.52.21-.31,0l3.29-.41c2.85-.33,5.76-.5,8.58-1,.54-.12,1.09-.23,1.64-.33,1.2-.2,1.09-.18-.35,0a9.53,9.53,0,0,1,3.25-.14,13.88,13.88,0,0,1,3.22.2c-2.88-.71.67.24,1.21.37l2.79-20.63c-16.12-.36-32.18-1.91-48.22-3.52s-31.87-3.14-47.81-4.73a31.71,31.71,0,0,1-3.38-.34c-1.43-.29,1.52.61.39-.2a5.36,5.36,0,0,0-1.49-.51,31.46,31.46,0,0,0-7.88-1.26,29.11,29.11,0,0,0-15.23,4c-6.55,3.69-7.13,14.59,0,18.13,20.32,10.08,42.45,15.66,63.61,23.64a99.05,99.05,0,0,0,14.58,4.59,79,79,0,0,0,17.49,1.33,170.45,170.45,0,0,1,17.05,1.14c5.83.53,11.69.77,17.54,1,13.31.5,26.64.58,40,.14a10.8,10.8,0,0,0,7.43-3.08c1.74-1.89,3.43-4.74,3.07-7.42-.38-2.88-.63-5.08-2.21-7.61a13.19,13.19,0,0,0-7.48-5.75c-5.1-1.45-9.63.09-14.28,2.1l5.3-1.43a452.3,452.3,0,0,0-47.09-3.65c-15.81-.3-31.61.5-47.41,1.12l5.3,19.57c2.47-1.48,5-2.87,7.58-4.15,1.17-.57,2.34-1.13,3.52-1.67l2.13-.94c1.84-.81-1.22.49,0,0,5.09-2,10.26-3.85,15.39-5.79,10.69-4,21.19-8.65,30.75-15,3.85-2.54,6.19-7.23,4.83-11.85-2.48-8.38-9.48-13.21-18.2-11.68-.36.07-.7.12-1.05.2-1.92.4,2.55.3,0-.23a42.11,42.11,0,0,0-4.2-.45c-3.07-.29-6.16-.52-9.24-.66-5.9-.29-11.77-.42-17.66-.92s-12-1.12-18-1.85l-2.08-.26c-.46-.06-3.3-.4-.55-.07-1.39-.17-2.78-.39-4.16-.59q-4.59-.68-9.17-1.45-8.43-1.44-16.77-3.35a324,324,0,0,1-34-9.74c-3.59-1.24-7.17-2.38-10.8-3.52-.89-.28-1.78-.58-2.65-.9-.3-.1-.59-.22-.88-.33-1.74-.64,2.58,1.27.65.26-.71-.37-1.39-.78-2.08-1.17-1-.59,2.26,2,1.24.9a8.24,8.24,0,0,1,2.34,5.86l-10.5,10.5c22.39-2.89,45.24-1.11,67.75-1,23.24.08,46.48.3,69.71,1.21,13,.51,26.06,1.25,39.06,2.29l-5.3-19.57c.11,0,1.81-.56.72-.36-.36.07-.73.23-1.09.33s-.74.14-1.1.24c-1.14.32.85-.2.93-.12a9.66,9.66,0,0,0-2.27,0c-.27,0-1.59-.17-.15,0,.75.12.83.12.23,0a28.29,28.29,0,0,0-3.18-.45c-3.51-.07-7.08.28-10.58.45-7.2.33-14.4.73-21.59,1.14-14.45.85-28.88,1.85-43.33,2.63-8.22.44-16.44.81-24.66,1a10.53,10.53,0,0,0-10.31,9.11c-.65,4.8,2.37,10.54,7.52,11.52,11.62,2.21,23.74,1.84,35.52,2.26q18.3.64,36.6,1c12.12.26,24.24.37,36.36.22s24.22-.86,36.34-1.34a203.78,203.78,0,0,0,21.35-1.82c3.35-.48,6.69-1.09,10-1.82,2.56-.56,5-1.06,7.15-2.71a29.32,29.32,0,0,0,4.21-4.55c2.22-2.64,3.36-5.34,2.89-8.82a10.07,10.07,0,0,0-5-7.67c-13.52-7.21-28.26-10.91-43-14.61q-22.41-5.61-45.2-9.4c-31.36-5.17-63-8.24-94.77-6.11-15.55,1.05-32.12,1.42-46.27,8.66-2.92,1.49-5.65,5.68-5.2,9.06.66,5,2.12,9.47,6.75,12.14a13.56,13.56,0,0,0,6.88,1.7,20.69,20.69,0,0,0,3.79-.56c1-.29.72-.26-.83.09l1.65.19a86.52,86.52,0,0,0,9.93.45c3.48-.05,6.92-.54,10.4-.65,13.95-.47,27.91-1.15,41.84-2.18,14.09-1.05,28.13-2.5,42.11-4.55q9.8-1.42,19.51-3.36c5.51-1.11,10.94-2.64,16.45-3.67,9.8-1.81,23.22-4.41,25.82-15.94,1.56-6.94-3.12-12.88-10.13-13.29-38.31-2.27-76.67-1.15-115-.05-3.41.1-6.8.45-10.2.61-1.84.09-3.69.15-5.54.08-.43,0-2.28.14-2.57-.18s3,.71,1.44.16c-.37-.13-.78-.19-1.16-.31v20.25c10.56-1.9,21.13-3.76,31.72-5.49q7.94-1.29,15.89-2.47,3.76-.56,7.54-1.07l1.67-.23c2.74-.38-1.58.2.15,0,1.53-.2,3.07-.41,4.61-.6,21.09-2.66,42.29-4.31,63.48-6,5.78-.44,11.56-.91,17.34-1.27,6.36-.38,12.9-.93,18.86-3.33,4.19-1.69,7.93-5.18,7.7-10.13a10.79,10.79,0,0,0-7.7-10.12c-14.8-4.13-30.27-5.2-45.54-6.11s-30.76-1.79-46.21-1.89c-8.84,0-17.68,0-26.52,0v21c24,0,48,0,72-.38,23.59-.35,47.2,0,70.79-.56,13.73-.3,27.44-1.09,40.89-4.06,6.52-1.44,9.76-9.88,6.28-15.42-5.57-8.84-17.74-8.59-27-8.16-4.69.22-9.38.08-14.07.1-7.26,0-14.51.13-21.76.25q-43.57.77-87,4.52-24.69,2.13-49.3,5.16c-2.88.35-5.29.94-7.42,3.07a10.67,10.67,0,0,0-3.08,7.43c.27,6,4.62,10.11,10.5,10.5,19.76,1.31,39.43-2.39,58.87-5.41,18.91-2.93,37.82-5.57,56.37-10.37q3.69-.94,7.34-2c1.29-.38,2.57-.77,3.85-1.18.63-.2,3.54-.7,3.82-1.25-.07.14-2.33.24-.91.22a21.07,21.07,0,0,0,3.79-.45,15.4,15.4,0,0,0,4.21-1.71c3.49-2.06,5.38-5.39,6.77-9.06,1.15-3.05,0-6.71-1.88-9.15-2.18-2.82-4.81-3.71-8.25-4.14-16.52-2-33.17-1.47-49.77-1.16-16.8.32-33.58.48-50.38,1-9.3.28-18.84,1.17-28.12.26l2.79,20.63c17.81-5.38,36.26-8,54.59-10.88q7-1.11,14.06-2.14c2.36-.34,4.73-.66,7.09-1l.69-.09,1.11-.15,3.75-.49c9.6-1.24,19.21-2.39,28.81-3.55,11.29-1.37,22.56-2.59,33.7-4.93,3.6-.75,6.3-4,7.34-7.33l.65-2.12c1.56-5.08-1.86-11.91-7.33-12.92-15.76-2.88-31.51-5.85-47.34-8.32a424.48,424.48,0,0,0-49.43-4.79c-9.15-.35-18.3-.62-27.44-1.22L246.67,162c1.19-.28,2.4-.48,3.6-.73,1.5-.32-1.91.19-.38,0,.68-.06,1.35-.15,2-.21,2.43-.23,4.87-.36,7.31-.52,4.94-.34,9.88-.65,14.83-.87,9.91-.44,19.83-.65,29.75-.73,19.9-.17,39.81.17,59.71.09q8.48,0,17-.37a28.35,28.35,0,0,0,4.23-.19c1.45-.28.35.61-.35-.34.34.46,3.17.43,3.89.47a23.93,23.93,0,0,0,9.56-1.47c4.22-1.58,7.93-5.26,7.71-10.13a12.44,12.44,0,0,0-1.43-5.3c-1.06-2-4-4.48-6.28-4.82-18.54-2.71-37.07-5.72-55.74-7.45-18-1.67-36-2.87-54.05-2.83-10.47,0-21.11.21-31.33,2.73a10.52,10.52,0,0,0-7.33,7.33c-1.06,3.85.22,7.3,2.7,10.22,3.12,3.68,7.92,5.84,12.6,6.66,4.89.86,9.86,1.47,14.79,2.06,9.61,1.15,19.26,2,28.88,3,18.95,2.06,37.93,4.09,57,4.73a314.44,314.44,0,0,0,32.78-.53,10.68,10.68,0,0,0,8.25-4.14c2.22-2.88,2.34-5.68,1.88-9.16a15.34,15.34,0,0,0-10.68-12.42c-5.89-1.72-11.57.29-16.93,2.61l5.3-1.43q-25.76-3.26-51.69-4.79-12.84-.78-25.71-1.22c-4.17-.14-8.32,0-12.49-.12q-3.28-.06-6.54-.39l-1.63-.18c1.44.2,1.55.21.35,0s-2.16-.36-3.24-.56l6.27,15.42c-1.81,2.78-1.78,2.13-1.15,1.53-3.18,3-2,1.38-1.38,1.08.43-.21.88-.48,1.3-.71,1.22-.67-1.28.62-1.34.57s.72-.27.84-.31c.73-.26,1.47-.49,2.22-.7,2.06-.6,4.17-1.05,6.27-1.5,3.44-.75,6.82-1.87,10.23-2.77,4.49-1.2,9-2.34,13.51-3.45,18.23-4.48,36.54-8.65,55-12.27,10.31-2,20.76-3.27,31.07-5.3,5.11-1,8.17-6.72,7.52-11.52a10,10,0,0,0-2.89-6A12.18,12.18,0,0,0,405,102c-8.42-1-16.86-1.87-25.28-2.81-4.28-.47-8.56-1-12.83-1.5l-2.9-.37c-1.55-.2,1.87.26.31,0l-1.24-.17c-2.21-.31-4.41-.64-6.62-1-16.67-2.61-33.5-5.11-50-8.87-10-2.27-19.71-4.91-29.9-5.95-5.17-.53-9.68,4.4-10.31,9.1s2.36,10.67,7.52,11.52a71.48,71.48,0,0,0,14.17.62c4.39-.13,8.8,0,13.19,0h26.13c17.78,0,35.57-.15,53.36,0v-21c-1,0-2,0-3,0-.51,0-1-.09-1.52-.15,1.52.22,1.69.24.5.06-1.76-.3-3.53-.6-5.31-.87-4.48-.67-9-1.13-13.52-1.56-8.08-.78-16.17-1.22-24.29-1.25-16.14,0-32.29,1.06-48.42-.15L295.18,91a11.67,11.67,0,0,1-3.27,4.81c-1.39,1.09-1.05.78-.62.55-.49.26-2.87.94-1.22.6.46-.1.92-.22,1.39-.31l.65-.11c1.39-.25-1.39.22-1.46.2.52.22,2-.21,2.59-.25.75-.06,1.5-.09,2.25-.16,7-.61,14-2.2,20.88-3.66s13.56-2.59,20.41-3.62c3.51-.53,7-1.06,10.54-1.56l1.45-.2c-1.39.19,0,0,.24,0l1.63-.21c1.77-.22,3.55-.43,5.32-.61a155.46,155.46,0,0,1,24-.89c10.39.51,14.32-14.7,5.3-19.57-4.79-2.58-9.53-2.56-14.78-2.71-4.08-.12-8.14-.66-12.19-1.18a228.2,228.2,0,0,0-24.09-1.62c-16.61-.33-33.23.33-49.84.34-5.5,0-10.76,4.83-10.5,10.5a10.68,10.68,0,0,0,10.5,10.5Z"/><path class="cls-1" d="M306.48,258.21a10.84,10.84,0,0,0,7.42-3.08,10.49,10.49,0,0,0-7.42-17.92,10.86,10.86,0,0,0-7.43,3.07,10.51,10.51,0,0,0,7.43,17.93Z"/></svg>