<svg id="Layer_1" data-name="Layer 1" xmlns="http://www.w3.org/2000/svg" viewBox="0 0 468.91 468.97"><defs><style>.cls-1{fill:#2aa4ef;}</style></defs><title>logo</title><path class="cls-1" d="M20,427.77c4.87,0,10-.09,14.49,2,5.78,2.59,9.45,7.65,13.94,11.87,4.94,4.64,10.88,6.37,16.89,9.13,6.4,2.93,12.55,6.41,19.16,8.88a55.38,55.38,0,0,1,7.82,3.31c2.81,1.57,5.48,3.39,8.13,5.21a92.06,92.06,0,0,0,16.79,9.44c6.62,2.75,13.36,5.11,20.5,6a89.78,89.78,0,0,0,9.84.46c3.5.07,7,.31,10.49.4a69.51,69.51,0,0,0,9.68-.32,57.64,57.64,0,0,0,10.44-2.47c6.57-2,13.31-3.39,19.56-6.37a74.21,74.21,0,0,1,7.9-3.64,87,87,0,0,1,9.63-2.56c6.42-1.38,12.82-2.64,19.32-3.53,7.15-1,14-3.49,21.15-4.85a113.73,113.73,0,0,0,20.6-5.46c6.5-2.57,12.56-6.2,18.83-9.25a71.7,71.7,0,0,0,14.45-9.62c9-7.5,16.29-16.74,23.44-25.93,3.65-4.71,7.27-9.44,11.05-14,4.15-5,8.44-9.88,12.08-15.32,7.91-11.85,14.69-24.61,21.16-37.28,6.59-12.92,11.8-26.26,16.94-39.79,2.51-6.62,5.36-13.08,8-19.65s4.5-13.29,7-19.84,5.5-13.26,8.07-20,4.7-13.39,7.59-19.86,5.6-12.53,7.27-19.27a85.36,85.36,0,0,0,2.47-20.69c0-6.89-.66-13.78,0-20.66.62-6.42,1.86-12.63,1.49-19.12-.33-5.72,3-9.43,6.72-13.36,4.63-4.83,9.45-9.46,14.13-14.25A97,97,0,0,0,470.38,101c3.76-6.11,6-13,9.81-19.14,2.48-4,6.8-10.12,2.63-14.62-2.69-2.91-6.94-2.16-10.25-.9A68.89,68.89,0,0,0,463,71.06a75.86,75.86,0,0,0-15.8,11.45c-1.71,1.7-3.16,3.63-4.86,5.34a11.19,11.19,0,0,1-2.22,1.88,3,3,0,0,1-1.8.45l4.5,4.5c-.47-6.21,4-11.2,6.64-16.44,1.66-3.3,3.07-6.71,4.78-10,1.86-3.55,3.77-7.07,5.45-10.7,3.09-6.66,6.88-13,10.37-19.48,1.77-3.25,2.34-7.22-.2-10.26-2.24-2.67-5.76-3-8.94-2a54.9,54.9,0,0,0-8.17,3.77c-3.63,1.87-7.18,3.87-10.73,5.89-6.8,3.87-13.58,7.87-20.78,11a83.85,83.85,0,0,0-7.71,3.69c-1.18.65-2.35,1.33-3.58,1.87-.42.18-.85.35-1.29.49s-.65.17-1,.25c.42-.11.24-.07-.1,0,.07,0,.64.1.65.09.17-.13-.14-.19-.07-.09a12.5,12.5,0,0,1-.92-1,27.42,27.42,0,0,1-1.85-2.86c-1.24-2.11-2.29-4.35-3.63-6.4a55.2,55.2,0,0,0-15-15.46c-6-4.09-12.88-5.59-19.7-7.72A89.07,89.07,0,0,0,356,16.28a66.9,66.9,0,0,0-12-.75c-4,0-7.79-.14-11.67.78a112.48,112.48,0,0,1-11.09,2c-8.18,1.11-16.35,2.47-24.61,2.9-6.58.35-13,1.17-19.08,3.84a33.29,33.29,0,0,0-14.87,13c-3.5,5.72-5.15,12.49-6.42,19-1.43,7.38-2.31,14.92-4.39,22.16-1,3.41-2.41,6.65-3.56,10a38.73,38.73,0,0,0-1.93,11c-.2,4-.73,8-1.12,12.07s-.41,8.19-.57,12.31c-.28,7.07-.83,14.79-3.65,21.39-1,2.33-2.23,4.15-4.59,5.06a16.42,16.42,0,0,1-8.32.51c-6.53-1-12.89-3.63-19.12-5.76a183.57,183.57,0,0,1-21.66-8.74c-7.37-3.62-14.47-7.61-22-10.9s-15-6.56-22.55-9.85c-3.8-1.65-7.6-3.3-11.35-5.07-3.34-1.56-6.19-3.94-9.5-5.53s-7-2.45-10.26-4.12-6.78-3.64-10-5.7-6.13-4.53-9.18-6.84-6.27-4.52-9.32-6.9c-6.29-4.88-12-10.47-18.25-15.42C63.25,65.46,61.62,64.2,60,63c-1.23-.89,0,.09-.27-.18s-.62-.51-.92-.77c-1.58-1.35-3.12-2.73-4.71-4.06C50.9,55.29,47.19,51.68,43,50.71c-6.09-1.4-7.91,5.44-9,9.95-1.46,6.15-.87,12.41.13,18.59a211.12,211.12,0,0,0,4.51,22.16c4,14.55,11.48,27.85,19.07,40.8a182.13,182.13,0,0,0,13.2,19.72c4.66,6,9,12.28,13.91,18.08s10.4,11.28,15.54,16.94c2.52,2.79,5.09,5.53,7.83,8.11s5.57,4.7,8.28,7.14c2.12,1.91,4.06,3.86,6.31,5.62,1.18.92,2.36,1.85,3.44,2.88a5.89,5.89,0,0,1,1.59,2l3.14-5.54c-3.47,1.09-6.81-.83-10.11-1.88q-5.7-1.81-11.43-3.51c-7.38-2.19-14.71-4.43-21.92-7.14a169.34,169.34,0,0,1-20.62-9.27c-6.52-3.5-12.41-7.95-18.42-12.25S36.22,173.22,29,171.71a4.51,4.51,0,0,0-4.38,1.16c-3.44,4.08-2.8,9.46-1.92,14.37a111.52,111.52,0,0,0,3.63,15.11,97.94,97.94,0,0,0,8.16,18.33,177.36,177.36,0,0,0,10.61,16.59,66.42,66.42,0,0,0,12.64,12.37c5.18,4.11,10.17,8.44,15.15,12.79,10.57,9.23,21,18.6,31.79,27.6,11.35,9.49,23,19.6,37.76,23.28l1.2-8.84c-13.26-.36-26.4-.94-39.6-2.29-5.85-.6-12-.75-17.64-2.64s-10.65-4-16.45-1.47A4.36,4.36,0,0,0,67.69,302c.45,8.9,5,16.1,10.62,22.68A159.58,159.58,0,0,0,96.76,343.4,266.83,266.83,0,0,0,119.54,360c8.61,5.75,17.12,11.68,26,17a65.49,65.49,0,0,0,14.94,6.44c5,1.49,10,2.81,14.51,5.47v-7.77c-6.72,4.88-16.14,3.11-23.82,5.14-10.72,2.84-21.52,5.58-32,9.11-10.86,3.63-22.06,6-33.1,9s-22,5.19-33.06,7.55a119.14,119.14,0,0,0-17.24,4.63c-5.12,1.92-10.19,4.2-15.76,4.17-5.79,0-5.8,9,0,9,5.35,0,10.33-1.5,15.28-3.39a110.35,110.35,0,0,1,14.89-4.57c11.3-2.62,22.78-4.43,34-7.52s22.51-5.51,33.57-8.94c5.5-1.7,10.93-3.55,16.48-5.08s11.06-2.92,16.56-4.46a89.33,89.33,0,0,1,14.27-2.3c5.09-.57,10.3-1.47,14.53-4.55,2.67-1.93,3.13-5.93,0-7.77-7.83-4.61-17-5.45-25.05-9.44-9-4.44-17.21-10.62-25.5-16.17-7.28-4.86-14.61-9.65-21.54-15a142.73,142.73,0,0,1-18.89-17.89c-5.33-5.93-11.46-12.26-11.88-20.69l-2.23,3.89c1.55-.68,4.11.47,5.56,1A59.91,59.91,0,0,0,86.9,309c6.19,1.32,12.55,1.65,18.83,2.34,12.6,1.39,25.22,1.76,37.88,2.11,5,.14,6.13-7.6,1.19-8.84C133,301.69,123.54,294,114.37,286.46c-10.15-8.36-20-17.08-29.86-25.76-4.84-4.25-9.69-8.51-14.6-12.69-4.26-3.61-8.85-6.84-12.89-10.71s-6.92-8.68-10-13.41a119.09,119.09,0,0,1-8.92-15.8A89.14,89.14,0,0,1,32.44,190c-.45-2.09-1-4.27-1.29-6.33a20.24,20.24,0,0,1-.2-3.39c.05-1.57-.17.63.07-.8.13-.79.54-1-.06-.28l-4.38,1.16c3.06.63,5.7,2.35,8.27,4.07,2.84,1.91,5.63,3.92,8.42,5.9,6.12,4.36,12.08,8.95,18.71,12.53,14.13,7.63,29.29,12.86,44.64,17.39q6.59,1.93,13.12,4c4.67,1.5,8.71,3,13.63,1.48a4.58,4.58,0,0,0,3.14-5.54c-1.74-5.72-7.5-8.33-11.44-12.3-2.55-2.56-5.41-4.73-8.13-7.11s-5.26-4.95-7.73-7.58c-5.06-5.41-10-10.93-15.07-16.34s-9.24-11.39-13.66-17.24a270.64,270.64,0,0,1-24.22-38.61,115.55,115.55,0,0,1-8-19.06c-2.17-7-3.36-14.3-4.73-21.5a67.68,67.68,0,0,1-1.37-11A42.47,42.47,0,0,1,42.27,65c0,.23.26-1.17.34-1.54.23-1,.47-2,.75-2.92.16-.54.34-1.08.51-1.61s.21-.81.34-.78a22.65,22.65,0,0,1-2.72,1.38c.33-.1-.61-.08-.64-.09l.51.17c-.12.14-.78-.42.11.11.46.27.91.54,1.36.83a100.53,100.53,0,0,1,9.44,7.73c4.8,4.1,9.95,7.79,14.74,11.92,6,5.2,12.08,10.14,18.49,14.85,3.12,2.29,6,4.85,9.22,7.06a101.81,101.81,0,0,0,9.29,5.61,72.94,72.94,0,0,0,10.39,4.6,47.3,47.3,0,0,1,9,4.81,82.92,82.92,0,0,0,10.74,5.18c3.67,1.62,7.34,3.2,11,4.8,7.3,3.19,14.66,6.28,21.88,9.64s13.93,7.41,21.16,10.61,14.53,5.86,22,8.33c6.2,2.06,12.29,4.34,18.84,5s13.5-1,17.57-6.41,5.38-12.84,6.25-19.42c1.06-8.07.75-16.2,1.6-24.28.41-4,.78-8,1-12.07a31.2,31.2,0,0,1,2.42-9.32,116.89,116.89,0,0,0,5.64-21.79c1.12-6.43,2.13-12.94,4.28-19.13a25.27,25.27,0,0,1,10.54-13.5c4.84-3,10.48-4.1,16.09-4.44,8.06-.5,16-1.47,24-2.61,3.95-.57,8-.86,11.93-1.66,3.39-.69,6.34-1.57,9.84-1.54,3.91,0,7.89-.27,11.78.19a60.24,60.24,0,0,1,10.42,2.46c6.43,1.95,13.33,3.28,19,6.95a43.32,43.32,0,0,1,12.94,13.33c2.74,4.39,4.64,10,9.19,12.91,5.18,3.34,11.28-.7,15.87-3.24,2.85-1.57,4.88-2.24,8.27-3.79s6.76-3.32,10.06-5.13C444.5,44.48,451.12,40.45,458,37c1.32-.67,2.65-1.32,4-2,.44-.21,2-.69,2-.76.15-.36.29.27-.06,0-.19-.17-1.25-1.26-1.31-1.29-.32-.14.19-.39-.24.35-.73,1.23-1.52,2.44-2.17,3.72-3.48,6.87-7,13.68-10.55,20.53-1.76,3.43-3.63,6.8-5.32,10.27-1.44,3-2.67,6-4.32,8.85-3.23,5.58-6.78,11.34-6.27,18.06a4.61,4.61,0,0,0,4.5,4.5c5.79.2,9.75-4.16,13.26-8.15a57,57,0,0,1,13.26-10.61A79.5,79.5,0,0,1,475,75c-.84.36,1-.35,1.27-.44a12.69,12.69,0,0,1,1.84-.46c-1.26.19-.33.1,0,.09-.63,0-.6.08-1.12-.32a3.87,3.87,0,0,1-1.31-1.63c-.23-.44.05-1-.11-.39-.64,2.51-2.58,4.63-3.9,6.84-1.76,3-3.19,6.09-4.66,9.2a72.49,72.49,0,0,1-11.18,17.66c-4.35,5-9.14,9.48-13.8,14.14-4.24,4.25-9.08,8.61-12.1,13.86a20.35,20.35,0,0,0-2.68,8.12c-.3,3.05.24,6.14.07,9.21-.36,6.35-1.77,12.57-1.85,19-.09,6.94.58,13.87.12,20.8a74.76,74.76,0,0,1-3.76,18.6c-2.21,6.58-5.48,12.73-8,19.21s-4.73,13-7.36,19.42S401.1,260.51,398.8,267s-4.31,13-7,19.3c-5.46,12.66-9.7,25.83-15.21,38.47a372.21,372.21,0,0,1-19.79,38c-3.36,5.78-6.69,11.59-10.61,17-3.42,4.73-7.46,9-11.11,13.58-7.24,9.08-14,18.54-21.9,27.1a96.7,96.7,0,0,1-11.64,11c-4.7,3.65-9.85,6.15-15.12,8.82-6,3.05-11.7,6.31-18.18,8.29s-13.33,3-20,4.52c-3.43.78-6.79,1.78-10.19,2.69a96,96,0,0,1-10.82,1.75c-6,.91-12.17,2.3-18.09,3.77a63,63,0,0,0-8.69,2.74c-3.13,1.29-6,3.09-9.14,4.33-6,2.35-12.41,3.72-18.56,5.64s-12.47,1.58-18.74,1.3c-6.69-.29-13.42.09-20-1.48a83.25,83.25,0,0,1-18.31-6.72c-5.55-2.85-10.44-6.75-15.69-10.07s-11-5-16.64-7.56c-6.07-2.73-11.87-6-18.07-8.47a43.05,43.05,0,0,1-7.86-3.63c-2.7-1.74-4.82-4.35-7-6.65-4.19-4.39-9-8.15-14.74-10.17-5-1.74-10.44-1.78-15.67-1.78-5.79,0-5.8,9,0,9Z" transform="translate(-15.65 -15.53)"/><path class="cls-1" d="M284.38,75.78c16.05,0,32.1-.63,48.16-.37a221.73,221.73,0,0,1,23.33,1.34c3.79.47,7.57,1,11.38,1.31,1.85.14,3.69.21,5.55.19,1.69,0,3.38-.17,4.91.66L380,70.52c-15.29-.75-30.5,1.52-45.57,3.79-7.53,1.13-15,2.37-22.43,4-5.86,1.24-11.81,2.72-17.8,3.13-4.5.31-11.82.32-13.47,5.59-.92,3,1.55,5.49,4.34,5.7,16.13,1.21,32.28.11,48.42.15,8.12,0,16.21.47,24.29,1.25,3.68.35,7.39.66,11,1.26,3.92.64,7.84,1.45,11.83,1.29,5.77-.23,5.82-8.94,0-9-17.51-.18-35,0-52.52,0H302c-4.17,0-8.36,0-12.53,0-3.86.06-7.85.59-11.68,0l-1.2,8.84c8.12.83,16,3.08,23.91,4.95,8.22,2,16.54,3.46,24.86,4.86,16.84,2.84,33.67,5.64,50.64,7.58,9.67,1.1,19.35,2.07,29,3.22l-1.2-8.84c-9.49,1.88-19.1,3-28.6,4.83s-18.93,3.82-28.35,5.92-18.87,4.32-28.27,6.63q-7.17,1.76-14.33,3.64c-3.44.92-6.86,2.06-10.35,2.8-5.16,1.1-12.48,2.12-15.6,6.91-1.49,2.3-.1,6.09,2.69,6.61a95.35,95.35,0,0,0,12.59,1.55c4.14.21,8.28,0,12.42.12q12.45.39,24.87,1.1c16.72.95,33.4,2.36,50,4.37,2.57.31,5,.93,7.42-.05.74-.29,1.49-.56,2.26-.78a7.86,7.86,0,0,1,1.69-.38c.23,0,.46,0,.68,0,.6,0-.61-.1.25,0,.16,0,.9.26,0-.06.41.14.34.11,0-.08.15.08.18.13.31.48-.17-.45.05.25.05.28a14,14,0,0,1,.26,1.44l4.34-5.69c-37.15,2.67-74.24-2.66-111.13-6.4-5-.5-9.88-1.11-14.81-1.83-3.36-.49-7.17-.56-9.51-3.32l-2,7.52c8.12-2,16.5-2.11,24.82-2.18,8.82-.07,17.63.17,26.43.62,17.44.89,34.86,2.39,52.15,4.77,9.93,1.36,19.83,2.89,29.74,4.34v-8.68a13.07,13.07,0,0,1-5.93.92,59.13,59.13,0,0,0-7.41.08q-7.41.3-14.83.36c-9.88.08-19.77,0-29.65,0-19.94-.1-39.88-.21-59.8.61-5.66.23-11.31.57-17,1s-11.12.66-16.55,2c-5.14,1.24-3.69,8.52,1.2,8.84,15.74,1,31.53,1.07,47.26,2.29s31,4,46.41,6.67c8.86,1.57,17.7,3.22,26.55,4.84L361,164.6l-.65,2.12,3.15-3.14c-18.57,3.88-37.64,5.26-56.44,7.67s-37.84,5.21-56.64,8.51a264.4,264.4,0,0,0-30.73,7c-5.08,1.54-3.72,8.36,1.2,8.84,8.18.8,16.55.08,24.75-.16,8.43-.25,16.86-.53,25.29-.71,16.68-.38,33.4-.7,50.09-.71a230,230,0,0,1,28.14,1.49l-4.34-5.69c-.24.65,0,0,.12.09.43.58-.84.06-.15.1s-.21,0-.27,0c-2.23-.32-4.43.78-6.52,1.45q-6.3,2-12.73,3.63c-8.83,2.23-17.76,4.06-26.73,5.64s-17.91,2.81-26.87,4.18c-8.79,1.35-17.56,2.86-26.4,3.93a161.88,161.88,0,0,1-30.09,1.19v9q42-5.15,84.34-7.71c28.19-1.67,56.38-2.11,84.6-2.19,3.13,0,6.24-.3,9.37-.25,1.08,0,2.16.06,3.23.14.53,0,1.06.09,1.58.15-.76-.09.49.08.73.13.46.09.91.18,1.37.31.21.06,1.34.45.83.24s.45.31.6.35c0,0-.65-.59-.35-.27s-.61-.95-.13-.2l2.69-6.61c-11.06,2.44-22.26,3.12-33.54,3.44-11.79.33-23.58.28-35.37.26-23.65,0-47.31.57-71,.68-13.27.07-26.53.07-39.8.08-5.79,0-5.8,9,0,9,30.23,0,60.45.22,90.57,3.22a140.31,140.31,0,0,1,23.71,4.25v-8.68a44.26,44.26,0,0,1-14.09,2.76c-5.19.33-10.38.72-15.58,1.12-10.73.82-21.47,1.64-32.2,2.59q-31.88,2.81-63.49,7.8c-12,1.91-24,4-35.9,6.17-4.61.83-3.94,7.46,0,8.68,6.06,1.87,13,.7,19.26.31,8.89-.56,17.84-.57,26.75-.86,19.26-.64,38.56-.7,57.84-.41,11.06.17,22.12.52,33.16,1.18l-4.34-5.7c-.05.23-.14,1.32,0,.24,0,.22-.77,1.07-.08.26-.2.23-.43.44-.65.66-.5.5.87-.55-.16.13a12,12,0,0,1-4.13,1.91,75.45,75.45,0,0,1-9.62,2.14c-4.54.82-9,2.08-13.53,3-6.05,1.29-12.13,2.4-18.24,3.37-24.28,3.85-48.91,5.46-73.45,6.5-3.66.16-7.33.3-11,.42-3.34.12-6.65.57-10,.65a85.74,85.74,0,0,1-10.75-.43c-1.6-.17-3.31-.57-4.81.26-.76.42-.33-.39.89.37a1.32,1.32,0,0,1,.68.81L153,263.27c10.57-5.4,23.34-5.42,34.92-6.33a335.86,335.86,0,0,1,45.2-.48c29.77,1.67,59.6,6.7,88.56,13.69,15.4,3.71,31.35,7.08,45.44,14.58l-.91-7.07L363,281.39l2-1.15a135.92,135.92,0,0,1-16.4,3c-5.41.63-10.81.7-16.23,1-11.54.7-23.09,1.08-34.65,1.23-22.9.29-45.81-.35-68.7-1.11-6.27-.21-12.54-.52-18.81-.67-5.66-.13-11.4-.14-17-1.21l-1.2,8.84c29.75-.85,59.43-3.42,89.15-4.8,4.16-.19,8.44-.67,12.57-.19a23.07,23.07,0,0,0,11.92-2c1.8-.77,2.55-3.34,2.07-5.09a4.67,4.67,0,0,0-4.34-3.3c-46.15-3.69-92.39-3-138.63-3.86-12.65-.23-25.33-.22-37.89,1.4-2.34.31-4.61,1.82-4.5,4.5.29,7.22,10.37,9.3,15.89,10.87,4.32,1.23,8.5,2.94,12.77,4.33q8.22,2.69,16.57,4.94c23.13,6.22,46.94,9.59,70.8,11.41,6.73.51,13.47.46,20.19,1,3.27.27,7.28,1.38,10.44.44.16,0,1.16-.45.62-.15.57,0,.62,0,.14,0-.34-.19-.38-.21-.1-.05s0,0-.2-.26a3.89,3.89,0,0,1,.61,1.4l2.07-5.08c-8.91,5.9-18.58,10.25-28.57,14-10.55,3.94-21.1,7.71-30.8,13.54-3.7,2.22-2.3,8.56,2.27,8.38,14.12-.55,28.23-1.25,42.36-1.18s28.18,1.07,42.19,2.55c2.07.22,4.15.46,6.22.7s4,.61,6.1-.19a13,13,0,0,1,1.8-.57s.79-.24.39-.09.64.13.11,0,.12,0,.15.06a8.33,8.33,0,0,1-.83-.44c-.18-.14-.23-.36-.35-.53-.33-.46.14.7,0-.07l4.5-4.5c-11.62.39-23.24.38-34.86,0-5.94-.17-11.88-.4-17.81-.77-5.41-.34-10.79-1.05-16.21-1.37s-10.57.31-15.82-.36a68.92,68.92,0,0,1-14.31-3.84c-10.09-3.63-20.12-7.28-30.31-10.62-11.33-3.72-22.64-7.55-33.34-12.85v7.77a13.91,13.91,0,0,1,8.73-1.91,19,19,0,0,1,4.31,1.16,23.88,23.88,0,0,0,6.14,1l23.7,2.34c15.49,1.53,31,3.21,46.5,4.5,8.88.74,17.77,1.29,26.67,1.49,5,.12,6.17-7.63,1.2-8.84a35.77,35.77,0,0,0-10.85-1c-3.43.25-6.85.93-10.27,1.32q-10.93,1.28-21.76,3.28a403.18,403.18,0,0,0-41.22,10.33q-11.82,3.54-23.5,7.51c-2.55.86-4.44,4.08-2.69,6.61a20,20,0,0,0,9.78,7.95c4.06,1.45,8.52,1.1,12.63,0h-2.4a389.43,389.43,0,0,0,47,4.41q11.76.42,23.52.73,5.88.15,11.77.27l5.46.1a17.12,17.12,0,0,0,3.12,0,10.2,10.2,0,0,0,3.33-1.5,21.75,21.75,0,0,1,3.91-1.83,5.53,5.53,0,0,1,3-.52c-1.15-.06,1,.37-.15-.07.07,0,.43.19.45.26.11.43-.37-.45-.11,0s-.48-.5,0-.05c.05.06.44.77.23.35s.07.2.09.25c.15.45.25.9.36,1.37l4.33-5.7c-34.87,3-70,4.16-104.37,11.61-4.88,1.06-3.9,9.3,1.19,8.84,33.08-3,66.75-3.38,99.62,1.86,9.06,1.44,18.28,2.76,27,5.7v-8.68a42.51,42.51,0,0,1-9.39,2c-3.58.3-7.14-.06-10.71.12q-10.94.53-21.84,1.53c-14.41,1.34-28.89,2.92-43.22,5a185.59,185.59,0,0,0-23.81,4.93,4.5,4.5,0,0,0-3.22,4.94,4.56,4.56,0,0,0,4.42,3.9c12.71,1.36,25.41-.38,38.1-1.09,12.93-.72,25.89-1.38,38.85-1.39L277,382.74c.08-.17,2.31-2.09,1.23-1.39-.74.47,1.18-.46.18-.08s-1.81.7-2.73,1c-2.46.92-4.94,1.82-7.42,2.7-4.49,1.61-9,3.18-13.47,4.75-19.17,6.73-38.38,13.17-57.86,18.93-12.49,3.7-25,7.19-37.62,10.58l2.4,8.67c11.48-3.16,23.15-5.57,34.88-7.63,5.74-1,11.5-1.88,17.25-2.79,2.68-.42,5-1.88,7.77-2.22a13.68,13.68,0,0,1,6.9,1l1.08-8.23c-30.6,6.1-61.39,10.65-92.35,14.39a216.65,216.65,0,0,1-26.69,1.95l3.88,6.77a5.84,5.84,0,0,1,.64-1h0c-.4.13-.34.12.19,0l-.26.05c.54,0,.67,0,.36,0,.59.16,1.16.35,1.74.53,3.16,1,7.28-.27,10.57-.56a181.29,181.29,0,0,1,21.36-.58c14.21.47,28.54.36,42.77.16v-9c-35.36.64-70.78.95-106,4.8-2.42.27-4.5,1.88-4.5,4.5a4.56,4.56,0,0,0,4.5,4.5,76.73,76.73,0,0,0,11.12-1c3.41-.48,6.92-.57,10.35-.77,7.08-.42,14.16-.55,21.25-.85,14.55-.63,29.14-1.39,43.68.07L170,423.52c-8.18,3.9-17.57,5-26.47,6.1-10.43,1.33-20.85,3.34-31.4,3.2v9c14.23-.77,28.47-1.25,42.72-1.67,7-.21,14.1-.41,21.15-.73a194.4,194.4,0,0,1,21.59-.13l-3.88-6.77c-2.65,4.7-7,7.33-11.47,10.14-5.78,3.67-11.75,7-17.45,10.84a4.69,4.69,0,0,0-2.07,5.08,8.79,8.79,0,0,0,4.54,6.52c3.14,1.57,5.68.1,8.84.3,7.95.52,15.64-1,23.27-3.1q5.55-1.53,11-3.35c1.82-.61,3.65-1.24,5.46-1.89,1.5-.54,3-1.35,4.57-1.31,6.32.16,11.1-3.54,12.9-9.53a4.54,4.54,0,0,0-4.34-5.69,208.86,208.86,0,0,0-29.15,1.69l-7.21.89c-2.44.29-5.18.28-7.55.93-2.06.57-3.73,1.68-6,1.74a10.55,10.55,0,0,1-5.17-1.17l-1.08,8.23c36.56-11.08,74.73-14.55,112.57-18.31l7.89-.78c2.08-.2,3.91.69,6,.72,4.84.06,7.48-3.63,7.9-8.07a4.36,4.36,0,0,0-2.23-3.88c-6.71-3.09-13.84-3.89-21.18-3.69-6.9.19-13.81,1-20.72.33l3.89,6.77c5.18-8.48,14-12.76,22.17-17.81,4.88-3,9.81-6.33,15.07-8.63a27.77,27.77,0,0,0,11.7-10.28c1.2-1.79.5-3.95-.71-5.46-3.9-4.86-8.53-9.13-14.4-11.43A28.74,28.74,0,0,0,294,371c.53.07-.87-.14-.84-.13-.49-.1-1-.21-1.45-.34-.92-.27.16-.1-.65-.27-.46-.29-.51-.32-.15-.12s.21.27-.07-.2l-.7,5.45a49.64,49.64,0,0,1,12.3-9.12c4.74-2.68,9.52-5.28,14.32-7.85,10-5.38,19.94-10.93,28.56-18.45,1.93-1.68,1.51-4.63,0-6.37a20.5,20.5,0,0,0-10-6.48c-2-.53-4-.76-6-1.19l-7.26-1.57,2,7.52c3.89-3.67,9.11-5.35,13.82-7.68,5.35-2.63,10.85-5,15.72-8.51a4.54,4.54,0,0,0-2.27-8.38c-13-1.23-25.49,3-38.26,4.53-2.42.3-4.5,1.86-4.5,4.5,0,2.3,2.06,4.69,4.5,4.5,21.53-1.64,43.12-2.78,64.73-2.62v-9c-12.47.05-25,.8-37.38-.67l4.34,3.3c-.46-1.52-.68-2.75-.25-3.63a3.5,3.5,0,0,1,.92-.94,14.1,14.1,0,0,0,2.19-1.53c3.31-3.32,6.35-6.74,10.1-9.6,6.64-5.06,14.19-9.79,18.24-17.35a4.58,4.58,0,0,0-.71-5.45c-3.84-3.39-8.35-5.79-12.35-8.95l1.32,3.18.54-5-.61,2.27c5.37-7.78,12.81-13.88,20-19.95,1.91-1.62,1.54-4.69,0-6.37-4.63-5-11.33-3.3-16.88-2.85-5.78.48-12.29-.72-17.37,2.8a4.66,4.66,0,0,0-2.07,5.08,4.54,4.54,0,0,0,4.34,3.3c21.9-1.83,43.83-3.57,65.51-7.22l-3.46-8.23c.14-.08,1.23-.42.23-.12l-1.23.38c-1.11.33-2.23.64-3.36.95-3,.83-6,1.67-9,2.62-4.66,1.5-13.4,3.73-13.48,9.94a4.6,4.6,0,0,0,4.5,4.5,23.14,23.14,0,0,1,8.13,2l-1.61-6.16c-.95,1.85-1.75,4.07-3.07,5.68a61.26,61.26,0,0,1-5.12,5.07c-2.77,2.67-5.56,5.38-8.54,7.81-3.69,3-9.2,6.14-10.72,10.92-1.44,4.52,4.36,7.2,7.53,4.37a110.46,110.46,0,0,0,13.66-14.61c1.1-1.41,2.62-2.9,2.87-4.74a13.36,13.36,0,0,0-.67-4.83,20.75,20.75,0,0,0-2.75-6.35,16.22,16.22,0,0,0-11.18-7,27.43,27.43,0,0,0-8.19.13,35,35,0,0,1-8.91-.15,69.31,69.31,0,0,1-21.42-6l2.06,5.08a18.23,18.23,0,0,1,3.88-7.3,14.26,14.26,0,0,1,2.69-2.28,43.2,43.2,0,0,0,4.74-3.57,80.37,80.37,0,0,1,18-11.11c7.5-3.49,15-7.09,22.46-10.66q2.46-1.19,4.82-2.54c1.87-1.08,4-2.13,5.3-3.89s3-3.7,2.69-6c-.23-1.72-.91-3-.56-4.73.73-3.69,3.05-7.09,5.15-10.12s4.61-6.17,6.73-9.39a4.43,4.43,0,0,0,0-4.54c-.92-1.45-1.82-3.42-3.19-4.48S413,158.59,411.3,158a55.52,55.52,0,0,0-10-2.2c-6.69-.92-13.55-1-20.15-2.5l2,7.53c8.28-6.79,17.92-11.65,27.52-16.26L414,143c.56-.27,1.12-.55,1.69-.8-.63.28-.05,0,.27-.1,1.83-.7,3.66-1.38,5.45-2.17,3.91-1.74,7.48-4.37,8.73-8.65a4.54,4.54,0,0,0-3.15-5.53,50.52,50.52,0,0,0-18.39,0c-1.63.26-3.22.74-4.85,1.06a7,7,0,0,1-1.86.21c-1.41,0,.66-.17-.59,0,.28,0,1,.83.38.07v6.37c5.29-6.81,11.89-12.42,16.9-19.46a4.53,4.53,0,0,0-.7-5.45,28.19,28.19,0,0,0-13.19-7.74,22,22,0,0,0-3.77-.63,17.42,17.42,0,0,1-1.84-.1c-1.26-.5-1.53-1.25-2-2.87l-1.15,4.38c6.64-6.59,15.85-9,24-13.1A4.54,4.54,0,0,0,422,83.33a4.68,4.68,0,0,0-4.34-3.3c-4.93-.46-9.75.85-14.34,2.53-4.24,1.55-8.55,3.59-13.1,4l2.27,8.38c8.92-5.06,17.76-10.23,26.4-15.76l-6.15-1.61c.42-2,.28-2.39-.41-1.26-1.58,2.06-.14,4.89,1.62,6.16,5.63,4.07,12.38,4.38,19.05,4.84,3.58.25,7.16.73,10.74.92a23.17,23.17,0,0,0,2.54-.22c.54,0,.08-.19.65.09-.57-.28-.13-.18,0,.16.07.18.64,1.11.84,1.53l.7-5.45c-7.3,9.29-16.35,17-24.18,25.77a4.56,4.56,0,0,0,2,7.52,7.27,7.27,0,0,0,6.69-.94c3.53-2.48,2.44-8.34-2.27-8.39-5,0-9.55,1.78-14,3.69a121.44,121.44,0,0,1-13.49,4.92,66.76,66.76,0,0,1-15.06,2.85,59.21,59.21,0,0,1-15.35-1.52c-10.85-2.23-21.7-4.6-32.67-6.23-5.38-.8-10.72-1.53-16-2.77s-10.44-3.11-15.7-4.56c-7.88-2.18-13.09-8.1-15.82-15.87v2.39c2.21-8.07,6.74-13.87,14.4-17.08q8.37-3.51,16.45-7.63c2.68-1.37,6.3-2.52,7.2-5.68a11.09,11.09,0,0,0-1.17-8.73l-2.69,6.61c11.34-3.88,23.22-5.6,35-7.4,4.63-.71,3.91-7.52,0-8.68A37.55,37.55,0,0,0,350.38,41a41.36,41.36,0,0,0-5.21.49,21.46,21.46,0,0,0-4.68,1.63,16.77,16.77,0,0,1-3.06.84c.22,0-1,0-1.19,0,1,.11-.23-.08-.34-.18.49.21.52.2.07,0,.36.31.42.35.18.13a3.87,3.87,0,0,1-.4-.41c.3.4.3.38,0-.06-.61-1.05.16.69-.27-.55a13.73,13.73,0,0,1-.48-2l-2.07,5.08c9.68-5.45,20.56-6.73,31.4-8.06,2.41-.29,4.5-1.85,4.5-4.5a4.58,4.58,0,0,0-4.5-4.5,32.12,32.12,0,0,0-11.76,1.41c-3.81,1.21-8,1.64-11.94,2.35-7.65,1.37-15.36,2.5-23,4.06-7.36,1.52-13.89,4.67-20.81,7.46S282.59,49.36,276,53.24c-2.29,1.35-3.2,5.19-.91,7.06,8.22,6.72,17.78,11.11,27.09,16.07,2.23,1.19,4.49,2.27,6.64,3.61s4.1,3.1,6.25,4.49a22.58,22.58,0,0,1,4.68,3.59,21.79,21.79,0,0,1,3.45,5.37V88.88c-1.32,2.7-2.93,4.75-5.7,5.39-4,.93-8.28,2.77-12.47,3.93-8.5,2.34-17.57,2.49-25.67,6.14-2,.89-2.33,3.24-2.07,5.09s.47,3.91.83,5.83c.44,2.29,2,4.3,3.11,6.31q3.06,5.33,6.08,10.69c1.8,3.18,4.05,6.19,5.56,9.52a26.8,26.8,0,0,1,1.49,4.37c.45,1.76,1.14,3.35,1.66,5.08a8,8,0,0,1-.16,5.87,14,14,0,0,1-5.81,6c-7.17,4.12-14.56,7.92-21.82,11.87-3.45,1.88-6.88,4.07-10.46,5.67-3.86,1.71-8.11,2.84-12.09,4.23l-23.37,8.2c-15.35,5.38-30.74,10.33-46.49,14.4A474.24,474.24,0,0,1,123.33,218c-5,.7-3.86,9.41,1.19,8.84,17.23-1.94,34.52-3.26,51.83-4.19,8.17-.44,16.32-.74,24.5-.83s16.25-.45,24-2.75a4.55,4.55,0,0,0,1.08-8.22,48.51,48.51,0,0,0-20.89-6.62c-3.29-.25-6.56.35-9.87-.08A32.43,32.43,0,0,1,185,201l.91,7.07a120,120,0,0,0,10.66-11.55c2.21-2.72,1.39-6.29-2-7.52-8.52-3.1-17.05-3.82-26-3.61a64.27,64.27,0,0,1-25.15-4.61l1.08,8.23a31.4,31.4,0,0,1,15.33-6.66,169.22,169.22,0,0,0,20.67-3.93c5-1.2,3.85-8.83-1.2-8.84-15.86,0-31.71.49-47.57.4-15.12-.09-29.91-1-44.33-5.94l3.14,5.53c.18-.63.43-1.41.53-1.62s1-1.67.63-1.21c.18-.23,1.22-1.15.62-.71a7.9,7.9,0,0,1,.88-.53c.6-.31-.59.18.07,0a10,10,0,0,1,1-.27c-.49.09-.15,0,.15,0a16.87,16.87,0,0,1,1.89.07,40.12,40.12,0,0,1,4.93,1.51c2.26.69,5.08,0,7.42-.12q3.8-.26,7.59-.48,7.59-.44,15.19-.77a4.59,4.59,0,0,0,4.5-4.5c0-2.66-2.07-4.22-4.5-4.5-6.75-.77-13.91-1.08-19.81-4.83l1.61,6.16c.63-1,.85-1.3,2-1.44-.47.06,2.37.23,1.69.19a25.91,25.91,0,0,0,3.29-.18c4.53-.31,9-.88,13.5-1.63,4.69-.79,3.85-7.42,0-8.68-7.82-2.56-16-3.56-24-5.78-3.64-1-7.3-2.2-10.87-3.45a30,30,0,0,1-8.82-5v6.37a11.74,11.74,0,0,1,4.1-2.55c1.75-.58,3.25-.33,5-.35,2.29,0,4.63-.58,6.92-.71a77.45,77.45,0,0,1,7.77,0c5.79.23,5.78-8.77,0-9-11-.46-22.16-.42-32.84-3.44l2.69,6.61c.38-.65-.08.06-.07.07l-.35.24.33-.2s.65-.3,0-.05a5.72,5.72,0,0,1,.83-.26A11.39,11.39,0,0,1,87.9,128c2.34-.13,4.73,0,7.06-.27s4.5-1.84,4.5-4.5c0-2.22-2.07-4.76-4.5-4.5a65,65,0,0,1-21.39-1.61l2,7.52a7.49,7.49,0,0,1,5-1.86,13.46,13.46,0,0,1,3.2.58,17,17,0,0,0,4.93,0,94.28,94.28,0,0,1,18.16.74l-1.08-8.22c-1.07.57.44-.09-.25.11a7.8,7.8,0,0,1-1.06.26c.65-.1-.19,0-.44,0-.41,0-.83,0-1.25,0a23.53,23.53,0,0,1-4.86-.82c-3.59-.87-7.07-2.12-10.6-3.18-9.17-2.77-18.28-4.77-26.66-9.65l.91,7.07c2.76-2.49,6.55-2.64,10.09-2.45,3.76.21,8.35.57,11.78,2,10.5,4.52,20.69,9.67,30.89,14.81q15.81,7.95,31.47,16.18c5,2.64,9.86,5.57,14.75,8.43s9.83,6.35,15,8.65c8.23,3.64,12.94,10.31,15,19L191,173a25.58,25.58,0,0,1-9.55,9c-3.05,1.64-2.79,6.06,0,7.77a7.88,7.88,0,0,0,6.71.92,23.67,23.67,0,0,1,5.86-1.07c4-.27,8.1,0,12.13,0,2.21,0,4.7.37,6.88-.09a21.07,21.07,0,0,1,4.18-.76,11.41,11.41,0,0,1,7.93,3.21v-6.37a52.56,52.56,0,0,1-13.41,12.48c-2.3,1.44-4.93,2.15-7.19,3.64a17.11,17.11,0,0,0-5.54,5.84,17.94,17.94,0,0,0-2.43,8.08c0,2.34,1.8,3.63,3.43,4.94s3.06,2.37,4.63,3.49c5.69,4,11.75,7.56,17.7,11.17q2.55,1.56,5.13,3.06a11.53,11.53,0,0,0,2.72,1.3c.46.13,1.53.36,1.68.43.75.34.69.26,1.15,1.22-.05-.09-.18-.46,0,.05a7,7,0,0,1,.33,1.27c0,.18.05,1.3.05,1.75l1.31-3.18a36.5,36.5,0,0,1-19.19,9.17,48.93,48.93,0,0,0-6.24,1q-3.31.88-6.69,1.54a92.85,92.85,0,0,1-13.09,1.6c-9.18.48-18-.79-27.05-2l-14.27-1.91-6.71-.9c-2.39-.32-5.55-1.32-7.91-.74-1.88.46-3.62,1.33-5.55,1.69a12.76,12.76,0,0,1-3.07,0c-.23,0-1.06-.37-.23,0a6.8,6.8,0,0,1-.83-.47c.5.32-.55-.65-.14-.1a6,6,0,0,1-.43-.68c-.58-1.1.19.76-.22-.5a15.07,15.07,0,0,1-.55-2.37l-4.34,5.69c9.17-1.06,18.39-1.59,27.56-2.65,2.42-.28,4.5-1.87,4.5-4.5a4.55,4.55,0,0,0-4.5-4.5c-14.46.24-28.93.63-43.39.12-3.46-.12-6.87-.37-10.32-.18a31,31,0,0,1-9.36-.89,37.38,37.38,0,0,1-4.38-1.44,22.89,22.89,0,0,0-4.15-.84c-.15,0-1.28-.49-.77-.24-.85-.42,0,.18-.67-.46a6.33,6.33,0,0,1-1.4-2.33l-3.14,5.54c8.24-3.46,17.16-4.61,25.63-7.34,3.29-1.07,4.87-6.57,1.07-8.23-3.59-1.56-8.5-4.19-12.32-1.87a4.55,4.55,0,0,0,1.08,8.22c5.4,1.8,10.78,4.06,15.33,7.55,5.32,4.08,8.06,9.89,11.33,15.58l-.61-2.27a82.07,82.07,0,0,0,.92,9.25,30.11,30.11,0,0,0,1.35,6.68c1.83,4.46,6,6.3,10.57,6.61l-2.27-.61c7.57,4.12,15.27,8,22.39,12.9a147.8,147.8,0,0,1,17.71,14.34c3,2.79,5.57,6,8.58,8.73,2.32,2.09,4.82,3.8,6.94,6.15A43.79,43.79,0,0,1,185,332.91v-2.39c-.77,3.63-2.28,7.05-4.74,9-3.52,2.79-8.16,3.67-12.71,3.56a37.81,37.81,0,0,1-8.2-1.1c-2.79-.68-5.47-1.76-8.28-2.34a22.34,22.34,0,0,1-11.79-6.77v6.36c3.41-3.71,7.67-7,13-6.06a25.44,25.44,0,0,1,14,8l2-7.52A20.44,20.44,0,0,1,157,335.23v8.68a125,125,0,0,1,38.23-.5c6.65.95,13.39,1,20.1,1.44s13.47.89,20.2,1.44q19.78,1.63,39.48,4.08c13,1.61,26,3,38.94,4.9,7.24,1.05,14.44,2.28,21.66,3.47,3.35.55,6.71.75,10,1.5a57.81,57.81,0,0,1,10,3.21l-2.07-5.08a.91.91,0,0,1,.27-.44c.21-.23.16-.18-.17.15l.25-.22c-.42.21-.49.26-.23.14.47-.06-.6.17-.71.2-.44.11-.89.2-1.33.27.69-.1-1,.06-1.34.07l-1.88.12c-5.48.38-10.72,0-15.86,2.31a4.47,4.47,0,0,0-2.06,5.08c1.51,3.85,3.85,7.36,5.1,11.3l1.16-4.37c-2.45,2.24-5.57,3.59-7.71,6.2-1.54,1.88-1.84,4.53,0,6.37,1.59,1.58,4.82,1.89,6.36,0,2.11-2.58,5.27-4,7.71-6.21a4.44,4.44,0,0,0,1.16-4.38c-1.27-4-3.58-7.44-5.11-11.3l-2.06,5.08c2.27-1,5-.88,7.46-.93q3.16-.07,6.32-.3c4.79-.34,9.71-1.68,11.35-6.75.55-1.69-.32-4.34-2.07-5.08a69.81,69.81,0,0,0-19.49-5.34c-6.48-.77-12.92-2-19.38-3-13.46-2.05-27-3.45-40.47-5.22s-26.84-3.21-40.3-4.39q-10.1-.89-20.2-1.55c-6.73-.44-13.5-.57-20.22-1.12-3.86-.31-7.7-1.05-11.58-1.38-3.55-.3-7.12-.45-10.69-.46a139.66,139.66,0,0,0-23.28,2c-4.29.72-4.31,8,0,8.68a29,29,0,0,0,16-1.56c3.09-1.27,4.51-4.85,2-7.52-5.13-5.42-11.89-9.49-19.35-10.55-8.06-1.15-15,2.75-20.38,8.58a4.59,4.59,0,0,0,0,6.36A31.36,31.36,0,0,0,142.1,346c3.64,1.7,7.55,2.47,11.38,3.64,8.07,2.48,17.34,3.66,25.43.62a22.32,22.32,0,0,0,13.66-13.47,15.78,15.78,0,0,0,1.27-5.12c0-2.09-1.16-4.49-1.91-6.42a54.36,54.36,0,0,0-4.85-9.75,48.17,48.17,0,0,0-6.79-8.34,47.47,47.47,0,0,0-4-3.4,40.9,40.9,0,0,1-4.21-4.12,166.9,166.9,0,0,0-18.62-16.53A165.34,165.34,0,0,0,131.8,269.5l-5.55-3a10.74,10.74,0,0,0-3.75-1.42,10,10,0,0,1-1.91-.42c.29.09-.06-.09-.22-.27.53.62-.32-.72-.2-.4,0,0-.15-.9-.16-.95-.18-1.29-.4-2.56-.62-3.85-.38-2.27-.54-4.54-.7-6.83-.19-2.9-1.81-5.11-3.22-7.58-2.33-4.05-4.6-7.9-8-11.12C101.37,228,93.76,224.56,86,222l1.07,8.22a4.81,4.81,0,0,1-1.12.33c-.35.11-.55-.19,0,0s1.38.37,2,.61l.9.34c.08,0,.92.38.48.19s.68.31.91.41l1.07-8.23c-8.47,2.74-17.38,3.88-25.62,7.34-2.1.88-4.06,3-3.15,5.54,2.13,5.88,6.54,9.84,13,9.7l-2.27-.62a41.44,41.44,0,0,0,17.11,3.76c3,0,5.91-.11,8.91,0s6.18.23,9.27.29c12.36.23,24.72-.08,37.07-.29v-9c-9.17,1.06-18.39,1.59-27.56,2.65a4.61,4.61,0,0,0-4.34,5.7c.75,4.68,3.48,8.72,8.1,10.24a15.93,15.93,0,0,0,7.36.3,24.68,24.68,0,0,0,3.41-.75c.64-.18,1.26-.41,1.89-.61a5.4,5.4,0,0,1,2.65,0L159.07,261c6.93.93,13.8,2.2,20.8,2.5A107.49,107.49,0,0,0,201,262.27q5.17-.81,10.25-2.13c3-.78,6-.93,9-1.58a43.21,43.21,0,0,0,16.24-7.4c1.26-.94,2.5-1.91,3.7-2.93a5.89,5.89,0,0,0,2.1-5.44,13.64,13.64,0,0,0-2.67-7.69c-1.91-2.44-4.24-3.09-7-4.16a33.26,33.26,0,0,1-4.8-2.84q-2.56-1.54-5.09-3.14c-6.31-4-12.87-7.62-18.55-12.49l1.16,4.38c.4-2.72,1.12-5,2.8-6.63s4.48-2.22,6.89-3.65A59,59,0,0,0,231.48,192c1.43-1.84,2-4.58,0-6.37a21.43,21.43,0,0,0-9.95-5.41,20.2,20.2,0,0,0-5.65-.36c-1.92.17-3.78.81-5.69.83-4.33,0-8.65-.15-13-.16a47.36,47.36,0,0,0-6.4.44,33.12,33.12,0,0,0-3.57.56,5,5,0,0,0-1.87.61c.8.2,1,.16.6-.13v7.77C191,187,196,182.63,198.76,177.49c1.42-2.67-.23-6.47-1.26-9.1a36.71,36.71,0,0,0-3.48-6.95,32.67,32.67,0,0,0-10.82-10.26c-2.47-1.42-5-2.52-7.49-4l-9.18-5.38C154.23,134.6,141.69,128,129,121.48c-12.42-6.34-24.82-13-37.64-18.48l-5.27-2.27a19.79,19.79,0,0,0-4.5-1.13c-3-.52-6-1-9-1.26-6.31-.5-12.57.67-17.37,5-2.17,2-1.49,5.66.91,7.06a80.29,80.29,0,0,0,15.85,6.91c4.59,1.48,9.31,2.51,13.92,3.94,7.4,2.31,17,6.46,24.43,2.44,3.15-1.69,2.85-7.67-1.07-8.23a108.87,108.87,0,0,0-22.24-1,23.36,23.36,0,0,1-4.46-.56,16.24,16.24,0,0,0-13.33,4.34c-2.55,2.16-1.17,6.82,2,7.52C79,127.56,87,128.64,95,127.76v-9c-6.29.83-15.08-1.14-19,5.4a4.55,4.55,0,0,0,2.69,6.61c11.44,3.23,23.44,3.27,35.23,3.76v-9c-5.59-.23-11.13.64-16.62.62a19.94,19.94,0,0,0-13.56,5.66c-1.66,1.51-1.84,4.89,0,6.37a43.09,43.09,0,0,0,10.52,6.41,42.5,42.5,0,0,0,5.28,1.77c2.14.59,4.21,1.47,6.34,2.11C114.24,151,123,152,131.35,154.7V146c-4.8.81-10.19,1.84-15,1.41-4.58-.41-8.42,2-10.8,5.78a4.58,4.58,0,0,0,1.62,6.16c7.29,4.64,16,5.1,24.35,6.06v-9c-5.63.25-11.25.53-16.87.87q-4.23.25-8.44.55a8.64,8.64,0,0,1-3.44-.1c-1.08-.35-2.13-.73-3.24-1-3.74-.83-7.78-.83-11.19,1.15s-5.39,5.54-6.43,9.25A4.59,4.59,0,0,0,85,172.7c14.85,5.05,30.31,6.15,45.88,6.27,16.14.11,32.27-.43,48.41-.4l-1.19-8.84c-3.5.85-7,1.64-10.53,2.36s-6.85,1.06-10.32,1.58a38.31,38.31,0,0,0-17.3,7.55c-3.2,2.44-2.71,6.75,1.07,8.23a71.24,71.24,0,0,0,26,5c4.3,0,8.52-.32,12.82.17a55.05,55.05,0,0,1,12.38,3.1l-2-7.52a120.12,120.12,0,0,1-10.67,11.54c-2,1.9-1.66,5.79.92,7.07a41.67,41.67,0,0,0,21.61,4.56c6.74-.49,13.57,2,19.32,5.34l1.07-8.23c-7.3,2.16-14.86,2.36-22.41,2.43-8.21.09-16.38.43-24.57.87-17,.93-34,2.25-51,4.15l1.2,8.84c33-4.63,65.2-13.11,96.58-24.12L246.88,194l12.49-4.38c4.07-1.43,7.79-3.8,11.57-5.85l22.56-12.28c6.24-3.39,11.45-9.15,12-16.49a17.59,17.59,0,0,0-.6-5.59c-.46-1.7-1.3-3.23-1.66-4.93A33.22,33.22,0,0,0,298,132.64c-2.69-3.84-4.77-8.23-7.1-12.3-1.18-2.07-2.55-4.11-3.58-6.25s-1-4.77-1.35-7.06l-2.07,5.08c3.42-1.54,7.26-2.07,10.93-2.63a113.47,113.47,0,0,0,11.82-2.39c2.08-.56,4.15-1.19,6.19-1.88s4-1.75,5.93-2.06a15.5,15.5,0,0,0,8.56-4.45,19.28,19.28,0,0,0,3-4.09c1.42-2.53,1.35-4.4,0-7a26.29,26.29,0,0,0-6.49-8.06,34.11,34.11,0,0,0-3.94-2.67c-1.84-1.13-3.46-2.69-5.27-3.89-3.28-2.16-6.81-3.86-10.27-5.7-7.81-4.13-16-7.76-22.92-13.39L280.56,61c6.14-3.62,12.85-5.83,19.41-8.51s13-5.71,20.09-7.17c7.34-1.5,14.77-2.59,22.14-3.91,3.83-.69,7.85-1.11,11.61-2.11s6.71-1.73,10.53-1.48v-9c-12.48,1.53-24.8,3-35.94,9.29a4.64,4.64,0,0,0-2.07,5.08c1.09,5.84,5.49,10.27,11.69,9.67a19.24,19.24,0,0,0,4.86-1.09,25.79,25.79,0,0,1,4.29-1.58,27,27,0,0,1,12.19,1.07V42.59c-11.81,1.8-23.68,3.52-35,7.4a4.57,4.57,0,0,0-2.69,6.61,2.15,2.15,0,0,1,.18,2.13L323.89,56c-6.72,3.62-13.59,7-20.63,9.91a31.78,31.78,0,0,0-14,10.86,35.24,35.24,0,0,0-4.16,8,18.23,18.23,0,0,0-1.35,4.54c-.2,2,.9,4.06,1.69,5.85a32.84,32.84,0,0,0,10.91,13.63c5.15,3.71,11.79,5.28,17.78,7a158,158,0,0,0,23.51,4.76c7.82,1.08,15.59,2.72,23.32,4.3s15.41,3.69,23.27,3.84c8.55.16,17-1.78,25.09-4.43,3.94-1.29,7.7-2.89,11.52-4.5,3.11-1.31,6.39-2.64,9.82-2.6l-2.27-8.39c-.91.58-.83.6.24,0l2,7.53c7.83-8.82,16.88-16.49,24.19-25.78a4.79,4.79,0,0,0,.7-5.45,10.24,10.24,0,0,0-7.15-6,26.84,26.84,0,0,0-4.66,0c-2,0-4-.37-5.94-.54-6.52-.55-13.76,0-19.31-4l1.62,6.15a6.69,6.69,0,0,0,.4-7.83,4.58,4.58,0,0,0-6.16-1.61c-8.64,5.52-17.49,10.7-26.4,15.76-3.7,2.1-2.3,8.78,2.27,8.39,5-.43,9.54-2.07,14.21-3.82,4.3-1.62,8.57-3.12,13.23-2.69l-2.27-8.39c-8.94,4.54-18.49,7.25-25.81,14.5a4.54,4.54,0,0,0-1.15,4.38c1.42,5.33,5.21,9,10.78,9.52a19,19,0,0,1,12.29,5.79l-.7-5.45c-4.55,6.39-10.69,11.44-15.49,17.63a4.7,4.7,0,0,0,0,6.37c3.22,3.92,9.1,2.52,13.31,1.51a38,38,0,0,1,16-.47l-3.14-5.53c-.17.58,0,.27-.42.76a4.08,4.08,0,0,1-1.4,1.09,23.11,23.11,0,0,1-4.31,2c-4.08,1.56-8,3.47-11.92,5.38-9.44,4.59-18.51,9.69-26.65,16.36-2.6,2.13-1.13,6.83,2,7.52,5.83,1.3,11.8,1.52,17.72,2.18a59.26,59.26,0,0,1,16.23,3.93L410,166.06l2,3.21v-4.54c-5.76,8.72-16.47,19.09-12.3,30.57l.45-3.46L398,195l1.61-1.62c-6.08,4-12.75,6.7-19.28,9.81s-13,5.91-19.12,9.46c-5.64,3.26-10.43,7.58-15.76,11.21a26.23,26.23,0,0,0-10.21,14.64,4.52,4.52,0,0,0,2.06,5.08,82.22,82.22,0,0,0,18,6.05c6,1.21,12.41,2.17,18.43,1.18a18.38,18.38,0,0,1,2.46-.23q.78,0,1.56,0s1.49.13.73,0a13.09,13.09,0,0,1,2.62.67c-.77-.29.4.2.47.25a10.59,10.59,0,0,1,1.07.66c-.69-.5.31.29.37.36.29.3.59.6.86.93-.47-.59.24.4.31.51q.36.58.66,1.2a23.61,23.61,0,0,1,1.41,5.48l.46-3.47A107.07,107.07,0,0,1,372.07,273l7.52,4.38c0,.12-.38,1.06-.17.44.15-.44,0-.08-.16.17a13.28,13.28,0,0,1,1.2-1.29c1-.94,2-1.81,3-2.66,1.67-1.38,3.42-2.64,5.07-4,3.17-2.68,6.19-5.58,9.16-8.48,1.61-1.58,3.34-3.13,4.82-4.83s2.52-4.47,3.63-6.63c1-2,.7-5.12-1.62-6.16a35.44,35.44,0,0,0-12.67-3.2l4.5,4.5a3.84,3.84,0,0,1-.77,2c.7-.72-.8.41.22-.2.4-.23.78-.46,1.19-.68s1.53-.72,1.23-.59,1-.39,1.3-.51l2-.72c1.42-.49,2.85-.94,4.29-1.37,4.17-1.24,9-1.89,12.89-3.93a4.48,4.48,0,0,0,1.84-5.62,4.58,4.58,0,0,0-5.31-2.6c-20.89,3.52-42,5.14-63.12,6.9l2.27,8.39c3.2-2.21,8.36-1.28,12.34-1.53,2.25-.14,4.43-.62,6.5-.78s3.45-.19,4.51,1v-6.37c-7,5.94-14,11.91-19.59,19.27a24.45,24.45,0,0,0-1.8,2.51c-.71,1.29-.68,2.9-.84,4.34a11.34,11.34,0,0,0-.15,4.1c.4,1.48,1.53,2.3,2.68,3.18,3.53,2.69,7.49,4.82,10.83,7.76l-.7-5.45c-4.15,7.74-13,12.07-19.41,17.63a70.77,70.77,0,0,0-5.46,5.22,21.7,21.7,0,0,1-2.19,2.3,27.42,27.42,0,0,0-2.64,2.05c-3.44,3.43-3.76,8.35-2.41,12.78a4.73,4.73,0,0,0,4.34,3.31c12.42,1.47,24.91.72,37.38.67,5.79,0,5.8-9,0-9-21.61-.16-43.2,1-64.73,2.62v9c12.74-1.58,25.3-5.75,38.26-4.53L349,308c-5,3.6-10.78,6.13-16.34,8.82-5.32,2.57-10.65,4.65-15,8.77-2.39,2.25-1.31,6.81,2,7.53,4,.87,8,1.74,12.06,2.48A12.26,12.26,0,0,1,339,340v-6.37c-8.39,7.32-18.29,12.52-28.05,17.75-9.41,5-19.72,9.79-27.14,17.68a4.63,4.63,0,0,0-.7,5.45,10.18,10.18,0,0,0,6.25,4.72,25.46,25.46,0,0,0,4.17.74l1.53.18a4.69,4.69,0,0,1,1,.14c5.42,1.1,9.52,5.71,12.83,9.83l-.7-5.46a19.67,19.67,0,0,1-4.41,4.78c-1.94,1.46-4.2,2.15-6.29,3.32-5.14,2.88-10.13,6-15.19,9-8.88,5.27-17.54,10.59-23.06,19.62-1.92,3.15.66,6.44,3.89,6.77,12.17,1.24,25.81-3.18,37.36,2.13l-2.23-3.89c.06-.61,0,.08-.07.18.15-.23.19-.5.43-.67s.52-.26.77-.44c.48-.34.45.14,0,0a15.43,15.43,0,0,0-5.17-.8q-6.86.66-13.71,1.36c-9,.9-17.9,1.81-26.85,2.79-17.93,1.95-35.85,4.31-53.54,7.91-10,2-19.85,4.48-29.59,7.43-3.49,1-4.68,6.42-1.08,8.22,6.37,3.19,12.77,2.86,19.13-.11l-2.27.61c14.2-1.73,28.39-3.64,42.72-3.35l-4.34-5.7c0-.12-.55,1.45-.3.92,0,0-.72,1.2-.33.69,0,0-1,1-.42.53-.12.09-1.2.67-.54.39-1.8.78-3.87,0-6.1.73-6.17,1.92-12.16,4.31-18.39,6.09-5.93,1.69-11.81,3.21-18,3.32-1.49,0-3,0-4.46-.1a17.52,17.52,0,0,0-4.58.56c.5-.09-.85.13-.78,0s.92.41,1,.46c-.43-.32-.18-.3,0,.12.07.17-.27-1.08-.32-1.36l-2.07,5.08c6.06-4,12.38-7.64,18.54-11.52,5.38-3.4,10.42-7,13.61-12.69a4.56,4.56,0,0,0-3.89-6.77,191.5,191.5,0,0,0-21.16.11c-7.19.33-14.39.53-21.58.75-14.25.42-28.49.9-42.72,1.67-5.75.31-5.83,8.92,0,9,11,.15,21.9-2,32.77-3.37,10.14-1.3,20.33-2.72,29.65-7.15a4.55,4.55,0,0,0,2.06-5.09,4.68,4.68,0,0,0-4.33-3.3c-14.54-1.46-29.13-.7-43.68-.07-7.09.3-14.17.43-21.25.85-3.57.2-7.16.37-10.72.77a89.87,89.87,0,0,1-10.75,1v9c35.19-3.85,70.61-4.16,106-4.8,5.78-.1,5.8-9.08,0-9-15.37.22-30.76,0-46.13-.23a179.26,179.26,0,0,0-22.58,1.11,12,12,0,0,1-4.77,0,11.12,11.12,0,0,0-5-.24,9.62,9.62,0,0,0-6.66,5.26,4.55,4.55,0,0,0,3.89,6.77c15.87,0,31.77-2.48,47.48-4.52s31.48-4.41,47.14-7.13q13.44-2.34,26.81-5c3.57-.71,4.63-6.71,1.08-8.22a23.68,23.68,0,0,0-17.77-.84,23.79,23.79,0,0,1-4.64,1.32l-4.82.76c-3.07.49-6.15,1-9.22,1.49-12.54,2.14-25,4.67-37.3,8-5.57,1.53-3.21,10.18,2.4,8.67,22.76-6.12,45.43-12.63,67.84-20,13.72-4.49,27.31-9.36,40.9-14.22,2.84-1,5.67-2,8.49-3.09,1.89-.72,4.87-1.37,5.83-3.39,1.43-3-.25-6.77-3.88-6.77-13,0-25.92.67-38.85,1.39-12.69.71-25.39,2.45-38.1,1.09l1.19,8.84c13.56-3.85,27.53-5.55,41.5-7.07,14.56-1.59,29.08-3.27,43.72-4,4-.2,8,.15,12-.18a53.12,53.12,0,0,0,11.78-2.34,4.54,4.54,0,0,0,0-8.68c-7.67-2.59-15.69-3.8-23.65-5.15-8.56-1.45-17.18-2.59-25.83-3.37a404.55,404.55,0,0,0-50.93-1.21c-9.54.34-19.07,1-28.59,1.85l1.2,8.84c33.53-7.28,67.91-8.33,102-11.29a4.57,4.57,0,0,0,4.34-5.7c-.9-4.12-3.6-7.71-7.94-8.48-5.17-.93-10.35,1.76-14.64,4.35l2.27-.62q-22.28-.37-44.53-1.19c-7.44-.28-14.88-.68-22.3-1.37q-5.46-.52-10.91-1.21c-1.7-.21-3.4-.45-5.09-.69a44.05,44.05,0,0,0-6.22-.93c-1.58,0-3.13.7-4.73.76a9.33,9.33,0,0,1-3.28-.31,9.84,9.84,0,0,1-5.43-4.14l-2.69,6.61c16.87-5.69,33.93-10.9,51.26-15q13-3.06,26.19-4.94c4.38-.63,8.85-.86,13.21-1.59a29.31,29.31,0,0,1,12.16.12l1.19-8.84c-16.12-.36-32.18-1.91-48.22-3.52s-31.87-3.14-47.81-4.73a27.25,27.25,0,0,1-3.38-.34c-.9-.21-1.78-.65-2.69-.93a25.38,25.38,0,0,0-6.29-1,23.06,23.06,0,0,0-12.2,3.21c-2.81,1.58-3.06,6.25,0,7.77,19.84,9.84,41.51,15.24,62.17,23a101,101,0,0,0,14.58,4.58,71.87,71.87,0,0,0,15.9,1.12,170.45,170.45,0,0,1,17.05,1.14c5.83.53,11.69.77,17.54,1,13.31.5,26.64.58,40,.14,2.19-.07,4.83-2,4.5-4.5-.44-3.35-1.78-6.48-5.29-7.58-3.33-1-6.6.18-9.65,1.5l2.27-.61a452.3,452.3,0,0,0-47.09-3.65c-15.81-.3-31.61.5-47.41,1.12l2.28,8.39c9.48-5.7,19.75-9.26,30-13.16s20.19-8.32,29.32-14.36a4.61,4.61,0,0,0,2.07-5.08c-1.49-5.06-5.38-8.36-10.82-7.48a7.9,7.9,0,0,1-2.65.18c-1.39-.19-2.8-.31-4.2-.45-3.07-.29-6.16-.52-9.24-.66-5.9-.29-11.77-.42-17.66-.92s-12-1.12-18-1.85A333.22,333.22,0,0,1,148,282.7c-3.6-1.25-7.18-2.39-10.81-3.53-.89-.28-1.77-.57-2.65-.89a12,12,0,0,1-1.66-.68,16.31,16.31,0,0,1-2.08-1.17c-.51-.36.58.73,0,0a2,2,0,0,1,.58,1.61l-4.5,4.5c22.39-2.89,45.24-1.11,67.75-1,23.24.08,46.48.3,69.71,1.21,13,.51,26.06,1.25,39.06,2.29l-2.27-8.38c-3.09,1.32-5.76.66-8.94.51-3.48-.17-7.1.29-10.58.45-7.2.33-14.4.73-21.59,1.14-14.45.85-28.88,1.85-43.33,2.63-8.22.44-16.44.81-24.66,1-4.86.14-6.37,7.85-1.19,8.84A104.32,104.32,0,0,0,208,292.68c5.6.14,11.2.37,16.8.57q18.3.64,36.6,1c12.12.26,24.24.37,36.36.22s24.22-.86,36.34-1.34a189.31,189.31,0,0,0,19.75-1.6q5-.74,10-1.82c1.69-.37,3.72-.57,5.12-1.64a26.56,26.56,0,0,0,3.6-4.09c1.77-2.11,1.83-5.6-.91-7.06C358.57,270,344.27,266.52,330,263q-22.41-5.61-45.2-9.4c-30.84-5.08-61.93-8-93.18-5.89-14.4,1-30.13,1.13-43.24,7.84a4.35,4.35,0,0,0-2.23,3.88c.37,2.8,1.16,5.47,3.78,7a7.28,7.28,0,0,0,3.85.88c.76,0,1.46-.24,2.2-.34a8.91,8.91,0,0,1,2.41.06,86.52,86.52,0,0,0,9.93.45c3.48-.05,6.92-.54,10.4-.65,13.95-.47,27.91-1.15,41.84-2.18,13.55-1,27.07-2.37,40.52-4.34q9.79-1.43,19.51-3.36c5.5-1.1,10.93-2.64,16.45-3.66,7.4-1.38,19.6-2.8,21.62-11.76a4.56,4.56,0,0,0-4.34-5.69c-38.31-2.27-76.67-1.15-115-.05-3.41.1-6.8.45-10.2.61-1.84.09-3.69.15-5.54.08a11.17,11.17,0,0,1-3.89-.54v8.68c21-3.79,42-7.43,63.18-10.1s42.29-4.31,63.48-6c5.78-.44,11.56-.91,17.34-1.27s11.77-.9,17.26-3.12a4.68,4.68,0,0,0,3.3-4.34,4.61,4.61,0,0,0-3.3-4.34c-14.29-4-29.19-5-43.94-5.89-15.41-.91-30.76-1.79-46.21-1.89-8.84,0-17.68,0-26.52,0v9c24,0,48,0,72-.38,23.59-.35,47.2,0,70.79-.56,13.2-.29,26.37-1,39.3-3.84a4.54,4.54,0,0,0,2.69-6.61c-2.33-3.71-6.79-4.55-10.82-5a68.23,68.23,0,0,0-11-.17c-4.69.22-9.38.08-14.07.1-7.26,0-14.51.13-21.76.25q-43.57.77-87,4.52-24.69,2.13-49.3,5.16c-2.41.29-4.5,1.86-4.5,4.5a4.59,4.59,0,0,0,4.5,4.5c19.24,1.28,38.35-2.26,57.28-5.19s37.81-5.58,56.37-10.37c2.46-.64,4.9-1.32,7.34-2s5.12-2,7.67-2.42c2-.34,3.77-.19,5.65-1.34a10.27,10.27,0,0,0,4-5.47c1.15-3-1.74-5.38-4.34-5.7-16.52-2-33.17-1.47-49.77-1.16-16.8.32-33.58.48-50.38,1-9.3.28-18.84,1.17-28.12.26l1.19,8.84c17.81-5.37,36.26-8,54.59-10.88,19-3,38-5.32,57.11-7.62,10.77-1.3,21.48-2.49,32.11-4.71a4.51,4.51,0,0,0,3.14-3.15l.65-2.12c.67-2.17-.79-5.1-3.14-5.53-15.76-2.89-31.51-5.85-47.34-8.33a412.15,412.15,0,0,0-47.83-4.57c-9.15-.35-18.3-.62-27.44-1.22l1.19,8.84a84.18,84.18,0,0,1,14.16-1.65c4.94-.34,9.88-.65,14.83-.87,9.91-.44,19.83-.65,29.75-.73,19.9-.17,39.81.17,59.71.09q8.48,0,17-.37a77.5,77.5,0,0,1,7.77-.06,19.71,19.71,0,0,0,8-1.26,4.66,4.66,0,0,0,3.3-4.34c0-1.8-1.38-4.06-3.3-4.34-18-2.63-36-5.55-54.15-7.23-18-1.67-36-2.87-54.05-2.83-9.94,0-20,.12-29.73,2.52-3.52.86-4.08,5-2,7.52,2.52,3,6.2,4.46,9.95,5.11,4.37.77,8.8,1.32,13.2,1.85,9.61,1.15,19.26,2,28.88,3,18.95,2.06,37.93,4.09,57,4.73a314.44,314.44,0,0,0,32.78-.53c3.21-.23,4.75-2.68,4.34-5.7a9.67,9.67,0,0,0-6.49-8.24c-4.14-1.31-8.53.38-12.3,2l2.27-.61q-25.76-3.26-51.69-4.79-12.84-.78-25.71-1.22c-8.44-.28-16.79.15-25.15-1.43l2.69,6.61c-.56.86-.45.59-.21.32-.57.67-.51.29-.17.14s.86-.5,1.31-.71c.77-.37.26-.11.08,0l.84-.31c.73-.26,1.48-.48,2.22-.7,2.07-.59,4.17-1,6.27-1.5,3.45-.74,6.83-1.87,10.23-2.77q6.75-1.78,13.52-3.44c18.22-4.49,36.54-8.66,55-12.27,10.32-2,20.76-3.27,31.07-5.31a4.47,4.47,0,0,0,3.23-4.94c-.36-2.38-2.13-3.62-4.42-3.9-16.72-2-33.51-3.4-50.15-6s-33.5-5.11-50-8.87c-9.4-2.15-18.67-4.76-28.3-5.74-5-.52-6.2,8-1.19,8.84a64.38,64.38,0,0,0,12.57.4c4.39-.13,8.8,0,13.19,0h26.13c17.78,0,35.57-.15,53.36,0v-9c-3.72.15-7.28-.66-10.94-1.2-4-.59-7.95-1-11.93-1.35-8.08-.78-16.17-1.22-24.29-1.25-16.14,0-32.29,1.06-48.42-.15l4.34,5.7a5,5,0,0,1-1.12,1.69c-.42.46-.14.2,0,.08-.48.45-.43.14.21,0,.47-.11.93-.23,1.4-.31.22,0,1.5-.22.78-.13,1.61-.2,3.23-.27,4.84-.41,6.48-.57,12.92-2.1,19.28-3.45A406.25,406.25,0,0,1,356,80.41a155.46,155.46,0,0,1,24-.89c4.45.22,6.14-6.3,2.27-8.39s-7.61-1.77-11.75-1.89-8.14-.66-12.19-1.18a228.2,228.2,0,0,0-24.09-1.62c-16.61-.33-33.23.33-49.84.34-5.79,0-5.8,9,0,9Z" transform="translate(-15.65 -15.53)"/><path class="cls-1" d="M306.48,249.21a1.5,1.5,0,0,0,0-3,1.5,1.5,0,0,0,0,3Z" transform="translate(-15.65 -15.53)"/></svg>