<svg id="Layer_1" data-name="Layer 1" xmlns="http://www.w3.org/2000/svg" viewBox="0 0 1711 534"><defs><style>.cls-1{fill:#2aa4ef;}</style></defs><title>submit</title><path class="cls-1" d="M272.63,224.74c-20.95,0-41.89-2.45-62.83-.56A162.57,162.57,0,0,0,189,227.25a108.09,108.09,0,0,0-19.13,6.58,62.26,62.26,0,0,0-13,7.45,95.55,95.55,0,0,0-9.9,8.16,79.1,79.1,0,0,0-5.81,6.47c-4.12,5.09-8.26,10.34-11,16.33A73.07,73.07,0,0,0,126,282.77a64.32,64.32,0,0,0-1.8,10.85,28.55,28.55,0,0,0-.06,5.39,60.63,60.63,0,0,0,1.57,10.29,64.32,64.32,0,0,0,3.79,9.75,36.55,36.55,0,0,0,2.56,4.73,83,83,0,0,0,19.41,20.85c4.81,3.73,9.65,7.35,14.75,10.67,3.89,2.53,7.85,4.94,11.84,7.3,7.68,4.54,15.47,8.87,23.07,13.53,9.62,5.89,19.12,12.1,28.32,18.64q3.49,2.49,6.9,5.1l-4.25-3.28c6.28,4.86,12.39,10.13,17.29,16.42l-3.29-4.25a39.51,39.51,0,0,1,5.13,8.55l-2.12-5a25.3,25.3,0,0,1,1.72,6.16l-.75-5.58a21.31,21.31,0,0,1,0,5.47l.75-5.58A22.43,22.43,0,0,1,249.3,418l2.12-5a29.53,29.53,0,0,1-3.84,6.41l3.29-4.25a50.69,50.69,0,0,1-8.66,8.41l4.25-3.29a80.8,80.8,0,0,1-18,10.44l5-2.11a130.8,130.8,0,0,1-33.09,8.52l5.58-.75a238.2,238.2,0,0,1-51.55.79q-7.49-.63-14.93-1.63l5.58.75A288,288,0,0,1,90,423.62c-4.4-1.51-8.75-3.15-13-4.95l5,2.11c-4-1.71-8-3.56-11.87-5.62A22.07,22.07,0,0,0,53.92,413a15.8,15.8,0,0,0-7.14,3.76,15.89,15.89,0,0,0-5.41,5.89c-2.57,4.87-3.86,10.78-2.11,16.18,1.64,5.09,4.79,10,9.65,12.55,6,3.18,12.19,5.82,18.44,8.39,5.24,2.16,10.59,4.07,16,5.8a285.79,285.79,0,0,0,36.38,9,349.37,349.37,0,0,0,44.8,5.29,232.07,232.07,0,0,0,38.56-1.1c13.38-1.58,26.74-3.79,39.34-8.74a111.63,111.63,0,0,0,18.91-9,106.35,106.35,0,0,0,13.39-10,64.44,64.44,0,0,0,10.12-11.68,27.31,27.31,0,0,0,2.24-3.75,56.39,56.39,0,0,0,3.53-8.59,53.4,53.4,0,0,0,1.47-9.14,20.22,20.22,0,0,0,.08-3.65,42.79,42.79,0,0,0-2.44-12.66,57.66,57.66,0,0,0-5.94-11.95,94.45,94.45,0,0,0-16.34-18.06,253.74,253.74,0,0,0-21.59-16.3c-10.77-7.36-21.77-14.41-33.06-21-9.9-5.75-19.92-11.35-29.37-17.83-2.22-1.53-4.41-3.11-6.55-4.75l4.25,3.28a76.81,76.81,0,0,1-13.74-13.22l3.28,4.25a40.29,40.29,0,0,1-5.22-8.74l2.12,5a29.91,29.91,0,0,1-2.07-7.44l.75,5.59a28.81,28.81,0,0,1,0-7.48l-.75,5.58a35.56,35.56,0,0,1,2.45-8.76l-2.11,5a55.44,55.44,0,0,1,7.18-12L169.73,287a69.47,69.47,0,0,1,12.05-12.36L177.53,278a63.08,63.08,0,0,1,13.8-8l-5,2.12a91.61,91.61,0,0,1,23.32-6l-5.58.75c18-2.37,36.17-1.1,54.22-.4,4.78.18,9.57.32,14.35.32a21.7,21.7,0,0,0,14.85-6.15,23.26,23.26,0,0,0,6.15-14.85c-.24-5.43-2-11.07-6.15-14.85a21.77,21.77,0,0,0-14.85-6.15Z"/><path class="cls-1" d="M362.46,270.08c0,14.21-.52,28.42-.72,42.63A393.17,393.17,0,0,0,363,355c1.39,14.85,3.6,29.94,8.91,44a112.69,112.69,0,0,0,10.23,21.29A94.33,94.33,0,0,0,397,438.42c12.87,11.9,28.79,19.94,45.73,24.24,9.85,2.5,20.06,3.75,30.16,4.73a120.73,120.73,0,0,0,21.59.44c7.7-.63,15.6-1.68,22.79-4.64a65.35,65.35,0,0,0,12.09-5.9,66.9,66.9,0,0,0,10.47-8.45,76.62,76.62,0,0,0,8.62-10.8,62.75,62.75,0,0,0,4.8-8.49,136.31,136.31,0,0,0,9.45-26.94,236.22,236.22,0,0,0,5-32.06,226.83,226.83,0,0,0,.89-28.91A247.14,247.14,0,0,0,565,307.43a153.73,153.73,0,0,0-7.14-27.17,160.36,160.36,0,0,0-7.09-16.52,20.25,20.25,0,0,0-20.92-10,15.64,15.64,0,0,0-7.81,2.5c-4.48,2.89-8.43,7.19-9.65,12.55l-.75,5.58a20.9,20.9,0,0,0,2.87,10.6q1.59,3.17,3,6.44l-2.12-5a155,155,0,0,1,10.22,39.23l-.75-5.58a222.57,222.57,0,0,1,1.25,46.3q-.47,6.29-1.31,12.54l.75-5.58c-1.71,12.6-4.37,25.33-9.32,37.09l2.11-5a63.17,63.17,0,0,1-7.93,14l3.29-4.25a43.84,43.84,0,0,1-7.6,7.68l4.25-3.29a41.22,41.22,0,0,1-9,5.26l5-2.11a54.28,54.28,0,0,1-13.55,3.56l5.58-.75c-11.17,1.49-22.58.5-33.7-1l5.59.75c-10.44-1.4-20.73-3.63-30.47-7.7l5,2.11a79.07,79.07,0,0,1-17.62-10.16l4.25,3.28A71.56,71.56,0,0,1,418.74,400l3.29,4.25a81.91,81.91,0,0,1-10.45-18.15l2.12,5a121.69,121.69,0,0,1-7.32-25.59c-.47-2.59-.87-5.2-1.23-7.81l.75,5.58a290.82,290.82,0,0,1-2.21-36c-.1-12.29.24-24.58.5-36.88.15-6.78.27-13.56.27-20.34a21.65,21.65,0,0,0-6.15-14.85,23.4,23.4,0,0,0-14.85-6.15c-5.43.24-11.06,2-14.85,6.15a21.83,21.83,0,0,0-6.15,14.85Z"/><path class="cls-1" d="M653.66,151c0,39.67-.5,79.35-.9,119-.39,39.49-.68,79-.26,118.49q.36,33.18,1.5,66.36a20.84,20.84,0,0,0,2.87,10.59,23.48,23.48,0,0,0,12.55,9.66,21.17,21.17,0,0,0,11.17,0c15.7-3.89,31.51-7.42,46.95-12.31a245.82,245.82,0,0,0,28.2-10.9,106.32,106.32,0,0,0,20.42-12,96.36,96.36,0,0,0,12.22-10.51,79.3,79.3,0,0,0,9.5-12.38c5.71-9.33,8.44-19.68,9.32-30.49.5-6.08-.28-12.14-1.25-18.14a56.62,56.62,0,0,0-5.8-16.63,34.19,34.19,0,0,0-2.93-4.67,65.23,65.23,0,0,0-6.75-8.17,62.23,62.23,0,0,0-13.09-9.7c-17.27-9.51-37.1-12-56.06-16.18-2.33-.51-4.66-1.05-7-1.61a22,22,0,0,0-16.19,2.11c-4.35,2.55-8.51,7.55-9.65,12.55-1.22,5.38-1,11.41,2.12,16.18,2.92,4.53,7.18,8.34,12.55,9.66,13.94,3.42,28.22,5.41,42,9.38a94.58,94.58,0,0,1,10.36,3.58l-5-2.11A51.46,51.46,0,0,1,762,369.27L757.77,366a35.72,35.72,0,0,1,6.27,6.26L760.76,368a34.55,34.55,0,0,1,4.26,7.38l-2.12-5a42.61,42.61,0,0,1,2.73,10.35l-.75-5.59a53.35,53.35,0,0,1,0,14l.75-5.58a46.21,46.21,0,0,1-3,11.18l2.12-5a47.91,47.91,0,0,1-6.16,10.47l3.29-4.25a62.7,62.7,0,0,1-11.16,11l4.25-3.28a112.55,112.55,0,0,1-25,14l5-2.12c-16.73,7-34.4,11.53-52,15.79-4.53,1.1-9.07,2.18-13.59,3.3L696,454.87c-1.42-39.63-1.78-79.29-1.69-118.93s.62-79,1-118.52c.2-22.14.36-44.28.36-66.42a21.67,21.67,0,0,0-6.15-14.85c-3.64-3.64-9.62-6.38-14.85-6.15-5.43.24-11.06,2-14.85,6.15A21.83,21.83,0,0,0,653.66,151Z"/><path class="cls-1" d="M902.13,329.86c0-1.1.14-2.2.27-3.29l-.75,5.58a23.13,23.13,0,0,1,1.49-5.67l-2.12,5a14.35,14.35,0,0,1,1.79-3.05l-3.29,4.25a12.45,12.45,0,0,1,1.86-1.84l-4.25,3.28a12.07,12.07,0,0,1,2.43-1.42l-5,2.12a14.57,14.57,0,0,1,3.37-.89l-5.58.75a21.78,21.78,0,0,1,5.47.09l-5.58-.75a44.21,44.21,0,0,1,10.61,3.15l-5-2.11A111.69,111.69,0,0,1,922,349.81l-4.26-3.29a87.5,87.5,0,0,1,15.82,15.12l-3.29-4.25A79,79,0,0,1,940,374.52l-2.12-5a119.31,119.31,0,0,1,7.79,29.78L945,393.7a170.58,170.58,0,0,1-.15,45.2l.75-5.58a153,153,0,0,1-2.82,15.15L984,454.05c-.84-10.73.28-21.65,1.71-32.28l-.75,5.58a317.69,317.69,0,0,1,13.84-59.23q2.82-8.31,6.21-16.41l-2.11,5c4.44-10.48,9.68-20.76,16.62-29.82l-3.28,4.25a61.71,61.71,0,0,1,10.92-11.22l-4.25,3.29a37.78,37.78,0,0,1,8.12-4.81l-5,2.12a35.68,35.68,0,0,1,8.74-2.31l-5.58.75a35.2,35.2,0,0,1,8.94,0l-5.58-.75a37.73,37.73,0,0,1,9.43,2.6l-5-2.12a50,50,0,0,1,10.63,6.31l-4.25-3.28a85.61,85.61,0,0,1,15,15.42l-3.28-4.25c11.16,14.5,19.36,31.17,26.46,47.95l-2.11-5c6.93,16.45,12.74,33.34,18.09,50.36,1.1,3.5,2.18,7,3.27,10.52,1.53,4.92,5,10.07,9.65,12.55a21.68,21.68,0,0,0,13.39,2.49c4.41-.59,9-2.4,12.06-5.78,3.57-3.89,6.65-9.37,6.15-14.85a170,170,0,0,1,1.25-37.78l-.76,5.58A186.48,186.48,0,0,1,1155,351.61l-2.12,5a113.23,113.23,0,0,1,14.31-25.08l-3.28,4.25a73.55,73.55,0,0,1,12.72-12.89l-4.25,3.29a56.2,56.2,0,0,1,12.09-7.15l-5,2.12a52.31,52.31,0,0,1,13.44-3.66l-5.58.75a58.41,58.41,0,0,1,14.77.05l-5.58-.75a58.07,58.07,0,0,1,14.29,3.88l-5-2.11a63.56,63.56,0,0,1,14,8.22l-4.25-3.28a85.43,85.43,0,0,1,14.72,15l-3.29-4.25a141.66,141.66,0,0,1,17.84,31.43l-2.11-5a254.5,254.5,0,0,1,15.3,52.88q1.32,7.19,2.29,14.42l-.75-5.58a260.86,260.86,0,0,1,2.29,27.34,21.9,21.9,0,0,0,6.15,14.85c3.64,3.64,9.62,6.39,14.85,6.15,5.43-.24,11.06-2,14.85-6.15s6.3-9.22,6.15-14.85a310.64,310.64,0,0,0-3.77-38,291.43,291.43,0,0,0-8.28-37.89,230.92,230.92,0,0,0-16.35-41.42c-6.31-12.2-14.42-24-24.38-33.55-10.5-10-23.48-18.09-37.72-21.49-14.5-3.46-30.69-3.27-44.62,2.42a84.92,84.92,0,0,0-12,5.65A98.82,98.82,0,0,0,1146,294a82.24,82.24,0,0,0-13.44,14.27c-9.13,11.82-15.56,24.91-20.71,38.92a189.9,189.9,0,0,0-9.37,37.13c-2,13.1-3.39,26.33-2.93,39.6.08,2.41.22,4.83.44,7.23l41.25-5.58c-7.24-23.34-15-46.39-24.74-68.84a243.77,243.77,0,0,0-18.16-34.95,169,169,0,0,0-13.65-18.39,97.83,97.83,0,0,0-16-14.61c-10.29-7.78-23.74-12.68-36.74-12a57.27,57.27,0,0,0-39.19,17.57c-9.46,9.29-16.74,21-22.46,32.92a272.92,272.92,0,0,0-16.27,43.17,329.2,329.2,0,0,0-8.8,39.86c-1.94,12.5-3.68,25.24-3.57,37.92q0,3,.25,5.9c.42,5.39,2,11,6.15,14.85a21.61,21.61,0,0,0,12.06,5.77c4.47.6,9.48,0,13.39-2.49,4.51-2.91,8.36-7.19,9.65-12.55a186.38,186.38,0,0,0,1.54-80.1,133.7,133.7,0,0,0-8.89-27.19c-6.12-14.1-16.1-25.84-28.13-35.25a166.88,166.88,0,0,0-19.8-13.8c-6.58-3.75-13.71-7.17-21.06-9-9.83-2.51-21.46-2.64-30.28,3.13A32.45,32.45,0,0,0,864.89,310a48.65,48.65,0,0,0-4.76,19.88c-.24,5.23,2.51,11.2,6.15,14.85s9.62,6.38,14.85,6.15c5.43-.25,11.06-2,14.85-6.15a22.71,22.71,0,0,0,6.15-14.85Z"/><path class="cls-1" d="M1364,251.4c0,4.33.14,8.67.29,13q.39,11,1.06,22,.84,14.07,2.09,28.12c.94,10.47,2,20.91,3.39,31.33,1.6,12.37,3.35,24.73,5.66,37,1.84,9.77,4,19.49,6.76,29a167,167,0,0,0,10.86,28.34,62.65,62.65,0,0,0,5.29,8.88c2.69,3.69,5.52,7.65,9.12,10.57a54.26,54.26,0,0,0,7.31,5.39,43.78,43.78,0,0,0,8.28,3.53,40.85,40.85,0,0,0,9,1.42c3,.24,6.32-.42,9.13-.87a20,20,0,0,0,3.87-1,58.17,58.17,0,0,0,9-4,73.54,73.54,0,0,0,8.31-6,58,58,0,0,0,4.43-3.86c1.57-1.52,3.06-3.12,4.49-4.77a20.3,20.3,0,0,0,4.34-22.94,15.76,15.76,0,0,0-4.34-6.76c-4-3.67-9.26-6.4-14.85-6.15-5.34.24-11.21,2-14.85,6.15a63.28,63.28,0,0,1-8.92,8.63l4.25-3.29a32.36,32.36,0,0,1-6.93,4.18l5-2.12a20.1,20.1,0,0,1-5,1.43l5.59-.75a16.34,16.34,0,0,1-4.25,0l5.59.75a16.28,16.28,0,0,1-4.11-1.13l5,2.11a19.76,19.76,0,0,1-4.4-2.62l4.25,3.28a31.64,31.64,0,0,1-5.48-5.61l3.28,4.25a70,70,0,0,1-8.74-15.73l2.11,5a179.55,179.55,0,0,1-8.29-25.71c-2.55-10.09-4.56-20.3-6.27-30.56q-1.5-9-2.71-18.1l.75,5.59c-1.14-8.45-2.11-16.93-3-25.41q-1.2-12-2.08-23.93-.78-10.51-1.33-21-.43-8.22-.71-16.45c-.11-3.48-.21-7-.23-10.46v-.8a21.76,21.76,0,0,0-6.15-14.85A23.4,23.4,0,0,0,1385,230.4c-5.44.24-11.07,2-14.85,6.15A21.79,21.79,0,0,0,1364,251.4Z"/><path class="cls-1" d="M1363.75,150.6v8.52a15.85,15.85,0,0,0,1.81,8.09,18.86,18.86,0,0,0,11.1,11.1,15.75,15.75,0,0,0,8.09,1.81l5.58-.75a21,21,0,0,0,9.27-5.4l3.29-4.25a21,21,0,0,0,2.86-10.6V150.6a15.75,15.75,0,0,0-1.81-8.09,18.86,18.86,0,0,0-11.1-11.1,15.75,15.75,0,0,0-8.09-1.81l-5.58.75a20.83,20.83,0,0,0-9.27,5.4l-3.28,4.25a20.87,20.87,0,0,0-2.87,10.6Z"/><path class="cls-1" d="M1568.74,122c0,29.19-3,58.31-5.25,87.38-2.38,30.42-4.46,61-2.81,91.54a291.38,291.38,0,0,0,6.12,47.26c1.41,6.34,3.33,12.55,4.91,18.84,1.47,5.84,2.75,11.73,4,17.62,2.27,11.09,4.19,22.25,6.81,33.26a142.59,142.59,0,0,0,3.94,13.89,89.8,89.8,0,0,0,7.14,16.22c6.13,10.3,15.88,19.16,27.86,21.82,7.81,1.74,14.53,1.41,22.35,0,7-1.23,13.7-4.21,20.07-7.17,3-1.38,5.9-2.92,8.76-4.55a21.6,21.6,0,0,0,9.65-12.55,15.79,15.79,0,0,0,.37-8.37,15.5,15.5,0,0,0-2.49-7.81c-2.89-4.48-7.19-8.43-12.55-9.65a22.11,22.11,0,0,0-16.18,2.12,113.7,113.7,0,0,1-11.47,5.75l5-2.12a55.57,55.57,0,0,1-13.87,4.09l5.59-.75a30.07,30.07,0,0,1-7.7.09l5.58.75a22.19,22.19,0,0,1-5.6-1.5l5,2.11a21.4,21.4,0,0,1-4.6-2.69l4.25,3.28a27.32,27.32,0,0,1-4.7-4.79l3.28,4.25a45.91,45.91,0,0,1-5.55-9.91l2.11,5c-4.76-11.33-7-23.66-9.37-35.67-2.84-14.43-5.64-28.83-9.64-43a205.6,205.6,0,0,1-5.67-28l.75,5.58c-3.52-26.37-3.14-53.14-1.73-79.65,1.42-27,4.09-53.94,5.94-80.92,1-13.9,1.69-27.83,1.7-41.77a21.67,21.67,0,0,0-6.15-14.85c-3.64-3.64-9.62-6.38-14.85-6.15-5.43.24-11.06,2-14.85,6.15a21.83,21.83,0,0,0-6.15,14.85Z"/><path class="cls-1" d="M1545.94,256.86q20,0,40-.13c10-.08,20.1-.17,30.16-.21q12.95-.06,25.89,0a21.72,21.72,0,0,0,14.85-6.15,15.91,15.91,0,0,0,4.34-6.76,15.87,15.87,0,0,0,1.81-8.09c-.25-5.43-2-11.07-6.15-14.85a21.83,21.83,0,0,0-14.85-6.15q-20,0-40,.13-15.08.12-30.16.22-12.94,0-25.89,0a21.71,21.71,0,0,0-14.85,6.16,15.63,15.63,0,0,0-4.34,6.75,15.77,15.77,0,0,0-1.81,8.09c.24,5.44,2,11.07,6.15,14.85a21.74,21.74,0,0,0,14.85,6.15Z"/></svg>