<svg id="Layer_1" data-name="Layer 1" xmlns="http://www.w3.org/2000/svg" viewBox="0 0 1247 500"><defs><style>.cls-1,.cls-2{fill:#2aa4ef;}.cls-2{stroke:#2aa4ef;stroke-miterlimit:10;stroke-width:17px;}</style></defs><title>type</title><path class="cls-1" d="M15.75,27c0,44.45,1.52,88.89,3.63,133.29,1.06,22.22,2.49,44.43,3.44,66.66s.9,44.48.83,66.73c-.06,24.52,1.07,49.31-2.15,73.68l.54-4C21,371,19.1,378.45,18,386.06a201.24,201.24,0,0,0-2.14,24.87c-.17,7.63-.12,15.27-.22,22.9A117.34,117.34,0,0,0,16.36,450c1.11,8.68,2.72,17.45,9,24,5.43,5.68,15.81,5.88,21.21,0a15.29,15.29,0,0,0,0-21.21,11.17,11.17,0,0,1-.78-.92l2.34,3a15.68,15.68,0,0,1-1.53-2.82l1.51,3.59a40.94,40.94,0,0,1-2.31-9.7l.53,4c-1.13-8.84-.61-17.75-.61-26.64,0-10.7.1-21.42,1.53-32.05l-.54,4C47.56,389.44,49,383.75,50,378c1.18-6.82,2-13.7,2.64-20.59,1-11.4,1.09-22.84,1.06-34.28-.08-24,.24-47.94-.14-71.9s-2-47.93-3.19-71.89-2.3-47.84-3.11-71.78C46.3,80.7,45.75,53.85,45.75,27c0-7.85-6.9-15.36-15-15s-15,6.59-15,15Z"/><path class="cls-1" d="M34.4,464c7.24,0,14.47.37,21.71.17A106.17,106.17,0,0,0,80.24,461a116.93,116.93,0,0,0,21.06-8.05,122.08,122.08,0,0,0,16.44-9.67c10.66-7.41,20.9-15.9,29-26.11a129.51,129.51,0,0,0,11.33-16.39,140.85,140.85,0,0,0,8.42-18.1c4.47-11.4,6.89-23.26,8.39-35.38a147.6,147.6,0,0,0,.31-33.35c-1.28-12.41-3.4-24.91-7.85-36.6a141,141,0,0,0-9.66-20.64c-1.59-2.73-3.28-5.39-5.11-8a89.78,89.78,0,0,0-7.67-9.7,41.52,41.52,0,0,0-17.55-10.95c-4.6-1.5-9.52-2.1-14.28-2.85a96.48,96.48,0,0,0-24.3-1,141.2,141.2,0,0,0-14,2,59.6,59.6,0,0,0-12.15,4.12c-2.92,1.24-5.78,2.63-8.7,3.86l3.58-1.51a35.05,35.05,0,0,1-8.31,2.49l4-.54-.39.05A11.24,11.24,0,0,0,47,236a11.33,11.33,0,0,0-4.83,3.1,15.27,15.27,0,0,0-4.39,10.61c.17,3.88,1.44,7.9,4.39,10.61,2.72,2.49,6.76,4.87,10.61,4.39a49.81,49.81,0,0,0,8.15-1.42,48.39,48.39,0,0,0,4.55-1.65c4.13-1.72,8.16-3.64,12.28-5.38l-3.59,1.51a59.31,59.31,0,0,1,14.92-3.65l-4,.54a86.74,86.74,0,0,1,22.65-.19l-4-.53c3.33.46,6.67,1,10,1.65a39.61,39.61,0,0,1,7.78,2.18l-3.58-1.51a24.69,24.69,0,0,1,5.32,3.11l-3-2.35a39.49,39.49,0,0,1,6.76,7.09l-2.34-3a109.82,109.82,0,0,1,13.87,24.22L137,281.74a124.25,124.25,0,0,1,8.17,31.38l-.53-4a149.58,149.58,0,0,1,.07,39.6l.54-4a129.53,129.53,0,0,1-8.77,32.64L138,373.8a109.53,109.53,0,0,1-14.11,24.29l2.34-3a117.29,117.29,0,0,1-21,20.46l3-2.35A123.7,123.7,0,0,1,81.1,429.3l3.58-1.51a87.8,87.8,0,0,1-22,6.16l4-.54c-10.7,1.38-21.5.63-32.25.61a15.46,15.46,0,0,0-10.61,4.4A15.23,15.23,0,0,0,19.4,449c.17,3.88,1.45,7.91,4.39,10.61A15.61,15.61,0,0,0,34.4,464Z"/><path class="cls-1" d="M274.6,254c0,27.72.07,55.43,0,83.15,0,11.68-.15,23.37-.06,35.05a263.36,263.36,0,0,0,1.74,31.27c1.64,12.9,4,26.06,10.83,37.39a15.67,15.67,0,0,0,9,6.89,15.35,15.35,0,0,0,11.56-1.51c3.2-2.07,6-5.14,6.89-9A15.54,15.54,0,0,0,313,425.71a46,46,0,0,1-2.91-5.73l1.51,3.58c-3.07-7.3-4.67-15.15-5.73-23l.54,4c-2.13-16-1.93-32.16-1.87-48.26q.12-32.73,0-65.48,0-18.42,0-36.84a15.48,15.48,0,0,0-4.4-10.61A15.23,15.23,0,0,0,289.6,239c-3.88.17-7.9,1.45-10.61,4.39A15.61,15.61,0,0,0,274.6,254Z"/><path class="cls-1" d="M416.63,45.72c-4.82,29.61-4.68,59.42-2.4,89.26,2.22,29,6,57.76,8.42,86.7,1.24,14.71,2.07,29.44,2.17,44.21s-.34,29.42-.41,44.13c-.07,14.12.53,28.17,1.48,42.26.91,13.72,2,27.47,4.55,41a126.93,126.93,0,0,0,4.64,18c2.6,7.56,5.55,15.33,11.24,21.15A37.89,37.89,0,0,0,466,442.94a41.3,41.3,0,0,0,15.67.08c3.76-.68,7.37-2.42,10.76-4.11,2.66-1.33,5.23-2.82,8-4l-3.58,1.51c6.72-2.74,13.77-4.25,20.26-7.63,7-3.63,9.63-13.94,5.39-20.52A15.34,15.34,0,0,0,502,402.9c-1,.5-2,1-3,1.39l3.58-1.51c-4.28,1.73-8.79,2.79-13.09,4.48-5,2-9.57,4.68-14.48,6.83l3.58-1.51a23.36,23.36,0,0,1-6,1.69l4-.53a24.14,24.14,0,0,1-5.44-.09l4,.53a28.27,28.27,0,0,1-6.94-1.92l3.58,1.51a25.36,25.36,0,0,1-5.22-3.07l3,2.35a22.33,22.33,0,0,1-3.47-3.47l2.34,3a31.22,31.22,0,0,1-3.57-6.7l1.51,3.58c-4.51-10.68-6.93-22.07-8.5-33.52l.54,4c-1.25-9.3-1.93-18.65-2.55-28-.69-10.21-1.3-20.4-1.43-30.63-.27-21.75.8-43.5.22-65.24-1.14-42.76-8.05-85.11-10.91-127.75C442.16,104.58,441.9,80.65,445,57l-.54,4q.5-3.66,1.09-7.29c.66-4.11.66-7.84-1.52-11.56a15.28,15.28,0,0,0-9-6.89c-3.84-.88-8.15-.69-11.56,1.51-3.08,2-6.28,5.19-6.89,9Z"/><path class="cls-1" d="M375.22,203.22c17,0,34,.52,51,.42s34.13-1.33,51.2-2.2c9.62-.49,19.25-.83,28.89-.84a13.91,13.91,0,0,0,9.54-3.95,13.5,13.5,0,0,0,0-19.1,14,14,0,0,0-9.54-4c-17,0-34,1.12-51,2.08s-34.16,1-51.26.83c-9.61-.12-19.21-.29-28.82-.29a13.9,13.9,0,0,0-9.54,4,13.48,13.48,0,0,0,0,19.09,14,14,0,0,0,9.54,3.95Z"/><path class="cls-1" d="M629.5,49.44c-5.1,32.41-6.79,65.14-6.49,97.93.3,32,2.3,63.89,2.91,95.85q.47,24.16.44,48.34c0,15.75-.15,31.52.42,47.27A365.09,365.09,0,0,0,631.83,389a92.37,92.37,0,0,0,5,19.17,83,83,0,0,0,5.23,11,85.08,85.08,0,0,0,7,9.87,65.89,65.89,0,0,0,15.7,13.85,66.65,66.65,0,0,0,11.07,5.48,23.62,23.62,0,0,0,10.49,1.83,24.19,24.19,0,0,0,14.84-6.55c2.85-2.54,5.1-5.87,7.27-9A70.72,70.72,0,0,0,717.17,416a50.86,50.86,0,0,0,2.11-11.22c.31-3.64-1.9-8.11-4.4-10.61a15.23,15.23,0,0,0-10.6-4.39c-3.88.17-7.91,1.45-10.61,4.39a16.79,16.79,0,0,0-4.39,10.61c0,.43-.09.87-.14,1.3l.53-4a47.83,47.83,0,0,1-3.41,11.26l1.51-3.58a56.45,56.45,0,0,1-7.21,12.48l2.35-3A22.62,22.62,0,0,1,679.4,423l3-2.34a10.23,10.23,0,0,1-1.9,1.15l3.58-1.51a8.41,8.41,0,0,1-1.7.47l4-.53a10.32,10.32,0,0,1-2.29,0l4,.54a19.37,19.37,0,0,1-4.22-1.27l3.58,1.51a52.13,52.13,0,0,1-11.11-6.54l3,2.34a55.94,55.94,0,0,1-9.71-9.8l2.34,3a62.12,62.12,0,0,1-7.74-13.4l1.52,3.58c-3.93-9.53-5.35-20-6.73-30.15l.54,4c-2.65-20-3.19-40.1-3.26-60.21-.07-20.26,0-40.51-.25-60.77q-.47-30.93-1.82-61.85c-.87-20-1.46-40.09-1.25-60.15A552.88,552.88,0,0,1,657.57,63L657,67c.44-3.18.9-6.36,1.4-9.54.65-4.12.68-7.82-1.51-11.55a15.29,15.29,0,0,0-9-6.9c-3.84-.87-8.15-.68-11.56,1.51-3.07,2-6.3,5.2-6.9,9Z"/><path class="cls-1" d="M594.23,200.52h86.53a13.94,13.94,0,0,0,9.55-4,13.71,13.71,0,0,0,4-9.54c-.16-3.49-1.3-7.12-4-9.55a14,14,0,0,0-9.55-3.95H594.23a13.93,13.93,0,0,0-9.55,3.95,13.72,13.72,0,0,0-3.95,9.55c.16,3.49,1.3,7.11,3.95,9.54a14,14,0,0,0,9.55,4Z"/><path class="cls-1" d="M811.78,291c20.32.17,40-7.87,56.37-19.52a105.39,105.39,0,0,0,11.59-9.36,89.89,89.89,0,0,0,9.39-10.85c5-6.64,8.59-14.08,11.58-21.84A131.81,131.81,0,0,0,907,206.86a35.11,35.11,0,0,0,.91-9.64,26.7,26.7,0,0,0-1.06-6.33,23.66,23.66,0,0,0-10.7-13.56,35.28,35.28,0,0,0-7.36-3.09,60,60,0,0,0-13.45-2.12,43.51,43.51,0,0,0-8.15.12,63.8,63.8,0,0,0-14.85,3.15,56.82,56.82,0,0,0-12.7,6.32A66,66,0,0,0,828.79,191a99.34,99.34,0,0,0-9.18,11.84,162.34,162.34,0,0,0-14,25.73c-4.47,10.26-8.16,20.82-11.83,31.38-3.33,9.61-6.48,19.29-9,29.14-5.17,20-6,40.76-6.66,61.3a143.1,143.1,0,0,0,.06,14.35,69.76,69.76,0,0,0,3,17.45c3.4,10.14,9.32,18.94,16.38,26.9a87.56,87.56,0,0,0,9.2,9,102.72,102.72,0,0,0,12.79,9.39c8.72,5.28,18.48,8.09,28.39,10,9.48,1.88,18.9,4,28.5,5.2a48.44,48.44,0,0,0,28.53-4.84,40.71,40.71,0,0,0,11.87-9.66,16.64,16.64,0,0,0,4.39-10.6A15.26,15.26,0,0,0,916.79,407c-2.86-2.62-6.61-4.57-10.61-4.39-3.78.17-8.07,1.38-10.61,4.39a33.65,33.65,0,0,1-4.87,4.75l3-2.34a27.92,27.92,0,0,1-5.84,3.46l3.59-1.52a29.48,29.48,0,0,1-7.55,2l4-.53a49.76,49.76,0,0,1-12.61-.27l4,.53c-6.57-.9-13-2.49-19.54-3.76-7.34-1.42-14.75-2.81-21.69-5.69l3.59,1.51a64,64,0,0,1-14.12-8.51l3,2.35a88.25,88.25,0,0,1-15.47-15.49l2.34,3a60.94,60.94,0,0,1-7.83-13.09l1.51,3.58A46.89,46.89,0,0,1,808,365.15l.53,4c-1.2-9.36-.52-18.9-.2-28.3.34-9.76,1-19.53,2.25-29.21l-.53,4c2.72-20.05,9.48-39.21,16.28-58.17,1.89-5.26,3.74-10.53,5.9-15.68l-1.51,3.58c4.75-11.22,10.62-22.31,18.06-32l-2.34,3a55.89,55.89,0,0,1,9.6-9.84l-3,2.35a42.9,42.9,0,0,1,9.43-5.52l-3.58,1.51a47.86,47.86,0,0,1,11.71-3.1l-4,.53a47.62,47.62,0,0,1,12.45.19l-4-.54a32.22,32.22,0,0,1,7.87,2l-3.58-1.52a13.29,13.29,0,0,1,2.84,1.62l-3-2.34a7.65,7.65,0,0,1,1.24,1.24l-2.34-3a10.83,10.83,0,0,1,1.16,2l-1.51-3.58a12,12,0,0,1,.67,2.5l-.53-4a17.84,17.84,0,0,1-.08,4.5l.53-4a120.31,120.31,0,0,1-3.21,13.91A102.43,102.43,0,0,1,870.75,224l1.52-3.58a72.23,72.23,0,0,1-9.15,15.84l2.35-3a72.13,72.13,0,0,1-12.79,12.69l3-2.34a108,108,0,0,1-23.43,13.69l3.59-1.51a74.35,74.35,0,0,1-18.72,5.22l4-.53a68.22,68.22,0,0,1-9.37.56,15,15,0,0,0-15,15c.18,3.88,1.45,7.91,4.4,10.61a15.65,15.65,0,0,0,10.6,4.39Z"/><path class="cls-1" d="M1000.74,228.17a30.69,30.69,0,0,1,1.2-3.62l-1.51,3.58a14.86,14.86,0,0,1,1.87-3.29l-2.35,3a9,9,0,0,1,1.3-1.32l-3,2.34a7.64,7.64,0,0,1,1.4-.84L996,229.58a6.4,6.4,0,0,1,1.48-.42l-4,.54a7.56,7.56,0,0,1,2,0l-4-.53a12.85,12.85,0,0,1,3.09.89L991,228.55a53.37,53.37,0,0,1,8.81,5.33c1.33.91,2.68,1.81,4.09,2.6a85.16,85.16,0,0,0,8.44,3.64l-3.58-1.51a89.84,89.84,0,0,1,19.51,11.48l-3-2.34a98.65,98.65,0,0,1,17.45,17.44l-2.35-3a98,98,0,0,1,12.69,21.63l-1.51-3.58a91.4,91.4,0,0,1,6.33,23.07l-.54-4c1,7.77,1.36,15.66,1.73,23.48.4,8.34.63,16.69.81,25,.37,16.36,1.19,32.77.56,49.12a117.75,117.75,0,0,0-.22,12.74c.29,4,.8,8.13.26,12.18l.54-4c-.1.64-.23,1.27-.39,1.9l27.42-3.58a31,31,0,0,1-1.38-2.84l1.51,3.59a52.86,52.86,0,0,1-3.29-13.11l.54,4c-1.65-12.36-1-24.9-1.82-37.32-1.09-16.35-2.17-32.73-1.89-49.12a237.86,237.86,0,0,1,2-27.58l-.54,4a556.93,556.93,0,0,1,15.16-72.61,126.55,126.55,0,0,1,5-15.81l-1.51,3.58a32.6,32.6,0,0,1,3.86-6.89l-2.35,3a19.25,19.25,0,0,1,3.39-3.42l-3,2.34a16.56,16.56,0,0,1,3.21-1.86l-3.58,1.51a17.35,17.35,0,0,1,4.08-1.11l-4,.54a23.54,23.54,0,0,1,5.93,0l-4-.53c8.67,1.17,16.85,4.44,25,7.37a128.37,128.37,0,0,0,12.59,3.94c4,1,8,1.71,12,2.7,4.34,1.07,8.58,2.51,12.92,3.57a37.24,37.24,0,0,0,7.71,1.1,38.65,38.65,0,0,0,8-.9c6.56-1.22,13-3.5,19.39-5.35a15.61,15.61,0,0,0,9-6.89,15.32,15.32,0,0,0,1.51-11.56c-1.17-3.63-3.42-7.13-6.89-9a15.5,15.5,0,0,0-11.56-1.51c-4.44,1.29-8.86,2.62-13.32,3.86a55.68,55.68,0,0,1-7.44,1.71l4-.54a16,16,0,0,1-4.09,0l4,.53a40,40,0,0,1-5.92-1.46c-3.43-1-6.86-2-10.34-2.82-5.55-1.35-11.16-2.32-16.62-4s-11-3.91-16.59-5.8a90.67,90.67,0,0,0-20.06-4.53,35.67,35.67,0,0,0-9.93.7,27.92,27.92,0,0,0-8.37,3.21,38.52,38.52,0,0,0-4.8,3.5,19.55,19.55,0,0,0-2,1.77,40.05,40.05,0,0,0-5.48,7.27,68.91,68.91,0,0,0-6,14.5c-3.54,11.47-6.4,23.21-9.1,34.9-2.83,12.2-5.26,24.49-7.2,36.87a301.53,301.53,0,0,0-3.94,41.11c-.24,12.79.36,25.58,1.15,38.34.35,5.76.85,11.51,1.09,17.28.2,4.62.21,9.24.32,13.86.11,5,.29,9.93.82,14.87.62,5.78,1.34,11.71,3.22,17.24a53.92,53.92,0,0,0,3.82,8.87l2.34,3,3,2.35,3.58,1.51a11.37,11.37,0,0,0,6,.27,7.54,7.54,0,0,0,3.79-1,7.44,7.44,0,0,0,3.31-1.92,14.52,14.52,0,0,0,5.37-7.8,45.19,45.19,0,0,0,.94-14.43,88.85,88.85,0,0,1-.29-11.3q.69-12.88.33-25.79c-.52-17.32-.62-34.66-1.4-52-.73-16.1-1.42-32.57-7-47.85a111.51,111.51,0,0,0-41.12-54,88.18,88.18,0,0,0-16.43-9.38c-2.38-1-4.78-2-7.18-3l3.58,1.51c-4.38-1.87-8-5.18-12.12-7.53a48.79,48.79,0,0,0-6.47-2.93,20.18,20.18,0,0,0-4.88-1.08,20.5,20.5,0,0,0-8.51.37,22.73,22.73,0,0,0-4.68,1.9,23.48,23.48,0,0,0-4.26,3.1,12.46,12.46,0,0,0-1.3,1.32,31.34,31.34,0,0,0-3.39,4.62,39.51,39.51,0,0,0-3.54,8.92,15.59,15.59,0,0,0,1.51,11.56,15.27,15.27,0,0,0,9,6.89c3.84.87,8.15.69,11.55-1.51a15.61,15.61,0,0,0,6.9-9Z"/><circle class="cls-2" cx="289.95" cy="169.58" r="11.79"/></svg>