<svg id="Layer_1" data-name="Layer 1" xmlns="http://www.w3.org/2000/svg" viewBox="0 0 1247 500"><defs><style>.cls-1{fill:#2aa4ef;}</style></defs><title>bitter</title><path class="cls-1" d="M23.25,15c0,30.85.69,61.7,1.79,92.53s2.61,61.64,4.24,92.44,1.95,61.69,1.86,92.61c0,15.3.26,30.62-.19,45.91-.22,7.54-.66,15.07-1.5,22.57-.74,6.55-2.39,14-3.64,21.22-2.56,14.83-2.4,29.7-2.59,44.69-.07,6-.27,12.06.19,18.08.4,5.33.95,11,2.85,16a22.26,22.26,0,0,0,4.43,7.62,7.58,7.58,0,0,0,10.61,0,7.66,7.66,0,0,0,0-10.61c-.84-.89.77,1.36.14.22-.22-.4-.45-.8-.68-1.19-.62-1.06.47,1.48-.12-.28-.21-.6-.41-1.19-.59-1.8-.31-1.1-.57-2.22-.79-3.35-.12-.58-.22-1.16-.32-1.74,0-.29-.08-.59-.14-.88-.22-1.09.14,1.33,0,.23a137.33,137.33,0,0,1-.7-15.84c.16-14.43-.32-29,1.54-43.34-.11.84.16-1.08.2-1.33.12-.84.26-1.68.4-2.52.32-1.84.7-3.68,1.08-5.52q1.17-5.57,2-11.21,1.71-11.76,2.31-23.64c.76-14.94.44-29.9.47-44.85,0-30.59.28-61.17-1.35-91.73s-3.18-61-4.36-91.56c-1.17-30.38-2-60.77-2.14-91.16q0-5.81,0-11.59c0-3.92-3.45-7.68-7.5-7.5a7.63,7.63,0,0,0-7.5,7.5Z"/><path class="cls-1" d="M34.4,456.52c7.24,0,14.47.37,21.71.17a97.26,97.26,0,0,0,22.14-2.95,114.12,114.12,0,0,0,35.7-17c10.16-7,19.78-15.22,27.48-24.94a120.52,120.52,0,0,0,17.83-31.18c8.24-21,10.72-44.38,8.43-66.73-1.21-11.75-3.37-23.55-7.59-34.61a128.16,128.16,0,0,0-8.9-18.85,87.34,87.34,0,0,0-11.6-16.12,33.83,33.83,0,0,0-14.25-9c-4.59-1.5-9.51-2.1-14.27-2.84a88.65,88.65,0,0,0-22.31-.7c-4,.38-8,.95-12,1.73a51.81,51.81,0,0,0-10.36,3.36c-2.92,1.24-5.77,2.63-8.7,3.87l1.8-.76a35.13,35.13,0,0,1-8.32,2.49l2-.27-.39.05a8.24,8.24,0,0,0-5.31,2.2,7.51,7.51,0,0,0,0,10.6c1.36,1.25,3.38,2.44,5.31,2.2a40,40,0,0,0,10.7-2.81c3.53-1.47,7-3.13,10.49-4.62l-1.79.76a59.21,59.21,0,0,1,14.92-3.65l-2,.27a86.74,86.74,0,0,1,22.65-.19l-2-.27c3.34.47,6.68,1,10,1.66a38.84,38.84,0,0,1,7.79,2.18l-1.79-.76a24.32,24.32,0,0,1,3.57,1.88c.63.41,2.56,2.06.47.25.58.5,1.18,1,1.74,1.5a37.81,37.81,0,0,1,3.54,3.84c.3.36.58.72.87,1.08l-.56-.73.48.64q.85,1.16,1.68,2.31a112.79,112.79,0,0,1,11.47,21l-.76-1.8a124.65,124.65,0,0,1,8.18,31.39l-.27-2a149.58,149.58,0,0,1,.07,39.6l.27-2a129.46,129.46,0,0,1-8.77,32.63l.75-1.79a112.1,112.1,0,0,1-7.28,14.33c-1.38,2.29-2.86,4.54-4.42,6.72-.71,1-1.44,2-2.18,2.95,1.56-2.06.2-.27-.19.21s-1,1.24-1.52,1.85a109.92,109.92,0,0,1-11.75,11.79q-1.75,1.53-3.55,3l-1.66,1.33-.67.53q-.91.72.51-.39l-.68.52c-2.5,1.89-5.06,3.71-7.69,5.43a116.89,116.89,0,0,1-18.48,9.92l1.8-.76a87.45,87.45,0,0,1-22,6.16l2-.27c-10.7,1.38-21.5.63-32.25.61-3.92,0-7.68,3.46-7.5,7.5a7.63,7.63,0,0,0,7.5,7.5Z"/><path class="cls-1" d="M282.1,254c0,27.72.07,55.43,0,83.15,0,11.68-.15,23.37-.06,35.05a263.36,263.36,0,0,0,1.74,31.27c1.47,11.55,3.72,23.48,9.81,33.6,2,3.36,6.83,4.91,10.26,2.69a7.62,7.62,0,0,0,2.69-10.26,46.82,46.82,0,0,1-2.91-5.74l.76,1.79c-3.08-7.3-4.67-15.14-5.73-23l.27,2c-2.13-16-1.93-32.16-1.87-48.26q.12-32.73,0-65.48,0-18.42,0-36.84c0-3.93-3.45-7.68-7.5-7.5a7.62,7.62,0,0,0-7.5,7.5Z"/><path class="cls-1" d="M423.86,47.72c-4.92,30.25-4.29,60.86-1.81,91.31s6.51,60.51,8.75,90.85q1.69,22.89,1.52,45.82c-.1,15.33-.58,30.67-.38,46,.19,14.14,1.15,28.29,2.31,42.39,1.11,13.55,2.69,27.26,6.52,40.35.92,3.14,2,6.25,3.19,9.29s2.48,6.54,4.41,9.35a31,31,0,0,0,38,10.43c2.8-1.22,5.44-2.78,8.19-4.12.41-.2,2.21-.93.92-.45.82-.3,1.64-.62,2.47-.91,1.66-.57,3.35-1.07,5-1.6a64.61,64.61,0,0,0,10.36-4.12A7.56,7.56,0,0,0,516,412.06a7.67,7.67,0,0,0-10.26-2.69c-.69.36-1.38.68-2.08,1-1,.49,1.06-.35,0,0-.31.1-.62.23-.93.35-1.65.6-3.32,1.11-5,1.64a76.62,76.62,0,0,0-10.46,3.94c-2.59,1.24-5.14,2.6-7.7,3.92-.95.48,1.24-.45.24-.1l-.79.3a22.67,22.67,0,0,1-2.17.66c-.27.07-.56.13-.84.18s-1.48.14-.46.09,0,0-.2,0c-.53,0-1.06,0-1.59,0a6.07,6.07,0,0,1-2.09-.15c.14.06,1.78.32.35,0l-.82-.16a32,32,0,0,1-4.26-1.27c-.82-.29.53.19.52.22s-.88-.42-1-.49c-.57-.29-1.14-.61-1.68-1a8,8,0,0,1-1.6-1.08c.14.14,1.24,1.07.24.14-.26-.25-.54-.48-.8-.74-.1-.09-1.51-1.58-1.48-1.6s.79,1.17.34.43c-.19-.31-.41-.6-.61-.91a38.64,38.64,0,0,1-2-4c-.13-.28-.57-1.32,0,.06l-.36-.87c-.27-.69-.54-1.37-.8-2.06-.6-1.58-1.15-3.18-1.67-4.79a134.27,134.27,0,0,1-4.39-18.46c-.28-1.61-.53-3.22-.76-4.83-.05-.32-.09-.65-.14-1-.17-1.16.15,1.22,0,.06l-.33-2.6q-.57-4.84-1-9.72c-1.18-13.44-2.13-27-2.44-40.45-.66-29.77,1.14-59.49-.73-89.25-1.86-29.54-5.71-58.91-8.41-88.38-2.65-29-4.25-58.24-.91-87.22.11-1,.23-2,.35-2.92,0-.05.16-1.25.06-.46s.09-.64.11-.83q.39-2.74.83-5.47c.63-3.85-1-8.26-5.24-9.22-3.6-.82-8.55,1.1-9.22,5.24Z"/><path class="cls-1" d="M375.22,197.22c17,0,34,.52,51,.42s34.13-1.33,51.2-2.2c9.62-.49,19.25-.83,28.89-.84,3.92,0,7.68-3.45,7.5-7.5a7.63,7.63,0,0,0-7.5-7.5c-17,0-34,1.12-51,2.08s-34.16,1-51.26.83c-9.61-.12-19.21-.29-28.82-.29-3.92,0-7.68,3.45-7.5,7.5a7.63,7.63,0,0,0,7.5,7.5Z"/><path class="cls-1" d="M636.74,51.43c-5,31.74-6.53,63.84-6.23,95.94s2.3,63.89,2.91,95.85q.47,24.16.44,48.34c0,15.75-.15,31.52.42,47.27A348.86,348.86,0,0,0,639.07,387c1.15,6.55,2.48,13,5,19.17a70.71,70.71,0,0,0,10.35,17.58,59.33,59.33,0,0,0,14.18,12.68c5.06,3.26,11.56,6.83,17.77,6.29,7.28-.64,11.73-6.22,15.63-11.83A63.57,63.57,0,0,0,709.94,414a41.87,41.87,0,0,0,1.84-9.22c.33-3.92-3.69-7.67-7.5-7.5-4.35.19-7.15,3.3-7.5,7.5-.17,2,.24-1,0,.22-.12.56-.22,1.13-.35,1.69-.33,1.39-.74,2.76-1.19,4.12a16,16,0,0,1-1.5,4c.11-.15.66-1.5.07-.2-.11.26-.23.52-.35.78-.35.77-.71,1.53-1.09,2.28a46.21,46.21,0,0,1-3.9,6.48l-.72,1c-.31.42-.46,1.06.15-.19a7.35,7.35,0,0,1-1.14,1.36c-.36.39-.72.78-1.1,1.14a5.49,5.49,0,0,0-.63.56c.65-1.09,1.2-.78.42-.36-1.61.86.15-.18.34,0,0,0-.55.21-.67.21-1.23,0,1,0,.93-.09a4.23,4.23,0,0,0-1.33,0c-.89.08,1.67.39.76.09-.35-.12-.74-.17-1.11-.27-.57-.16-1.12-.39-1.69-.58-1-.31,1.16.56.21.1-.34-.17-.69-.31-1-.48-1.36-.64-2.69-1.35-4-2.11-1.13-.67-2.22-1.37-3.29-2.12-.3-.21-.61-.43-.9-.65s-1.16-.89-.35-.25,0,0-.12-.1l-1.06-.89a55,55,0,0,1-6-6.07c-.24-.29-1.41-1.35-1.4-1.72,0,0,.84,1.14.33.42-.21-.3-.43-.59-.65-.89-.86-1.2-1.67-2.44-2.44-3.7-.37-.6-4-7.61-3.93-7.64s.53,1.33.23.51c-.13-.35-.27-.69-.41-1q-.35-.92-.66-1.83c-.48-1.4-.92-2.82-1.3-4.25-.9-3.35-1.52-6.78-2.14-10.19-.69-3.77-1.28-7.55-1.8-11.35.18,1.35-.12-.93-.16-1.3-.11-.85-.21-1.7-.31-2.56-.23-1.95-.43-3.9-.62-5.86-.74-7.56-1.21-15.14-1.5-22.73-.6-15.12-.51-30.26-.49-45.39q0-23.2-.33-46.4c-.52-30.76-2.31-61.47-2.88-92.21-.57-30.42.21-60.93,4.14-91.12,0-.37.09-.73.14-1.1.17-1.26-.15,1,0-.21.13-.86.24-1.72.36-2.57.29-2,.58-3.92.89-5.87.61-3.86-1-8.26-5.24-9.23-3.59-.81-8.57,1.1-9.22,5.24Z"/><path class="cls-1" d="M594.23,194.52h86.53c3.92,0,7.68-3.45,7.5-7.5a7.62,7.62,0,0,0-7.5-7.5H594.23c-3.92,0-7.68,3.45-7.5,7.5a7.63,7.63,0,0,0,7.5,7.5Z"/><path class="cls-1" d="M811.78,283.46c19.05.16,37.26-7.59,52.59-18.5a83.28,83.28,0,0,0,18.28-17.52,80.58,80.58,0,0,0,10.83-20,132.32,132.32,0,0,0,6.27-22.53c1-5.49,1.19-11.57-2.27-16.32-2.67-3.68-6.4-5.76-10.7-7.08a51.72,51.72,0,0,0-11.46-1.85,43.51,43.51,0,0,0-8.15.12c-8.46,1-16.71,3.51-23.76,8.45s-12.55,11.29-17.32,18.4A162.29,162.29,0,0,0,812,232.31c-4.2,9.66-7.62,19.65-11.07,29.6-3.33,9.6-6.48,19.29-9,29.14-5,19.35-5.75,39.42-6.39,59.3-.32,9.92-.4,20.29,2.8,29.81,3,8.84,8.3,16.65,14.45,23.58a89.6,89.6,0,0,0,20.48,17.2c8.18,4.94,17.3,7.45,26.59,9.29,8.81,1.75,17.59,3.85,26.51,4.93,8.46,1,17.11.2,24.75-3.82a35.27,35.27,0,0,0,10.34-8.48,8,8,0,0,0,2.2-5.3,7.66,7.66,0,0,0-2.2-5.31c-2.78-2.55-7.9-3.2-10.6,0a34.54,34.54,0,0,1-2.4,2.59c-.42.41-.85.81-1.3,1.2-.19.17-.39.33-.59.49-.94.81,1.21-.87.48-.36a29,29,0,0,1-5.39,3.12l1.79-.75a30.24,30.24,0,0,1-7.54,2l2-.27a49.76,49.76,0,0,1-12.61-.27l2,.27c-6.58-.9-13-2.5-19.55-3.76-7.34-1.43-14.74-2.82-21.68-5.7l1.79.76a57.07,57.07,0,0,1-8.91-4.8q-2.1-1.37-4.11-2.88c-.24-.17-1.37-1-.34-.25s-.1-.09-.34-.28c-.73-.58-1.45-1.18-2.16-1.79a87.79,87.79,0,0,1-7.77-7.54q-1.79-1.95-3.45-4a11.16,11.16,0,0,1-.75-.95c-.06-.1,1,1.37.56.72l-.36-.48c-.55-.75-1.09-1.5-1.62-2.26a57.45,57.45,0,0,1-5.49-9.88l.76,1.79a47.37,47.37,0,0,1-3.1-11.82l.27,2c-1.2-9.36-.52-18.9-.2-28.3.34-9.76,1-19.53,2.25-29.21l-.26,2c2.72-20,9.48-39.2,16.28-58.16,1.89-5.26,3.73-10.53,5.9-15.68l-.76,1.79A165.5,165.5,0,0,1,837,217.22c1.14-1.79,2.31-3.57,3.55-5.3.5-.7,1-1.38,1.53-2.07-1.49,2-.42.53-.06.09l.9-1.1a56.84,56.84,0,0,1,7.28-7.19c.4-.32,1.11-.77-.73.56l.53-.4c.4-.29.8-.58,1.21-.86.77-.53,1.56-1,2.36-1.51a41.44,41.44,0,0,1,5.07-2.55l-1.8.76a48,48,0,0,1,11.71-3.1l-2,.26a47.62,47.62,0,0,1,12.45.19l-2-.27a31.79,31.79,0,0,1,7.86,2l-1.79-.75a15.65,15.65,0,0,1,1.43.69c.38.21,2,1.35.66.34s0,.12.29.41.1.1-.74-.94c.11.16.22.32.32.49a11,11,0,0,1,.6,1.19l-.75-1.79a11.49,11.49,0,0,1,.67,2.51l-.26-2a17.84,17.84,0,0,1-.08,4.5l.27-2a121.31,121.31,0,0,1-3.22,13.91A102.81,102.81,0,0,1,878,226l.75-1.79a75,75,0,0,1-5.1,10c-.95,1.55-2,3.06-3,4.53-.26.36-.54.71-.8,1.07,1.49-2,.53-.69.14-.2-.63.78-1.28,1.55-1.94,2.31a70.94,70.94,0,0,1-8.3,8l-1.14.91c-.38.31-1.11.79.65-.49-.2.14-.4.3-.59.45-.86.64-1.72,1.26-2.6,1.88-1.87,1.3-3.79,2.53-5.73,3.72a109,109,0,0,1-14.21,7.42l1.79-.76a74.23,74.23,0,0,1-18.72,5.22l2-.26a68.22,68.22,0,0,1-9.37.56c-3.92,0-7.68,3.48-7.5,7.5a7.64,7.64,0,0,0,7.5,7.5Z"/><path class="cls-1" d="M993.5,226.18a30.74,30.74,0,0,1,1.21-3.62l-.76,1.79a17.84,17.84,0,0,1,1-2c.14-.24.29-.48.44-.71.86-1.26-.89,1-.47.61.19-.19.38-.4.56-.6.45-.49,1.33-.72-.85.61a11.54,11.54,0,0,1,1.23-.71l-1.79.75a6.84,6.84,0,0,1,1.49-.41l-2,.27a7.56,7.56,0,0,1,2,0l-2-.26a12.93,12.93,0,0,1,3.1.89l-1.79-.76a53.7,53.7,0,0,1,8.8,5.33c1.34.91,2.68,1.81,4.09,2.6a67.46,67.46,0,0,0,6.65,2.89l-1.79-.76a87,87,0,0,1,12.18,6.37c1.92,1.2,3.79,2.48,5.62,3.82.47.35,1,.69,1.43,1.08,0,0-1.56-1.23-.66-.52l.56.45c.94.75,1.87,1.52,2.78,2.3a97.91,97.91,0,0,1,10,10c.72.83,1.43,1.67,2.12,2.52.38.47.81.94,1.15,1.44,0,0-1.2-1.57-.5-.64l.66.88q2.1,2.81,4,5.75a97.24,97.24,0,0,1,7.6,14.42l-.76-1.8a91.17,91.17,0,0,1,6.33,23.08l-.27-2c1,7.77,1.36,15.66,1.73,23.48.4,8.34.63,16.69.81,25,.37,16.36,1.19,32.77.56,49.12a117.75,117.75,0,0,0-.22,12.74c.29,4,.8,8.13.26,12.18l.27-2c-.1.64-.23,1.27-.38,1.9l13.7-1.79c-.51-.92-1-1.86-1.38-2.83l.76,1.79a52.42,52.42,0,0,1-3.29-13.11l.27,2c-1.65-12.36-1-24.9-1.82-37.32-1.09-16.35-2.17-32.73-1.89-49.12a237.86,237.86,0,0,1,2-27.58l-.27,2a558.36,558.36,0,0,1,15.15-72.62,125.93,125.93,0,0,1,5-15.8l-.76,1.79a38.23,38.23,0,0,1,1.85-3.81c.33-.58.67-1.16,1-1.72l.64-.92c.7-1-1.35,1.63-.41.54a25.31,25.31,0,0,1,2.64-2.64c.5-.43-1.83,1.33-.56.47.25-.18.51-.34.78-.5a16.56,16.56,0,0,1,1.78-.91l-1.79.76a17.09,17.09,0,0,1,4.09-1.11l-2,.27a23.54,23.54,0,0,1,5.93,0l-2-.27c8.66,1.18,16.85,4.45,25,7.37a129.1,129.1,0,0,0,12.58,3.95c4,1,8,1.7,12,2.69,4.33,1.08,8.57,2.52,12.91,3.58a26.59,26.59,0,0,0,11.74.19c6.57-1.21,13-3.49,19.39-5.34,3.77-1.09,6.5-5.34,5.24-9.23a7.64,7.64,0,0,0-9.23-5.24c-4.43,1.29-8.86,2.62-13.31,3.86a56,56,0,0,1-7.44,1.71l2-.27a16,16,0,0,1-4.09,0l2,.26a39.19,39.19,0,0,1-5.93-1.46c-3.42-1-6.86-2-10.33-2.82-5.55-1.34-11.16-2.32-16.62-4s-11-3.92-16.6-5.81c-10.24-3.49-22.45-7-32.58-1.37-8.25,4.62-12.17,14-14.82,22.56-3.54,11.47-6.41,23.21-9.11,34.9-2.82,12.2-5.26,24.49-7.2,36.86a286.69,286.69,0,0,0-3.67,39.12c-.24,12.79.36,25.58,1.15,38.34.35,5.76.85,11.51,1.09,17.28.2,4.62.21,9.24.32,13.86.11,5,.29,9.93.82,14.87a70.56,70.56,0,0,0,3,15.25,43,43,0,0,0,3.06,7.07c3.09,5.6,12.15,4.42,13.71-1.79a38.79,38.79,0,0,0,.67-12.44,88.85,88.85,0,0,1-.29-11.3q.69-12.88.33-25.79c-.52-17.32-.62-34.66-1.4-52-.7-15.48-1.37-31.17-6.75-45.85a106.3,106.3,0,0,0-22.07-35.94,97.4,97.4,0,0,0-32-23c-1.78-.78-3.59-1.49-5.39-2.23l1.8.76c-4.38-1.87-8-5.18-12.13-7.53a23.81,23.81,0,0,0-8.56-3.12,13.85,13.85,0,0,0-11.15,3.31c-3.37,2.87-5.17,7.38-6.3,11.54-1,3.79,1.28,8.33,5.24,9.23a7.63,7.63,0,0,0,9.22-5.24Z"/><circle class="cls-1" cx="289.95" cy="169.58" r="11.79"/></svg>