<svg id="Layer_1" data-name="Layer 1" xmlns="http://www.w3.org/2000/svg" viewBox="0 0 2211 500"><defs><style>.cls-1{fill:#2aa4ef;}</style></defs><title>upload</title><path class="cls-1" d="M472.73,192.36c-1.24,28.45-.36,56.9,1.06,85.32,1.39,27.73,3.11,55.46,3.21,83.23q0,12.09-.34,24.19a192.49,192.49,0,0,1-1.27,19.64L476,400a56.21,56.21,0,0,1-3.66,14l1.81-4.3a38.5,38.5,0,0,1-4.68,8l2.82-3.64a38.06,38.06,0,0,1-6.22,6.21l3.64-2.81a46.47,46.47,0,0,1-10.14,5.84l4.3-1.82a74.73,74.73,0,0,1-18.2,4.68l4.78-.65c-17.55,2.34-35.18.46-52.76-.29-18.51-.78-37-.72-55.55-.38-38.26.69-76.52,2.68-114.79,2.14-20.19-.28-40.52-1.15-60.55-3.78l4.78.64c-11.33-1.53-22.67-3.8-33.27-8.2l4.3,1.82A66.87,66.87,0,0,1,127.92,409l3.65,2.81a52.42,52.42,0,0,1-9.1-9.13l2.81,3.64A53.38,53.38,0,0,1,118.75,395l1.81,4.3a75.06,75.06,0,0,1-4.83-18.63l.64,4.78c-1.87-14.08-1.35-28.49-1.55-42.66q-.31-21.81-.69-43.62-.66-38.89-1.36-77.79-.42-26.58-.77-53.17a18.66,18.66,0,0,0-5.27-12.72c-3.12-3.13-8.25-5.48-12.73-5.28-4.66.21-9.48,1.74-12.73,5.28A18.51,18.51,0,0,0,76,168.16q.56,42.42,1.32,84.84.68,38.28,1.3,76.56c.23,14.69.06,29.43.74,44.1a151.41,151.41,0,0,0,2.47,21.56,83.51,83.51,0,0,0,6.94,20.35c6.58,13.71,18.74,24.91,32.38,31.41,15.39,7.34,31.57,10.44,48.38,12.49,29.73,3.63,59.89,3.83,89.8,3.37,31.33-.48,62.65-1.9,94-2.24,15.15-.16,30.29-.07,45.42.6,14.37.63,28.71,2,43.09,1.09a120.72,120.72,0,0,0,24.37-3.68c7.32-2,14.84-5,21-9.57,7.17-5.32,13.53-11.61,17.44-19.78a69.46,69.46,0,0,0,4.58-11.85,99.45,99.45,0,0,0,2.24-12.94c.85-6.55,1-13.17,1.25-19.76q.39-12.46.31-24.93c-.08-15.95-.67-31.9-1.44-47.83-1.52-31.57-3.62-63.13-3.43-94.76q.08-12.42.61-24.83c.41-9.42-8.57-18.42-18-18a18.39,18.39,0,0,0-18,18Z"/><path class="cls-1" d="M299.55,358V39.08a18.61,18.61,0,0,0-5.27-12.73c-3.12-3.12-8.24-5.47-12.73-5.27-4.65.21-9.48,1.74-12.73,5.27a18.71,18.71,0,0,0-5.27,12.73V358a18.57,18.57,0,0,0,5.27,12.72c3.13,3.13,8.25,5.48,12.73,5.28,4.66-.21,9.48-1.74,12.73-5.28A18.71,18.71,0,0,0,299.55,358Z"/><path class="cls-1" d="M208.05,144.41l64.3-71.28,9-10a58.45,58.45,0,0,1,7.35-7.24l-3.64,2.81a22.56,22.56,0,0,1,4.83-2.85l-4.3,1.82a18.28,18.28,0,0,1,4.11-1.13l-4.79.64a18.65,18.65,0,0,1,4.78,0L285,56.53a21.29,21.29,0,0,1,4.83,1.36l-4.3-1.81a32.31,32.31,0,0,1,7,4.21l-3.64-2.81a97,97,0,0,1,7.6,6.88l9,8.68,17.93,17.35,36,34.87,20.26,19.6a18.66,18.66,0,0,0,12.73,5.27,20.08,20.08,0,0,0,12.73-5.27c3.15-3.43,5.48-7.93,5.27-12.73a18.49,18.49,0,0,0-5.27-12.72L364.39,80l-40.7-39.38c-2.87-2.77-5.67-5.64-8.78-8.13a70.31,70.31,0,0,0-8-5.85,48.76,48.76,0,0,0-8.85-4A37.36,37.36,0,0,0,288.37,21a30.11,30.11,0,0,0-14.45,2.81,38.25,38.25,0,0,0-4.5,2.08,51.7,51.7,0,0,0-7.57,5.67,96.73,96.73,0,0,0-8.09,8.48l-9.54,10.58-18.92,21-38,42.14L182.6,119a18.91,18.91,0,0,0-5.27,12.73,13.45,13.45,0,0,0,1.55,6.93,13.39,13.39,0,0,0,3.72,5.79c3.43,3.15,7.93,5.49,12.73,5.28,4.63-.21,9.52-1.72,12.72-5.28Z"/><path class="cls-1" d="M818.68,206.24a300,300,0,0,0-3.58,43,304.47,304.47,0,0,0,3.19,43.08,277.29,277.29,0,0,0,23.08,78.11,70.09,70.09,0,0,0,12.31,18.73,46,46,0,0,0,10.25,8.12,57.11,57.11,0,0,0,7.53,3.4,24.27,24.27,0,0,0,4.15,1.28A40,40,0,0,0,893,402,32.78,32.78,0,0,0,903,397.9a42.2,42.2,0,0,0,14.71-15.63,73,73,0,0,0,6.64-17.33c1.31-5.23,2.07-10.57,3-15.89q3.46-20.16,8.1-40.12a707.91,707.91,0,0,1,23-78.51q1.68-4.71,3.43-9.39a13.71,13.71,0,0,0,.32-7.18,13.33,13.33,0,0,0-2.14-6.69,20.14,20.14,0,0,0-10.76-8.28c-4.6-1-9.78-.82-13.87,1.82l-3.64,2.81a18.08,18.08,0,0,0-4.63,8q-11.38,30.54-20,62t-14.2,63.63c-1.62,9.26-2.74,18.73-6.4,27.47l1.82-4.3A35.55,35.55,0,0,1,884.1,368l2.82-3.64a23.7,23.7,0,0,1-4,4.07l3.65-2.82a20,20,0,0,1-4.13,2.44l4.3-1.82a19,19,0,0,1-4.51,1.27l4.78-.64a20,20,0,0,1-5.07,0l4.79.64a24.11,24.11,0,0,1-6.07-1.68l4.3,1.81a28.21,28.21,0,0,1-5.85-3.45l3.64,2.81a35,35,0,0,1-6.08-6.2l2.82,3.64c-4.27-5.63-7.13-12.14-9.86-18.61l1.82,4.3a269.14,269.14,0,0,1-16-52.66q-1.5-7.75-2.57-15.6l.65,4.78a271.47,271.47,0,0,1-1.71-55.91c.39-5.25.94-10.5,1.64-15.72l-.64,4.78c.18-1.34.37-2.68.57-4a13.67,13.67,0,0,0,.33-7.17,13.49,13.49,0,0,0-2.14-6.7,20.16,20.16,0,0,0-10.76-8.27c-4.61-1-9.78-.82-13.87,1.82l-3.64,2.81a18,18,0,0,0-4.63,7.94Z"/><path class="cls-1" d="M1033.34,230.43l1,92.33,1,92.34.56,51.9a18.64,18.64,0,0,0,5.27,12.73,20,20,0,0,0,12.73,5.27c4.65-.21,9.48-1.74,12.73-5.27a18.58,18.58,0,0,0,5.27-12.73l-1-92.33-1-92.33-.55-51.91a18.66,18.66,0,0,0-5.27-12.72,20,20,0,0,0-12.73-5.28c-4.66.21-9.49,1.74-12.73,5.28a18.57,18.57,0,0,0-5.27,12.72Z"/><path class="cls-1" d="M1028,224.67a216.15,216.15,0,0,1,55.5.31l-4.78-.64a218.54,218.54,0,0,1,43.3,10.45c4,1.42,8,3,12,4.62l-4.3-1.81c10.66,4.51,21.42,9.62,30.63,16.7l-3.64-2.81a53.63,53.63,0,0,1,9.64,9.46l-2.82-3.64a36.91,36.91,0,0,1,4.63,7.91l-1.81-4.29a32.44,32.44,0,0,1,2.13,7.86l-.64-4.79a35.34,35.34,0,0,1,0,8.9l.64-4.78a44.89,44.89,0,0,1-3.09,11.07l1.82-4.3A64.92,64.92,0,0,1,1158.8,289l2.81-3.64a92.46,92.46,0,0,1-16.32,16.22l3.64-2.82a101.35,101.35,0,0,1-22.22,13l4.3-1.81a103.31,103.31,0,0,1-25.93,7.13l4.79-.65a97.14,97.14,0,0,1-25.72,0l4.79.64c-1.26-.17-2.51-.37-3.76-.59a13.6,13.6,0,0,0-7.18-.32,13.39,13.39,0,0,0-6.69,2.14,20.08,20.08,0,0,0-8.27,10.75c-1,4.61-.82,9.78,1.81,13.87,2.41,3.73,6.22,7.47,10.76,8.28a111.63,111.63,0,0,0,34.07,1.21,131.3,131.3,0,0,0,19.08-3.63,134.43,134.43,0,0,0,17.86-6.74,114.62,114.62,0,0,0,28.23-18.4,93.44,93.44,0,0,0,10.39-10.57,87.63,87.63,0,0,0,11.6-17,81.44,81.44,0,0,0,4.78-11.65,64.57,64.57,0,0,0,2.21-12,34.75,34.75,0,0,0,0-8.09,50.2,50.2,0,0,0-2.35-11.85,57.63,57.63,0,0,0-4.82-10.39,68.13,68.13,0,0,0-7-9.24,80.23,80.23,0,0,0-14.56-12.2c-10.08-6.93-21.49-11.88-32.74-16.54a215.31,215.31,0,0,0-32.75-10.6,249,249,0,0,0-38.59-5.93,214.25,214.25,0,0,0-34.64.13q-4.18.36-8.34.88a17.37,17.37,0,0,0-16.45,11.06,13.49,13.49,0,0,0-1.55,6.94c.2,4.65,1.73,9.48,5.27,12.73l3.64,2.81a17.92,17.92,0,0,0,9.09,2.46Z"/><path class="cls-1" d="M1266.88,87.22l2.6,104.74,2.59,104.21,1.46,58.79a18.82,18.82,0,0,0,5.27,12.73c3.13,3.12,8.25,5.47,12.73,5.27,4.66-.21,9.49-1.74,12.73-5.27a18.37,18.37,0,0,0,5.27-12.73l-2.6-104.75L1304.34,146l-1.46-58.79a18.72,18.72,0,0,0-5.27-12.73c-3.12-3.12-8.24-5.47-12.73-5.27-4.65.21-9.48,1.74-12.73,5.27a18.4,18.4,0,0,0-5.27,12.73Z"/><path class="cls-1" d="M1371.37,252.38a108.9,108.9,0,0,0-8.29,22.95,100,100,0,0,0-2.58,24.37,107.7,107.7,0,0,0,1.51,14.11,66.17,66.17,0,0,0,2.39,9.93,77.55,77.55,0,0,0,23.49,35.56,87.36,87.36,0,0,0,10.49,7.65,82.71,82.71,0,0,0,11.42,5.4,62.94,62.94,0,0,0,21,4.24,69.06,69.06,0,0,0,12.42-1,49.08,49.08,0,0,0,8-1.81,68.71,68.71,0,0,0,18.15-8.71,76.93,76.93,0,0,0,15.5-13.7A80.19,80.19,0,0,0,1496.41,334a74.62,74.62,0,0,0,7.44-41.2,86.31,86.31,0,0,0-4.69-20.76,98.27,98.27,0,0,0-9.65-19.36,109.69,109.69,0,0,0-13.72-16.91,105.88,105.88,0,0,0-37.22-24.07,100.14,100.14,0,0,0-19.78-5.86,124.56,124.56,0,0,0-25.12-2.33,99.12,99.12,0,0,0-10.19.74,20,20,0,0,0-12.73,5.27,13.39,13.39,0,0,0-3.72,5.79,13.49,13.49,0,0,0-1.55,6.94c.2,4.66,1.73,9.48,5.27,12.73l3.64,2.81a17.92,17.92,0,0,0,9.09,2.46,100.73,100.73,0,0,1,25.26.11l-4.78-.64a101.08,101.08,0,0,1,25.66,6.95l-4.3-1.81a91.15,91.15,0,0,1,20.21,11.75l-3.65-2.82a90.35,90.35,0,0,1,15.89,15.86L1455,266a80.86,80.86,0,0,1,10.48,17.86l-1.81-4.3a70.22,70.22,0,0,1,4.83,17.65l-.64-4.78a61.09,61.09,0,0,1,.07,15.58l.64-4.79a59.26,59.26,0,0,1-4.14,15l1.82-4.3a64.35,64.35,0,0,1-8,13.73L1461,324a62.64,62.64,0,0,1-10.87,11l3.64-2.82a55.64,55.64,0,0,1-12.19,7.2l4.3-1.82a48.5,48.5,0,0,1-12.22,3.36l4.78-.64a46.49,46.49,0,0,1-12,0l4.79.64a49.56,49.56,0,0,1-12.19-3.36l4.3,1.82a56.17,56.17,0,0,1-12.21-7.14l3.64,2.81a61,61,0,0,1-10.85-10.87l2.81,3.64a60.54,60.54,0,0,1-7.59-13l1.81,4.3a65.68,65.68,0,0,1-4.47-16.53l.64,4.78a76.32,76.32,0,0,1,0-20l-.65,4.79a87.07,87.07,0,0,1,6-21.94l-1.82,4.3c.56-1.32,1.15-2.62,1.76-3.91a13.39,13.39,0,0,0,2.14-6.7,16.19,16.19,0,0,0-3.54-13.3,13.64,13.64,0,0,0-5-4.63c-4.18-2.21-9.24-3.32-13.87-1.82-4.25,1.38-8.77,4.09-10.76,8.28Z"/><path class="cls-1" d="M1614,205a50.66,50.66,0,0,0-8.37,1.42,49.25,49.25,0,0,0-8,3.34,43.54,43.54,0,0,0-9.9,7.37c-6.37,6.15-10.44,13.83-13.42,22.07-2.25,6.23-3.27,12.81-4.21,19.35-1.24,8.59-2.5,17.19-3.35,25.84-1.48,15-1.24,30.39,2.67,45a88.11,88.11,0,0,0,8.17,20.14,84.25,84.25,0,0,0,7.37,10.53,50.88,50.88,0,0,0,6.17,6.62,67.16,67.16,0,0,0,10,7.51,68.66,68.66,0,0,0,11.39,5.24,42.12,42.12,0,0,0,8.12,2.17,63.06,63.06,0,0,0,12.71,1.13,53,53,0,0,0,23.8-6.47c7.15-4,12.65-9.73,17.34-16.31a41.5,41.5,0,0,0,3.76-6.49,82.82,82.82,0,0,0,4.41-11.15,89.81,89.81,0,0,0,3.28-20.28,95.31,95.31,0,0,0-.54-16.2,160.35,160.35,0,0,0-3.81-22A128.86,128.86,0,0,0,1676,267.1a164.88,164.88,0,0,0-9.41-19.83,131.26,131.26,0,0,0-9.94-14.86A155,155,0,0,0,1642.45,216q-3.12-3.06-6.45-5.9a20,20,0,0,0-12.73-5.27l-4.78.64a13.59,13.59,0,0,0-6.13,3.22,9.06,9.06,0,0,0-3.22,3.23,13.53,13.53,0,0,0-3.23,6.12c-1,4.47-1,10,1.82,13.87a500.59,500.59,0,0,0,47.4,56.88,501.52,501.52,0,0,0,55.24,48.66Q1726,349.37,1742.49,360a13.38,13.38,0,0,0,6.7,2.13,13.56,13.56,0,0,0,7.17-.32,13.41,13.41,0,0,0,6.12-3.22,13.59,13.59,0,0,0,4.64-5.05c2.21-4.18,3.31-9.24,1.82-13.87a19.47,19.47,0,0,0-8.28-10.76q-17.42-11.14-33.81-23.8l3.65,2.81q-18.57-14.34-35.64-30.47t-32.44-33.86q-8.65-10-16.74-20.46l2.81,3.65q-5-6.42-9.68-13l-28.27,21.81a126.85,126.85,0,0,1,17.8,18.68l-2.81-3.64a131.36,131.36,0,0,1,17,29.1l-1.82-4.3a129.24,129.24,0,0,1,8.93,32.5l-.64-4.78a93.28,93.28,0,0,1,.32,24.7L1650,323a60.2,60.2,0,0,1-4,15l1.82-4.3a42.8,42.8,0,0,1-5.27,9.16l2.81-3.65a34.66,34.66,0,0,1-6.22,6.24l3.64-2.81a32.6,32.6,0,0,1-6.83,4l4.3-1.82a33.8,33.8,0,0,1-8.44,2.28l4.78-.64a39.29,39.29,0,0,1-9.93,0l4.79.65a44.1,44.1,0,0,1-11.16-3.06l4.3,1.81a44.3,44.3,0,0,1-9.36-5.46l3.65,2.81a49.36,49.36,0,0,1-8.51-8.58l2.81,3.65a61,61,0,0,1-7.69-13.3l1.82,4.3a77.91,77.91,0,0,1-5.25-19.61l.65,4.78c-1.83-13.82-.49-27.78,1.35-41.52l-.64,4.79c1.41-10.45,2.38-21.38,6.44-31.22l-1.81,4.3a38.26,38.26,0,0,1,4.9-8.5l-2.81,3.64a31.75,31.75,0,0,1,5.53-5.52l-3.64,2.81a26.07,26.07,0,0,1,5.37-3.15l-4.3,1.82a22.19,22.19,0,0,1,5.28-1.48l-4.78.64.36-.05A17.37,17.37,0,0,0,1630.41,230,13.49,13.49,0,0,0,1632,223c-.21-4.65-1.73-9.48-5.27-12.72l-3.64-2.82A18,18,0,0,0,1614,205Z"/><path class="cls-1" d="M1903.36,228.48c-11.78-2.06-23.8-4.28-35.8-3.93a74.7,74.7,0,0,0-33.32,8.4,56.73,56.73,0,0,0-13,9.67,60.55,60.55,0,0,0-6.49,8,30.88,30.88,0,0,0-3,5.18,55.68,55.68,0,0,0-3.71,9.9,62,62,0,0,0-1.49,10.58,39.2,39.2,0,0,0,.16,6.5,84.11,84.11,0,0,0,1.67,10.7,81.75,81.75,0,0,0,6.22,16.41,74.53,74.53,0,0,0,6.65,11,114.11,114.11,0,0,0,18.4,20.42,123.74,123.74,0,0,0,22.68,15.59,128.82,128.82,0,0,0,25.87,10.21,121.15,121.15,0,0,0,55.07,1.78c1.89-.38,3.78-.81,5.65-1.31a18.52,18.52,0,0,0,10.75-8.27,13.33,13.33,0,0,0,2.14-6.69,13.61,13.61,0,0,0-.32-7.18c-1.41-4.35-4.11-8.56-8.27-10.75a18.88,18.88,0,0,0-13.87-1.82,95.46,95.46,0,0,1-11.36,2.25l4.79-.64a100.91,100.91,0,0,1-26.67-.08l4.79.65a107.35,107.35,0,0,1-26.83-7.36l4.3,1.82A105.83,105.83,0,0,1,1865,315.9l3.64,2.81a98,98,0,0,1-17.36-17.3l2.82,3.64a76.06,76.06,0,0,1-9.93-16.74l1.82,4.3a54.77,54.77,0,0,1-3.73-13.26l.64,4.78a40,40,0,0,1-.06-10.6l-.64,4.79a32.74,32.74,0,0,1,2.16-7.95l-1.82,4.3a32.56,32.56,0,0,1,4.16-7.09l-2.81,3.65a36.67,36.67,0,0,1,6.26-6.19l-3.64,2.82a45,45,0,0,1,9.67-5.6l-4.3,1.82a53.44,53.44,0,0,1,13.24-3.59l-4.78.64a94,94,0,0,1,24.74.53l-4.78-.65c4.52.62,9,1.4,13.53,2.18a13.56,13.56,0,0,0,7.17.32,13.38,13.38,0,0,0,6.7-2.13,20.16,20.16,0,0,0,8.27-10.76c1-4.61.82-9.78-1.82-13.87-2.4-3.72-6.21-7.48-10.75-8.27Z"/><path class="cls-1" d="M1919.11,74l5.82,106.89,5.8,106.34,3.27,60a19,19,0,0,0,5.27,12.72c3.12,3.13,8.25,5.48,12.73,5.28,4.66-.21,9.48-1.74,12.73-5.28s5.53-7.95,5.27-12.72l-5.83-106.89L1958.38,134l-3.27-60a19.06,19.06,0,0,0-5.28-12.73c-3.12-3.12-8.24-5.47-12.72-5.27-4.66.21-9.49,1.74-12.73,5.27s-5.54,8-5.27,12.73Z"/></svg>